<?xml version="1.0" encoding="UTF-8" standalone="no"?>
<!-- Generator: Adobe Illustrator 19.0.0, SVG Export Plug-In . SVG Version: 6.00 Build 0)  -->

<svg
   xmlns:dc="http://purl.org/dc/elements/1.1/"
   xmlns:cc="http://creativecommons.org/ns#"
   xmlns:rdf="http://www.w3.org/1999/02/22-rdf-syntax-ns#"
   xmlns:svg="http://www.w3.org/2000/svg"
   xmlns="http://www.w3.org/2000/svg"
   xmlns:sodipodi="http://sodipodi.sourceforge.net/DTD/sodipodi-0.dtd"
   xmlns:inkscape="http://www.inkscape.org/namespaces/inkscape"
   version="1.1"
   id="Layer_1"
   x="0px"
   y="0px"
   viewBox="0 504.4 2000 492.6"
   style="enable-background:new 0 504.4 2000 492.6;"
   xml:space="preserve"
   inkscape:version="0.91 r13725"
   sodipodi:docname="wildbook_logo_white.svg"><metadata
     id="metadata3517"><rdf:RDF><cc:Work
         rdf:about=""><dc:format>image/svg+xml</dc:format><dc:type
           rdf:resource="http://purl.org/dc/dcmitype/StillImage" /><dc:title /></cc:Work></rdf:RDF></metadata><defs
     id="defs3515"><clipPath
       id="clipPath16"
       clipPathUnits="userSpaceOnUse"><path
         id="path18"
         d="M 0,360 360,360 360,0 0,0 0,360 z" /></clipPath></defs><sodipodi:namedview
     pagecolor="#000000"
     bordercolor="#666666"
     borderopacity="1"
     objecttolerance="10"
     gridtolerance="10"
     guidetolerance="10"
     inkscape:pageopacity="1"
     inkscape:pageshadow="2"
     inkscape:window-width="1600"
     inkscape:window-height="838"
     id="namedview3513"
     showgrid="false"
     inkscape:zoom="0.573"
     inkscape:cx="455.82718"
     inkscape:cy="246.3"
     inkscape:window-x="-8"
     inkscape:window-y="-8"
     inkscape:window-maximized="1"
     inkscape:current-layer="g24" /><style
     type="text/css"
     id="style3337">
	.st0{display:none;}
	.st1{display:inline;fill:#D80E0E;}
	.st2{display:inline;fill:#393A3A;}
	.st3{display:inline;fill:none;stroke:#000000;stroke-miterlimit:10;}
	.st4{fill:#FFFFFF;}
	.st5{fill:#504F4E;}
	.st6{fill:none;stroke:#9BCA3B;stroke-width:12;stroke-miterlimit:10;}
	.st7{fill:none;stroke:#9BCA3B;stroke-width:12;stroke-miterlimit:10;stroke-dasharray:20.6869,20.6869;}
	.st8{fill:none;stroke:#9BCA3B;stroke-width:12;stroke-miterlimit:10;stroke-dasharray:19.0275,19.0275;}
	.st9{fill:none;stroke:#9BCA3B;stroke-width:12;stroke-miterlimit:10;stroke-dasharray:20.6871,20.6871;}
	.st10{fill:none;stroke:#9BCA3B;stroke-width:12;stroke-miterlimit:10;stroke-dasharray:19.0276,19.0276;}
	.st11{fill:none;}
	.st12{enable-background:new    ;}
	.st13{display:none;fill:#D80E0E;}
</style><g
     id="Layer_2_1_"
     class="st0"><rect
       x="-192.3"
       y="545.1"
       class="st1"
       width="2265.2"
       height="1536.2"
       id="rect3340" /></g><g
     id="Layer_1_1_"><g
       id="Layer_5"
       class="st0"><rect
         x="-95.4"
         y="375.7"
         class="st2"
         width="2172.4"
         height="724.3"
         id="rect3344" /></g><g
       id="Layer_2"
       class="st0"><path
         class="st3"
         d="M1572.8,847.6c47.4-25.3,167-71,212-35.7c15.6,12.2,27.5,42.5,59.7,57.6s76.9,9,76.9,9s2.4-0.7,2.6-3.8    s-2.8-2.8-2.8-2.8s-67.7-6.2-85.2-28.8s-24-45-24-45s-15.7-77.4,6.9-149.9s23.7-146.1,85.4-168.2c0,0,3.1-3.6,0.5-5.7    s-37-14.9-74.6,0.5c-33.6,13.8-148.2,66.1-169.8,64.3c-6.6-0.5-45.1-9-50.4-11.8c-52-27.8-73.3-62.2-81-51.7    c-12.7,17.7,83,79.9,48.1,111.8c-18.9,17.2-42.2,6.7-60.7-8.2c-8.7-7.1-39.1-41.7-61.7-34c-22.6,7.7,44.8,66.6,56.3,77.2    c8.5,7.8,13.7,18.6,16.8,34c2.3,11.3,5.5,24.3-1.5,44.8c0,0-55,109.1-49.4,183.1c5.6,74,15.4,50.9,15.4,50.9    S1496.8,888.2,1572.8,847.6z"
         id="path3347" /></g><rect
       style="fill:none"
       id="rect3435"
       height="206"
       width="2012.8"
       class="st11"
       y="602.70001"
       x="431.20001" /><g
       inkscape:label="title"
       id="layer1"
       inkscape:groupmode="layer"
       transform="translate(-8,0)"><g
         id="text3524"
         style="font-style:normal;font-variant:normal;font-weight:bold;font-stretch:normal;font-size:180px;line-height:125%;font-family:Multicolore;-inkscape-font-specification:'Multicolore Bold';letter-spacing:0px;word-spacing:0px;fill:#ffffff;fill-opacity:1;stroke:none;stroke-width:1px;stroke-linecap:butt;stroke-linejoin:miter;stroke-opacity:1" /></g><g
       transform="matrix(0.97983135,0,0,1.0205838,448,0)"
       style="font-style:normal;font-weight:normal;font-size:258.65286255px;line-height:125%;font-family:sans-serif;letter-spacing:0px;word-spacing:0px;fill:#000000;fill-opacity:1;stroke:none;stroke-width:1px;stroke-linecap:butt;stroke-linejoin:miter;stroke-opacity:1"
       id="text3537"><path
         d="m 150.1004,586.28964 c -6.72498,-15.77783 -23.02011,-15.00187 -29.22778,0.77595 L 75.091066,693.63057 36.810442,587.06559 C 30.085468,566.63202 -2.7634457,575.16756 4.9961402,598.44632 L 55.174796,739.41213 c 4.138445,11.38073 8.794197,17.5884 17.847047,17.5884 9.311503,0 13.708602,-6.20767 18.364353,-17.07109 l 42.936374,-100.61597 45.0056,102.16788 c 5.17306,9.31151 8.01824,15.00187 17.32974,15.00187 8.7942,0 13.1913,-4.3971 17.84705,-19.14031 l 51.21327,-138.89659 c 7.75958,-22.5028 -23.53741,-32.33161 -31.297,-11.38073 L 195.88195,693.63057 150.1004,586.28964 Z"
         style="font-style:normal;font-variant:normal;font-weight:bold;font-stretch:normal;font-family:Multicolore;-inkscape-font-specification:'Multicolore Bold';fill:#ffffff"
         id="path3615"
         inkscape:connector-curvature="0" /><path
         d="m 292.21802,739.67078 c 0,21.9855 34.14218,21.46819 34.14218,0 l 0,-147.69078 c 0,-21.98549 -34.14218,-21.20954 -34.14218,0 l 0,147.69078 z"
         style="font-style:normal;font-variant:normal;font-weight:bold;font-stretch:normal;font-family:Multicolore;-inkscape-font-specification:'Multicolore Bold';fill:#ffffff"
         id="path3617"
         inkscape:connector-curvature="0" /><path
         d="m 364.66911,739.67078 c 0,9.31151 7.24228,15.77783 16.29513,15.77783 l 85.6141,0 c 25.86529,0 25.34798,-33.88353 0,-33.88353 l -70.35358,0 0,-129.58508 c 0,-8.53555 -6.98363,-15.77783 -15.26052,-15.77783 -9.05285,0 -16.29513,7.24228 -16.29513,15.77783 l 0,147.69078 z"
         style="font-style:normal;font-variant:normal;font-weight:bold;font-stretch:normal;font-family:Multicolore;-inkscape-font-specification:'Multicolore Bold';fill:#ffffff"
         id="path3619"
         inkscape:connector-curvature="0" /><path
         d="m 589.26064,608.01648 c 72.9401,0 69.83627,115.87648 0,115.87648 l -42.93638,0 0,-115.87648 42.93638,0 z m 2.32787,147.43213 c 113.28995,0 115.87648,-178.98778 -2.32787,-178.98778 l -59.23151,0 c -8.53554,0 -17.84705,6.72497 -17.84705,16.03647 l 0,146.91483 c 0,11.38073 9.31151,16.03648 17.84705,16.03648 l 61.55938,0 z"
         style="font-style:normal;font-variant:normal;font-weight:bold;font-stretch:normal;font-family:Multicolore;-inkscape-font-specification:'Multicolore Bold';fill:#ffffff"
         id="path3621"
         inkscape:connector-curvature="0" /><path
         d="m 813.99357,625.86352 c 0,13.70861 -6.98363,20.69223 -18.1057,20.69223 l -54.57576,0 0,-38.53927 54.57576,0 c 11.12207,0 18.1057,9.3115 18.1057,17.84704 z m -9.57016,129.58509 c 38.79793,0 58.97285,-24.31337 58.97285,-54.05845 0,-19.14031 -9.05285,-34.91814 -29.48642,-42.93638 10.86342,-9.57015 14.2259,-20.95088 14.2259,-32.59026 0,-26.38259 -18.36435,-49.40269 -52.24787,-49.40269 l -72.68146,0 c -9.3115,0 -15.77782,6.72497 -15.77782,16.03647 l 0,146.91483 c 0,9.05285 6.46632,16.03648 15.77782,16.03648 l 81.217,0 z m -63.1113,-77.33721 c 20.43358,0 43.45368,0 63.1113,0 30.00373,0 30.00373,45.78156 0,45.78156 l -63.1113,0 0,-45.78156 z"
         style="font-style:normal;font-variant:normal;font-weight:bold;font-stretch:normal;font-family:Multicolore;-inkscape-font-specification:'Multicolore Bold';fill:#ffffff"
         id="path3623"
         inkscape:connector-curvature="0" /><path
         d="m 1077.7427,664.92011 c 0,-61.30073 -47.3335,-92.59773 -92.59773,-94.9256 -47.85078,0 -97.51213,31.29699 -97.51213,94.9256 0,63.36995 49.66135,95.18425 97.51213,93.11503 45.26423,0 92.59773,-31.81431 92.59773,-93.11503 z m -33.8835,0 c 0,40.6085 -31.8143,61.30072 -61.55941,61.30072 -28.96912,0 -60.52477,-20.69222 -60.52477,-61.30072 0,-40.86716 31.55565,-61.30073 60.52477,-61.30073 29.74511,0 61.55941,20.43357 61.55941,61.30073 z"
         style="font-style:normal;font-variant:normal;font-weight:bold;font-stretch:normal;font-family:Multicolore;-inkscape-font-specification:'Multicolore Bold';fill:#ffffff"
         id="path3625"
         inkscape:connector-curvature="0" /><path
         d="m 1292.95,664.92011 c 0,-61.30073 -47.3334,-92.59773 -92.5977,-94.9256 -47.8508,0 -97.5121,31.29699 -97.5121,94.9256 0,63.36995 49.6613,95.18425 97.5121,93.11503 45.2643,0 92.5977,-31.81431 92.5977,-93.11503 z m -33.8835,0 c 0,40.6085 -31.8143,61.30072 -61.5594,61.30072 -28.9691,0 -60.5247,-20.69222 -60.5247,-61.30072 0,-40.86716 31.5556,-61.30073 60.5247,-61.30073 29.7451,0 61.5594,20.43357 61.5594,61.30073 z"
         style="font-style:normal;font-variant:normal;font-weight:bold;font-stretch:normal;font-family:Multicolore;-inkscape-font-specification:'Multicolore Bold';fill:#ffffff"
         id="path3627"
         inkscape:connector-curvature="0" /><path
         d="m 1440.9074,749.49959 c 10.3462,16.55379 43.4537,1.03461 27.9346,-20.43357 l -60.5248,-73.19876 c 16.5538,-18.1057 34.4008,-34.14218 49.6613,-52.24788 7.2423,-6.98363 7.2423,-16.03648 0,-23.02011 -6.4663,-6.46632 -15.5191,-8.53554 -24.572,0 l -74.7507,77.07856 0,-65.69783 c 0,-22.76145 -34.1421,-21.98549 -34.1421,0 0,49.92 0,98.02943 0,147.69078 0,21.72684 34.1421,21.46819 34.1421,0 l 0,-36.2114 24.5721,-27.15855 57.6795,73.19876 z"
         style="font-style:normal;font-variant:normal;font-weight:bold;font-stretch:normal;font-family:Multicolore;-inkscape-font-specification:'Multicolore Bold';fill:#ffffff"
         id="path3629"
         inkscape:connector-curvature="0" /></g><rect
       x="-121.1"
       y="-173.4"
       class="st13"
       width="2195.2"
       height="1848.2"
       id="rect3511" /><g
       style="font-style:normal;font-variant:normal;font-weight:normal;font-stretch:normal;font-size:105px;line-height:125%;font-family:Tunga;-inkscape-font-specification:Tunga;letter-spacing:0px;word-spacing:0px;fill:#ffffff;fill-opacity:1;stroke:none;stroke-width:1px;stroke-linecap:butt;stroke-linejoin:miter;stroke-opacity:1"
       id="text3610"
       transform="translate(448,0)"><path
         d="m 56.817291,797.80206 18.61084,0 q 29.838869,0 29.838869,28.96729 0,29.63379 -29.838869,29.63379 l -18.61084,0 0,-58.60108 z m 7.741699,51.62842 10.664063,0 q 12.817383,0 17.431641,-5.896 4.614257,-5.89599 4.614257,-16.76513 0,-10.56153 -4.614257,-16.25244 -4.614258,-5.79346 -17.431641,-5.79346 l -10.664063,0 0,44.70703 z"
         id="path3833"
         inkscape:connector-curvature="0" /><path
         d="m 141.97598,852.04523 q -5.84472,5.3833 -14.86816,5.3833 -3.12744,0 -5.79346,-0.92285 -2.66601,-0.87159 -4.61426,-2.46094 -1.89697,-1.64063 -2.97363,-3.89649 -1.07666,-2.25585 -1.07666,-4.97314 0,-14.86816 25.63477,-14.86816 l 3.6914,0 q 0,-2.3584 -0.10254,-3.94776 -0.0513,-1.58935 -0.35888,-2.71728 -0.30762,-1.12793 -0.97412,-1.89698 -0.61524,-0.76904 -1.74317,-1.48681 -2.25586,-1.38428 -7.02392,-1.38428 -10.04883,0 -10.35645,7.229 l -7.53662,0 q 0.82031,-13.07373 18.30322,-13.07373 8.15186,0 12.71485,3.22998 4.56298,3.17872 4.56298,12.71485 l 0,27.4292 -7.48535,0 0,-4.35791 z m 0,-6.81885 0,-9.38232 -5.17822,0 q -16.40625,0 -16.40625,8.92089 0,3.22998 2.3584,4.97315 2.40967,1.74316 6.51123,1.74316 1.8457,0 3.64014,-0.41015 1.8457,-0.46143 3.53759,-1.28174 1.6919,-0.82031 3.07618,-1.94824 1.43554,-1.1792 2.46093,-2.61475 z"
         id="path3835"
         inkscape:connector-curvature="0" /><path
         d="m 177.09561,856.50568 q -2.46094,0.46142 -5.43457,0.46142 -3.6914,0 -5.69092,-0.97412 -1.99951,-0.97412 -2.97363,-2.66601 -0.97412,-1.74317 -1.1792,-4.10157 -0.15381,-2.40967 -0.15381,-5.28076 l 0,-24.04541 -5.22949,0 0,-5.94726 5.22949,0 0,-10.51026 7.53662,0 0,10.51026 6.87012,0 0,5.94726 -6.87012,0 0,24.45557 q 0,2.25586 0.25635,3.58886 0.30762,1.33301 0.82031,2.05079 0.56397,0.6665 1.33301,0.87158 0.76904,0.20508 1.6919,0.20508 1.94824,0 3.79394,-0.30762 l 0,5.74219 z"
         id="path3837"
         inkscape:connector-curvature="0" /><path
         d="m 210.267,852.04523 q -5.84473,5.3833 -14.86817,5.3833 -3.12744,0 -5.79345,-0.92285 -2.66602,-0.87159 -4.61426,-2.46094 -1.89697,-1.64063 -2.97363,-3.89649 -1.07666,-2.25585 -1.07666,-4.97314 0,-14.86816 25.63476,-14.86816 l 3.69141,0 q 0,-2.3584 -0.10254,-3.94776 -0.0513,-1.58935 -0.35889,-2.71728 -0.30761,-1.12793 -0.97412,-1.89698 -0.61523,-0.76904 -1.74316,-1.48681 -2.25586,-1.38428 -7.02393,-1.38428 -10.04883,0 -10.35644,7.229 l -7.53662,0 q 0.82031,-13.07373 18.30322,-13.07373 8.15185,0 12.71484,3.22998 4.56299,3.17872 4.56299,12.71485 l 0,27.4292 -7.48535,0 0,-4.35791 z m 0,-6.81885 0,-9.38232 -5.17822,0 q -16.40625,0 -16.40625,8.92089 0,3.22998 2.35839,4.97315 2.40967,1.74316 6.51123,1.74316 1.84571,0 3.64014,-0.41015 1.8457,-0.46143 3.5376,-1.28174 1.69189,-0.82031 3.07617,-1.94824 1.43555,-1.1792 2.46094,-2.61475 z"
         id="path3839"
         inkscape:connector-curvature="0" /><path
         d="m 317.83047,856.40314 -7.38281,0 0,-49.88526 -16.71386,49.88526 -6.97266,0 -16.71387,-49.88526 0,49.88526 -7.33154,0 0,-58.60108 11.63818,0 15.89356,48.85987 15.94482,-48.85987 11.63818,0 0,58.60108 z"
         id="path3841"
         inkscape:connector-curvature="0" /><path
         d="m 356.89786,852.04523 q -5.84473,5.3833 -14.86817,5.3833 -3.12744,0 -5.79345,-0.92285 -2.66602,-0.87159 -4.61426,-2.46094 -1.89697,-1.64063 -2.97363,-3.89649 -1.07666,-2.25585 -1.07666,-4.97314 0,-14.86816 25.63476,-14.86816 l 3.69141,0 q 0,-2.3584 -0.10254,-3.94776 -0.0513,-1.58935 -0.35889,-2.71728 -0.30762,-1.12793 -0.97412,-1.89698 -0.61523,-0.76904 -1.74316,-1.48681 -2.25586,-1.38428 -7.02393,-1.38428 -10.04883,0 -10.35644,7.229 l -7.53663,0 q 0.82032,-13.07373 18.30323,-13.07373 8.15185,0 12.71484,3.22998 4.56299,3.17872 4.56299,12.71485 l 0,27.4292 -7.48535,0 0,-4.35791 z m 0,-6.81885 0,-9.38232 -5.17822,0 q -16.40625,0 -16.40625,8.92089 0,3.22998 2.35839,4.97315 2.40967,1.74316 6.51123,1.74316 1.84571,0 3.64014,-0.41015 1.8457,-0.46143 3.5376,-1.28174 1.69189,-0.82031 3.07617,-1.94824 1.43555,-1.1792 2.46094,-2.61475 z"
         id="path3843"
         inkscape:connector-curvature="0" /><path
         d="m 383.09659,819.38654 q 5.58838,-6.35743 12.66357,-6.35743 14.35547,0 14.35547,15.63721 l 0,27.73682 -7.53662,0 0,-27.4292 q 0,-5.22949 -1.89697,-7.48535 -1.84571,-2.25586 -6.10108,-2.25586 -5.74218,0 -11.48437,6.76758 l 0,30.40283 -7.58789,0 0,-42.45117 7.58789,0 0,5.43457 z"
         id="path3845"
         inkscape:connector-curvature="0" /><path
         d="m 447.95255,852.04523 q -5.84473,5.3833 -14.86817,5.3833 -3.12744,0 -5.79346,-0.92285 -2.66601,-0.87159 -4.61425,-2.46094 -1.89698,-1.64063 -2.97364,-3.89649 -1.07666,-2.25585 -1.07666,-4.97314 0,-14.86816 25.63477,-14.86816 l 3.69141,0 q 0,-2.3584 -0.10254,-3.94776 -0.0513,-1.58935 -0.35889,-2.71728 -0.30762,-1.12793 -0.97412,-1.89698 -0.61524,-0.76904 -1.74317,-1.48681 -2.25586,-1.38428 -7.02392,-1.38428 -10.04883,0 -10.35645,7.229 l -7.53662,0 q 0.82031,-13.07373 18.30322,-13.07373 8.15186,0 12.71485,3.22998 4.56299,3.17872 4.56299,12.71485 l 0,27.4292 -7.48535,0 0,-4.35791 z m 0,-6.81885 0,-9.38232 -5.17823,0 q -16.40625,0 -16.40625,8.92089 0,3.22998 2.3584,4.97315 2.40967,1.74316 6.51123,1.74316 1.8457,0 3.64014,-0.41015 1.8457,-0.46143 3.5376,-1.28174 1.69189,-0.82031 3.07617,-1.94824 1.43554,-1.1792 2.46094,-2.61475 z"
         id="path3847"
         inkscape:connector-curvature="0" /><path
         d="m 500.96524,853.12189 q 0,20.45654 -18.45703,20.45654 -3.99902,0 -7.17774,-0.92285 -3.17871,-0.87158 -5.43457,-2.56348 -2.20459,-1.64062 -3.43505,-3.99902 -1.1792,-2.3584 -1.1792,-5.33203 l 7.79297,0 q 0,6.97265 9.33105,6.97265 2.56348,0 4.61426,-0.61523 2.05078,-0.61524 3.48633,-2.20459 1.43554,-1.58936 2.20459,-4.35791 0.76904,-2.76856 0.76904,-7.12647 l 0,-2.10205 q -5.07568,6.10108 -12.15088,6.10108 -4.15283,0 -7.43408,-1.53809 -3.22998,-1.58935 -5.48584,-4.46045 -2.20459,-2.87109 -3.38379,-6.87011 -1.12793,-4.0503 -1.12793,-9.02344 0,-5.17822 1.33301,-9.33106 1.38427,-4.15283 3.74267,-7.07519 2.40967,-2.92237 5.69092,-4.51172 3.33252,-1.58936 7.17774,-1.58936 6.92138,0 11.63818,4.20411 l 0,-3.28125 7.48535,0 0,39.16992 z m -7.48535,-8.9209 0,-20.14893 q -4.92188,-5.17822 -11.17676,-5.17822 -4.8706,0 -7.79297,4.2041 -2.87109,4.15283 -2.87109,12.4585 0,7.84424 2.71728,11.89453 2.76856,4.05029 7.63916,4.05029 6.20362,0 11.48438,-7.28027 z"
         id="path3849"
         inkscape:connector-curvature="0" /><path
         d="m 530.1376,857.42853 q -4.66552,0 -8.51074,-1.48682 -3.79394,-1.53808 -6.51123,-4.35791 -2.71728,-2.87109 -4.2041,-6.97265 -1.48682,-4.15284 -1.48682,-9.38233 0,-5.22949 1.43555,-9.33105 1.48682,-4.15284 4.10156,-6.97266 2.61475,-2.87109 6.25489,-4.35791 3.6914,-1.53809 8.10058,-1.53809 4.51172,0 8.15186,1.48682 3.6914,1.48682 6.30615,4.35791 2.61475,2.81982 3.99902,6.97266 1.43555,4.10156 1.43555,9.38232 l 0,1.79443 -31.94092,0 q 0.25635,3.74268 1.33301,6.45997 1.07666,2.71728 2.76855,4.51171 1.74317,1.74317 3.94776,2.61475 2.25586,0.87158 4.81933,0.87158 1.94825,0 3.79395,-0.51269 1.8457,-0.5127 3.28125,-1.48682 1.48682,-0.97412 2.40967,-2.40967 0.92285,-1.48681 1.02539,-3.33252 l 7.79297,0 q -0.46143,3.28125 -2.05078,5.84473 -1.53809,2.56348 -3.99903,4.30664 -2.40967,1.74316 -5.53711,2.61475 -3.12744,0.92285 -6.71631,0.92285 z m 11.12549,-26.35254 q -0.92285,-6.15234 -4.10156,-9.17725 -3.17871,-3.0249 -7.84424,-3.0249 -2.25586,0 -4.2041,0.76904 -1.94824,0.71778 -3.5376,2.25586 -1.53808,1.48682 -2.61474,3.79395 -1.07666,2.30713 -1.53809,5.3833 l 23.84033,0 z"
         id="path3851"
         inkscape:connector-curvature="0" /><path
         d="m 614.98868,856.40314 -7.53662,0 0,-27.4292 q 0,-5.28076 -1.53809,-7.48535 -1.48682,-2.25586 -5.07568,-2.25586 -5.48584,0 -10.7666,6.76758 l 0,30.40283 -7.53663,0 0,-27.4292 q 0,-5.28076 -1.53808,-7.48535 -1.48682,-2.25586 -5.07568,-2.25586 -5.48584,0 -10.71534,6.76758 l 0,30.40283 -7.58789,0 0,-42.45117 7.58789,0 0,5.43457 q 5.28076,-6.35743 11.84326,-6.35743 9.33106,0 11.89454,7.63916 2.15332,-2.46093 3.94775,-4.05029 1.79443,-1.58935 3.28125,-2.25586 2.97363,-1.33301 5.79346,-1.33301 13.02246,0 13.02246,15.63721 l 0,27.73682 z"
         id="path3853"
         inkscape:connector-curvature="0" /><path
         d="m 643.95596,857.42853 q -4.66552,0 -8.51074,-1.48682 -3.79394,-1.53808 -6.51123,-4.35791 -2.71728,-2.87109 -4.2041,-6.97265 -1.48682,-4.15284 -1.48682,-9.38233 0,-5.22949 1.43555,-9.33105 1.48682,-4.15284 4.10156,-6.97266 2.61475,-2.87109 6.25488,-4.35791 3.69141,-1.53809 8.10059,-1.53809 4.51172,0 8.15186,1.48682 3.6914,1.48682 6.30615,4.35791 2.61474,2.81982 3.99902,6.97266 1.43555,4.10156 1.43555,9.38232 l 0,1.79443 -31.94092,0 q 0.25635,3.74268 1.33301,6.45997 1.07666,2.71728 2.76855,4.51171 1.74317,1.74317 3.94776,2.61475 2.25586,0.87158 4.81933,0.87158 1.94825,0 3.79395,-0.51269 1.8457,-0.5127 3.28125,-1.48682 1.48681,-0.97412 2.40967,-2.40967 0.92285,-1.48681 1.02539,-3.33252 l 7.79297,0 q -0.46143,3.28125 -2.05079,5.84473 -1.53808,2.56348 -3.99902,4.30664 -2.40967,1.74316 -5.53711,2.61475 -3.12744,0.92285 -6.71631,0.92285 z m 11.12549,-26.35254 q -0.92285,-6.15234 -4.10156,-9.17725 -3.17871,-3.0249 -7.84424,-3.0249 -2.25586,0 -4.2041,0.76904 -1.94824,0.71778 -3.5376,2.25586 -1.53808,1.48682 -2.61474,3.79395 -1.07666,2.30713 -1.53809,5.3833 l 23.84033,0 z"
         id="path3855"
         inkscape:connector-curvature="0" /><path
         d="m 679.02432,819.38654 q 5.58838,-6.35743 12.66358,-6.35743 14.35547,0 14.35547,15.63721 l 0,27.73682 -7.53663,0 0,-27.4292 q 0,-5.22949 -1.89697,-7.48535 -1.8457,-2.25586 -6.10107,-2.25586 -5.74219,0 -11.48438,6.76758 l 0,30.40283 -7.58789,0 0,-42.45117 7.58789,0 0,5.43457 z"
         id="path3857"
         inkscape:connector-curvature="0" /><path
         d="m 733.47256,856.50568 q -2.46093,0.46142 -5.43457,0.46142 -3.6914,0 -5.69091,-0.97412 -1.99952,-0.97412 -2.97364,-2.66601 -0.97412,-1.74317 -1.1792,-4.10157 -0.1538,-2.40967 -0.1538,-5.28076 l 0,-24.04541 -5.2295,0 0,-5.94726 5.2295,0 0,-10.51026 7.53662,0 0,10.51026 6.87011,0 0,5.94726 -6.87011,0 0,24.45557 q 0,2.25586 0.25634,3.58886 0.30762,1.33301 0.82032,2.05079 0.56396,0.6665 1.333,0.87158 0.76905,0.20508 1.6919,0.20508 1.94824,0 3.79394,-0.30762 l 0,5.74219 z"
         id="path3859"
         inkscape:connector-curvature="0" /><path
         d="m 781.40958,819.89923 0,36.50391 -7.53662,0 0,-36.50391 -6.25489,0 0,-5.94726 6.25489,0 0,-3.74268 q 0,-13.43262 11.89453,-13.43262 3.64013,0 5.63965,0.46143 l 0,6.5625 q -1.12793,-0.20508 -2.25586,-0.25635 -1.12793,-0.10254 -2.30713,-0.10254 -2.76856,0 -4.10157,1.53809 -1.333,1.53808 -1.333,5.33203 l 0,3.64014 8.04931,0 0,5.94726 -8.04931,0 z"
         id="path3861"
         inkscape:connector-curvature="0" /><path
         d="m 812.53018,813.02911 q 4.51172,0 8.15186,1.48682 3.6914,1.48682 6.30615,4.35791 2.61475,2.81982 3.99902,6.97266 1.43555,4.10156 1.43555,9.38232 0,5.22949 -1.43555,9.38233 -1.38427,4.10156 -3.99902,6.97265 -2.61475,2.81983 -6.30615,4.35791 -3.64014,1.48682 -8.15186,1.48682 -4.51172,0 -8.20312,-1.48682 -3.64014,-1.48681 -6.25489,-4.30664 -2.61474,-2.81982 -4.05029,-6.92139 -1.38428,-4.15283 -1.38428,-9.48486 0,-5.33203 1.43555,-9.43359 1.43555,-4.15283 4.05029,-6.97266 2.61475,-2.87109 6.25489,-4.30664 3.6914,-1.48682 8.15185,-1.48682 z m 0,38.45215 q 2.66602,0 4.87061,-1.02539 2.25586,-1.02539 3.84521,-3.07617 1.64063,-2.05078 2.51221,-5.07568 0.87158,-3.07618 0.87158,-7.0752 0,-4.10156 -0.92285,-7.17773 -0.87158,-3.07618 -2.51221,-5.07569 -1.58935,-2.05078 -3.79394,-3.07617 -2.20459,-1.02539 -4.87061,-1.02539 -2.66601,0 -4.92187,1.02539 -2.20459,1.02539 -3.84522,3.07617 -1.58935,1.99951 -2.5122,5.07569 -0.87159,3.07617 -0.87159,7.17773 0,3.99902 0.87159,7.0752 0.87158,3.0249 2.46093,5.07568 1.64063,2.05078 3.84522,3.07617 2.25586,1.02539 4.97314,1.02539 z"
         id="path3863"
         inkscape:connector-curvature="0" /><path
         d="m 862.87686,820.87335 q -1.53808,-0.51269 -4.61426,-0.51269 -5.69091,0 -9.84375,6.0498 l 0,29.99268 -7.58789,0 0,-42.45117 7.58789,0 0,5.94726 q 4.66553,-6.87012 11.02295,-6.87012 1.58936,0 3.43506,0.30762 l 0,7.53662 z"
         id="path3865"
         inkscape:connector-curvature="0" /><path
         d="m 971.87589,797.80206 -16.25245,58.60108 -7.43408,0 -14.04785,-50.96192 -14.15039,50.96192 -7.43408,0 -16.20117,-58.60108 8.20312,0 11.68945,47.73194 13.22754,-47.73194 9.27979,0 13.22754,47.73194 11.68945,-47.73194 8.20313,0 z"
         id="path3867"
         inkscape:connector-curvature="0" /><path
         d="m 985.8212,856.40314 -7.58789,0 0,-42.45117 7.58789,0 0,42.45117 z m 0,-50.44922 -7.58789,0 0,-8.15186 7.58789,0 0,8.15186 z"
         id="path3869"
         inkscape:connector-curvature="0" /><path
         d="m 1004.4833,856.40314 -7.58788,0 0,-58.60108 7.58788,0 0,58.60108 z"
         id="path3871"
         inkscape:connector-curvature="0" /><path
         d="m 1042.474,851.32745 q -5.0757,6.10108 -12.1508,6.10108 -4.1529,0 -7.4341,-1.53809 -3.23,-1.58935 -5.4859,-4.46045 -2.2046,-2.87109 -3.3838,-6.87011 -1.1279,-4.0503 -1.1279,-9.02344 0,-5.17822 1.333,-9.33106 1.3843,-4.15283 3.7427,-7.07519 2.4097,-2.92237 5.6909,-4.51172 3.3325,-1.58936 7.1777,-1.58936 6.9214,0 11.6382,4.20411 l 0,-19.43116 7.4854,0 0,58.60108 -7.4854,0 0,-5.07569 z m 0,-7.12646 0,-20.14893 q -4.9218,-5.17822 -11.1767,-5.17822 -4.8706,0 -7.793,4.2041 -2.8711,4.15283 -2.8711,12.4585 0,7.84424 2.7173,11.89453 2.7685,4.05029 7.6392,4.05029 6.2036,0 11.4843,-7.28027 z"
         id="path3873"
         inkscape:connector-curvature="0" /><path
         d="m 1068.6728,856.40314 -7.5879,0 0,-58.60108 7.5879,0 0,58.60108 z"
         id="path3875"
         inkscape:connector-curvature="0" /><path
         d="m 1087.3349,856.40314 -7.5879,0 0,-42.45117 7.5879,0 0,42.45117 z m 0,-50.44922 -7.5879,0 0,-8.15186 7.5879,0 0,8.15186 z"
         id="path3877"
         inkscape:connector-curvature="0" /><path
         d="m 1107.2787,819.89923 0,36.50391 -7.5366,0 0,-36.50391 -6.2549,0 0,-5.94726 6.2549,0 0,-3.74268 q 0,-13.43262 11.8945,-13.43262 3.6402,0 5.6397,0.46143 l 0,6.5625 q -1.128,-0.20508 -2.2559,-0.25635 -1.1279,-0.10254 -2.3071,-0.10254 -2.7686,0 -4.1016,1.53809 -1.333,1.53808 -1.333,5.33203 l 0,3.64014 8.0493,0 0,5.94726 -8.0493,0 z"
         id="path3879"
         inkscape:connector-curvature="0" /><path
         d="m 1139.2196,857.42853 q -4.6655,0 -8.5107,-1.48682 -3.794,-1.53808 -6.5112,-4.35791 -2.7173,-2.87109 -4.2041,-6.97265 -1.4869,-4.15284 -1.4869,-9.38233 0,-5.22949 1.4356,-9.33105 1.4868,-4.15284 4.1016,-6.97266 2.6147,-2.87109 6.2548,-4.35791 3.6914,-1.53809 8.1006,-1.53809 4.5117,0 8.1519,1.48682 3.6914,1.48682 6.3061,4.35791 2.6148,2.81982 3.9991,6.97266 1.4355,4.10156 1.4355,9.38232 l 0,1.79443 -31.9409,0 q 0.2563,3.74268 1.333,6.45997 1.0767,2.71728 2.7685,4.51171 1.7432,1.74317 3.9478,2.61475 2.2559,0.87158 4.8193,0.87158 1.9483,0 3.794,-0.51269 1.8457,-0.5127 3.2812,-1.48682 1.4868,-0.97412 2.4097,-2.40967 0.9228,-1.48681 1.0254,-3.33252 l 7.793,0 q -0.4615,3.28125 -2.0508,5.84473 -1.5381,2.56348 -3.999,4.30664 -2.4097,1.74316 -5.5372,2.61475 -3.1274,0.92285 -6.7163,0.92285 z m 11.1255,-26.35254 q -0.9228,-6.15234 -4.1015,-9.17725 -3.1788,-3.0249 -7.8443,-3.0249 -2.2558,0 -4.2041,0.76904 -1.9482,0.71778 -3.5376,2.25586 -1.5381,1.48682 -2.6147,3.79395 -1.0767,2.30713 -1.5381,5.3833 l 23.8403,0 z"
         id="path3881"
         inkscape:connector-curvature="0" /><path
         d="m 1249.3979,856.40314 -8.4082,0 -5.4859,-15.63721 q -0.769,-2.05078 -2.0508,-3.79395 -1.2304,-1.74316 -2.9223,-2.97363 -1.6407,-1.28174 -3.6914,-1.94824 -1.9995,-0.71777 -4.2041,-0.71777 l -14.3555,0 0,25.0708 -7.7417,0 0,-58.60108 25.9424,0 q 3.3838,0 6.1523,0.30762 2.8198,0.30762 4.9732,0.97412 2.1533,0.66651 3.9477,2.15332 1.7945,1.43555 3.0762,3.48633 1.2817,1.99951 1.9995,4.46045 0.7178,2.40967 0.7178,5.02441 0,3.02491 -0.9229,5.58838 -0.9228,2.56348 -2.6147,4.56299 -1.6919,1.99951 -4.1529,3.38379 -2.4096,1.33301 -5.4345,2.10205 6.1523,2.05078 9.2798,10.61279 l 5.896,15.94483 z m -41.1182,-32.04346 17.3291,0 q 3.6401,0 6.2549,-0.5127 2.6147,-0.56396 4.2553,-1.74316 1.6919,-1.23047 2.461,-3.17871 0.769,-1.94824 0.769,-4.7168 0,-9.99756 -12.561,-9.99756 l -18.5083,0 0,20.14893 z"
         id="path3883"
         inkscape:connector-curvature="0" /><path
         d="m 1276.8271,857.42853 q -4.6656,0 -8.5108,-1.48682 -3.7939,-1.53808 -6.5112,-4.35791 -2.7173,-2.87109 -4.2041,-6.97265 -1.4868,-4.15284 -1.4868,-9.38233 0,-5.22949 1.4355,-9.33105 1.4868,-4.15284 4.1016,-6.97266 2.6147,-2.87109 6.2549,-4.35791 3.6914,-1.53809 8.1005,-1.53809 4.5118,0 8.1519,1.48682 3.6914,1.48682 6.3062,4.35791 2.6147,2.81982 3.999,6.97266 1.4355,4.10156 1.4355,9.38232 l 0,1.79443 -31.9409,0 q 0.2564,3.74268 1.333,6.45997 1.0767,2.71728 2.7686,4.51171 1.7431,1.74317 3.9477,2.61475 2.2559,0.87158 4.8194,0.87158 1.9482,0 3.7939,-0.51269 1.8457,-0.5127 3.2813,-1.48682 1.4868,-0.97412 2.4096,-2.40967 0.9229,-1.48681 1.0254,-3.33252 l 7.793,0 q -0.4614,3.28125 -2.0508,5.84473 -1.5381,2.56348 -3.999,4.30664 -2.4097,1.74316 -5.5371,2.61475 -3.1275,0.92285 -6.7163,0.92285 z m 11.1254,-26.35254 q -0.9228,-6.15234 -4.1015,-9.17725 -3.1787,-3.0249 -7.8443,-3.0249 -2.2558,0 -4.2041,0.76904 -1.9482,0.71778 -3.5376,2.25586 -1.538,1.48682 -2.6147,3.79395 -1.0767,2.30713 -1.5381,5.3833 l 23.8403,0 z"
         id="path3885"
         inkscape:connector-curvature="0" /><path
         d="m 1319.4833,857.42853 q -17.4316,0 -18.2007,-13.68897 l 7.5879,0 q 0,7.7417 10.5103,7.7417 4.7168,0 7.1777,-1.94824 2.4609,-1.94824 2.4609,-4.87061 0,-1.43554 -0.5127,-2.35839 -0.4614,-0.92286 -1.8457,-1.64063 -1.333,-0.76904 -3.7426,-1.43555 -2.4097,-0.71777 -6.2549,-1.64062 -7.5366,-1.94824 -10.9204,-4.2041 -3.4351,-2.3584 -3.4351,-8.15186 0,-2.66601 1.1279,-4.8706 1.128,-2.25586 3.1788,-3.84522 2.102,-1.64062 5.0244,-2.56347 2.9223,-0.92286 6.4599,-0.92286 16.6114,0 17.0215,11.84327 l -7.5366,0 q -0.4102,-5.99854 -8.9722,-5.99854 -1.8457,0 -3.435,0.35889 -1.5894,0.35888 -2.8199,1.07666 -1.1792,0.6665 -1.8969,1.74316 -0.6665,1.07666 -0.6665,2.46094 0,2.56348 1.9482,3.64014 1.9482,1.07666 9.5874,2.92236 3.8965,0.92285 6.7163,2.05078 2.8711,1.07666 4.7168,2.30713 1.897,1.1792 2.8198,3.33252 0.9229,2.15332 0.9229,5.17822 0,2.87109 -1.2305,5.3833 -1.1792,2.46094 -3.435,4.25537 -2.2046,1.79444 -5.3321,2.81983 -3.1274,1.02539 -7.0239,1.02539 z"
         id="path3887"
         inkscape:connector-curvature="0" /><path
         d="m 1363.37,857.42853 q -4.6655,0 -8.5107,-1.48682 -3.794,-1.53808 -6.5112,-4.35791 -2.7173,-2.87109 -4.2041,-6.97265 -1.4869,-4.15284 -1.4869,-9.38233 0,-5.22949 1.4356,-9.33105 1.4868,-4.15284 4.1015,-6.97266 2.6148,-2.87109 6.2549,-4.35791 3.6914,-1.53809 8.1006,-1.53809 4.5117,0 8.1519,1.48682 3.6914,1.48682 6.3061,4.35791 2.6148,2.81982 3.999,6.97266 1.4356,4.10156 1.4356,9.38232 l 0,1.79443 -31.9409,0 q 0.2563,3.74268 1.333,6.45997 1.0766,2.71728 2.7685,4.51171 1.7432,1.74317 3.9478,2.61475 2.2558,0.87158 4.8193,0.87158 1.9483,0 3.794,-0.51269 1.8457,-0.5127 3.2812,-1.48682 1.4868,-0.97412 2.4097,-2.40967 0.9228,-1.48681 1.0254,-3.33252 l 7.7929,0 q -0.4614,3.28125 -2.0507,5.84473 -1.5381,2.56348 -3.9991,4.30664 -2.4096,1.74316 -5.5371,2.61475 -3.1274,0.92285 -6.7163,0.92285 z m 11.1255,-26.35254 q -0.9228,-6.15234 -4.1015,-9.17725 -3.1788,-3.0249 -7.8443,-3.0249 -2.2558,0 -4.2041,0.76904 -1.9482,0.71778 -3.5376,2.25586 -1.5381,1.48682 -2.6147,3.79395 -1.0767,2.30713 -1.5381,5.3833 l 23.8403,0 z"
         id="path3889"
         inkscape:connector-curvature="0" /><path
         d="m 1417.767,852.04523 q -5.8447,5.3833 -14.8682,5.3833 -3.1274,0 -5.7934,-0.92285 -2.666,-0.87159 -4.6143,-2.46094 -1.897,-1.64063 -2.9736,-3.89649 -1.0767,-2.25585 -1.0767,-4.97314 0,-14.86816 25.6348,-14.86816 l 3.6914,0 q 0,-2.3584 -0.1025,-3.94776 -0.051,-1.58935 -0.3589,-2.71728 -0.3076,-1.12793 -0.9741,-1.89698 -0.6153,-0.76904 -1.7432,-1.48681 -2.2559,-1.38428 -7.0239,-1.38428 -10.0489,0 -10.3565,7.229 l -7.5366,0 q 0.8203,-13.07373 18.3032,-13.07373 8.1519,0 12.7149,3.22998 4.5629,3.17872 4.5629,12.71485 l 0,27.4292 -7.4853,0 0,-4.35791 z m 0,-6.81885 0,-9.38232 -5.1782,0 q -16.4063,0 -16.4063,8.92089 0,3.22998 2.3584,4.97315 2.4097,1.74316 6.5113,1.74316 1.8457,0 3.6401,-0.41015 1.8457,-0.46143 3.5376,-1.28174 1.6919,-0.82031 3.0762,-1.94824 1.4355,-1.1792 2.4609,-2.61475 z"
         id="path3891"
         inkscape:connector-curvature="0" /><path
         d="m 1458.4237,820.87335 q -1.538,-0.51269 -4.6142,-0.51269 -5.6909,0 -9.8438,6.0498 l 0,29.99268 -7.5879,0 0,-42.45117 7.5879,0 0,5.94726 q 4.6656,-6.87012 11.023,-6.87012 1.5893,0 3.435,0.30762 l 0,7.53662 z"
         id="path3893"
         inkscape:connector-curvature="0" /><path
         d="m 1480.8798,857.42853 q -4.5117,0 -8.2031,-1.48682 -3.6402,-1.48681 -6.2549,-4.30664 -2.6148,-2.81982 -4.0503,-6.92139 -1.3843,-4.15283 -1.3843,-9.48486 0,-5.33203 1.4356,-9.43359 1.4355,-4.15283 4.0503,-6.97266 2.6147,-2.87109 6.2548,-4.30664 3.6914,-1.48682 8.1519,-1.48682 3.435,0 6.4087,0.92286 2.9736,0.87158 5.1782,2.61474 2.2559,1.6919 3.6914,4.25537 1.4356,2.56348 1.8457,5.84473 l -7.793,0 q -0.1025,-1.89697 -0.8715,-3.33252 -0.7691,-1.48682 -2.0508,-2.46094 -1.2305,-0.97412 -2.9224,-1.48681 -1.6406,-0.5127 -3.4863,-0.5127 -2.666,0 -4.9219,1.02539 -2.2046,1.02539 -3.8452,3.07617 -1.5894,1.99951 -2.5122,5.07569 -0.8716,3.07617 -0.8716,7.17773 0,3.99902 0.8716,7.0752 0.8716,3.0249 2.4609,5.07568 1.6407,2.05078 3.8452,3.07617 2.2559,1.02539 4.9732,1.02539 1.8457,0 3.4863,-0.46142 1.6919,-0.5127 2.9224,-1.48682 1.2817,-0.97412 2.0508,-2.40967 0.769,-1.48681 0.8715,-3.38379 l 7.793,0 q -0.4101,3.33252 -1.8457,5.896 -1.4355,2.51221 -3.6914,4.25537 -2.2046,1.74316 -5.1782,2.61475 -2.9737,0.92285 -6.4087,0.92285 z"
         id="path3895"
         inkscape:connector-curvature="0" /><path
         d="m 1512.2567,819.38654 q 5.5884,-6.35743 12.6636,-6.35743 14.3555,0 14.3555,15.63721 l 0,27.73682 -7.5366,0 0,-27.4292 q 0,-5.22949 -1.897,-7.48535 -1.8457,-2.25586 -6.1011,-2.25586 -5.7422,0 -11.4844,6.76758 l 0,30.40283 -7.5878,0 0,-58.60108 7.5878,0 0,21.58448 z"
         id="path3897"
         inkscape:connector-curvature="0" /></g><g
       transform="matrix(1.25,0,0,-1.25,2.0619653,1013.4196)"
       inkscape:label="Vertical-spot_1"
       id="g10"><g
         id="g14"
         clip-path="url(#clipPath16)"
         transform="matrix(0.94824291,0,0,0.92639782,13.36303,22.968435)"><g
           id="g20"
           transform="translate(119.3008,154.9609)"><path
             inkscape:connector-curvature="0"
             d="m 0,0 c 0,-26.172 -22.745,-47.271 -50.648,-47.271 -27.907,0 -50.65,21.099 -50.65,47.271 l -0.003,147.766 c 0,26.172 22.743,47.273 50.65,47.273 27.904,0 50.649,-21.101 50.649,-47.273 L 0,0 m -64.028,-0.986 c 0,-6.948 5.939,-13.198 13.38,-13.198 7.439,0 13.377,6.25 13.377,13.198 l -10e-4,149.753 c 0,6.948 -5.939,13.198 -13.379,13.198 -7.439,0 -13.38,-6.25 -13.38,-13.198 L -64.028,-0.986 Z M 60.55,-14.375 c 7.434,0 13.38,6.221 13.38,13.141 0,1.588 -0.043,8.607 -0.043,17.464 0,8.207 -2.399,15.519 -5.399,19.241 L 22.415,91.506 c -9.389,11.842 -12.47,27.196 -12.47,39.572 0,8.858 -0.042,14.914 -0.042,16.469 0,26.036 22.74,47.033 50.648,47.033 27.91,0 50.648,-20.997 50.648,-47.033 l 0.002,-27.325 -37.269,0 0,28.319 c 0,6.919 -5.946,13.14 -13.381,13.14 -7.435,0 -13.379,-6.221 -13.379,-13.14 0,-1.587 0.043,-8.605 0.043,-17.463 0,-8.207 2.398,-15.519 5.397,-19.242 L 98.463,56.083 c 9.557,-11.876 12.693,-27.384 12.693,-39.853 0,-8.857 0.041,-14.914 0.041,-16.472 0,-26.033 -22.738,-47.029 -50.647,-47.029 -27.909,0 -50.649,20.994 -50.649,47.029 l 0,29.844 37.27,0 0,-30.836 c 0,-6.92 5.943,-13.141 13.379,-13.141 m 111.202,-32.896 c -27.904,0 -50.647,21.099 -50.647,47.271 l -0.001,188.53 37.267,0 0.002,-189.516 c 0,-6.948 5.941,-13.198 13.379,-13.198 7.439,0 13.379,6.25 13.379,13.198 l -0.002,189.516 37.269,0 L 222.402,0 c 0,-26.172 -22.744,-47.271 -50.65,-47.271"
             style="fill:#f36118;fill-opacity:1;fill-rule:evenodd;stroke:none"
             id="path22" /></g><g
           id="g24"
           transform="translate(28.7031,75.8047)" /></g></g></g></svg>