<?xml version="1.0" encoding="utf-8"?>
<!-- Generator: Adobe Illustrator 15.0.0, SVG Export Plug-In . SVG Version: 6.00 Build 0)  -->
<!DOCTYPE svg PUBLIC "-//W3C//DTD SVG 1.1//EN" "http://www.w3.org/Graphics/SVG/1.1/DTD/svg11.dtd">
<svg version="1.1" id="Layer_1" xmlns="http://www.w3.org/2000/svg" xmlns:xlink="http://www.w3.org/1999/xlink" x="0px" y="0px"
	 width="304px" height="310px" viewBox="0 0 304 310" enable-background="new 0 0 304 310" xml:space="preserve">
<circle fill-rule="evenodd" clip-rule="evenodd" fill="none" stroke="#91D2D5" stroke-width="14.1627" stroke-linecap="round" stroke-linejoin="round" stroke-miterlimit="10" cx="153.553" cy="155.56" r="134.243"/>
<path fill="#91D2D5" d="M211.01,114.785c-0.519-32.211-26.387-57.43-59.607-55.883C120.364,60.348,97.004,86,97.756,117.02
	c0.524,21.645,11.333,35.281,26.078,46.195c-11.363,6.554-21.428,12.084-31.294,22.354c-7.945,8.271-21.63,24.249-18.627,40.98
	c3.399,18.938,39.644,24.193,65.567,25.332c31.479,1.384,63.149-0.476,81.216-10.431c7.975-4.395,14.286-11.866,12.666-24.588
	c-1.56-12.246-10.653-23.143-19.373-32.04c-8.983-9.164-18.841-16.403-29.059-22.353C200.697,152.322,211.36,136.514,211.01,114.785
	z"/>
</svg>
