<?xml version="1.0" encoding="utf-8"?>
<!-- Generator: Adobe Illustrator 16.2.1, SVG Export Plug-In . SVG Version: 6.00 Build 0)  -->
<!DOCTYPE svg PUBLIC "-//W3C//DTD SVG 1.1//EN" "http://www.w3.org/Graphics/SVG/1.1/DTD/svg11.dtd">
<svg version="1.1" id="Layer_1" xmlns="http://www.w3.org/2000/svg" xmlns:xlink="http://www.w3.org/1999/xlink" x="0px" y="0px"
	 width="118.354px" height="117.023px" viewBox="0 0 118.354 117.023" enable-background="new 0 0 118.354 117.023"
	 xml:space="preserve">
<circle fill="#187C9E" enable-background="new    " cx="58.966" cy="60.959" r="50.5"/>
<g id="kZq8nu.tif">
	<g>
		<path fill="#FFFFFF" d="M69.875,72.434c8.565-7.055,16.796-13.833,25.116-20.687c-8.39-6.908-16.615-13.68-25.091-20.659
			c0,4.124,0,7.866,0,11.725c-0.76,0.068-1.423,0.147-2.087,0.183c-7.293,0.386-14.345,1.766-21.087,4.696
			c-14.824,6.439-23.97,20.388-23.783,36.538c0.026,2.213,0.33,4.416,1.686,6.598c0.231-0.783,0.365-1.279,0.523-1.766
			c3.068-9.42,8.407-17.07,17.249-21.926c6.061-3.33,12.622-5.123,19.459-5.932c2.614-0.309,5.248-0.471,8.015-0.715
			C69.875,64.531,69.875,68.266,69.875,72.434z"/>
		<path fill="#FFFFFF" d="M69.875,72.434c0-4.168,0-7.902,0-11.943c-2.767,0.244-5.4,0.406-8.015,0.715
			c-6.837,0.809-13.398,2.602-19.459,5.932C33.56,71.992,28.22,79.643,25.153,89.063c-0.159,0.486-0.292,0.982-0.523,1.766
			c-1.355-2.182-1.66-4.385-1.686-6.598c-0.188-16.15,8.959-30.099,23.783-36.538c6.743-2.93,13.794-4.31,21.087-4.696
			c0.664-0.036,1.327-0.115,2.087-0.183c0-3.859,0-7.602,0-11.725c8.476,6.979,16.701,13.75,25.091,20.659
			C86.671,58.6,78.441,65.379,69.875,72.434z"/>
	</g>
</g>
</svg>
