<?xml version="1.0" encoding="utf-8"?>
<!-- Generator: Adobe Illustrator 15.0.0, SVG Export Plug-In . SVG Version: 6.00 Build 0)  -->
<!DOCTYPE svg PUBLIC "-//W3C//DTD SVG 1.1//EN" "http://www.w3.org/Graphics/SVG/1.1/DTD/svg11.dtd">
<svg version="1.1" id="Layer_1" xmlns="http://www.w3.org/2000/svg" xmlns:xlink="http://www.w3.org/1999/xlink" x="0px" y="0px"
	 width="304px" height="310px" viewBox="0 0 304 310" enable-background="new 0 0 304 310" xml:space="preserve">
<polyline fill-rule="evenodd" clip-rule="evenodd" fill="none" stroke="#94A1A2" stroke-width="14.4" stroke-linecap="round" stroke-linejoin="round" stroke-miterlimit="10" points="
	118.123,52.572 152.482,18.114 187.549,52.082 "/>
<line fill-rule="evenodd" clip-rule="evenodd" fill="none" stroke="#94A1A2" stroke-width="14.4" stroke-linecap="round" stroke-linejoin="round" stroke-miterlimit="10" x1="152.385" y1="125" x2="152.385" y2="19.115"/>
<path fill-rule="evenodd" clip-rule="evenodd" fill="none" stroke="#000000" stroke-width="14.4" stroke-linecap="round" stroke-linejoin="round" stroke-miterlimit="10" d="
	M48.104,63.094"/>
<path fill-rule="evenodd" clip-rule="evenodd" fill="none" stroke="#94A1A2" stroke-width="14.4" stroke-linecap="round" stroke-linejoin="round" stroke-miterlimit="10" d="
	M264.564,70.094c17.836,23.435,28.424,52.684,28.424,84.406c0,77.044-62.456,139.5-139.5,139.5s-139.5-62.456-139.5-139.5
	c0-31.873,10.689-61.25,28.679-84.74"/>
<g>
	<path id="svg_374" fill="#94A1A3" d="M193.7,144.292c-55.602-4.412-56.722,57.909-89.854,57.909
		c-28.388,0-25.247-30.15-23.764-38.791c3.286-0.24,7.659-1.422,13.036-4.75c14.368-8.901,5.674-26.228,5.674-26.228
		c-0.281,6.065-8.425,6.618-8.425,6.618c-15.221,0.702-16.946,12.482-17.457,18.751c-2.001-4.671-6.779-13.215-14.713-12.493
		c-10.722,0.977-8.51,5.209-20.003-0.652c0,0-1.776,16.913,16.014,21.209c4.627,1.117,8.271,1.071,11.101,0.469
		c-1.062,90.371,86.713,111.003,140.747,88.262C268.291,228.402,249.296,148.704,193.7,144.292L193.7,144.292z"/>
</g>
</svg>
