<?xml version="1.0" encoding="utf-8"?>
<!-- Generator: Adobe Illustrator 15.0.0, SVG Export Plug-In . SVG Version: 6.00 Build 0)  -->
<!DOCTYPE svg PUBLIC "-//W3C//DTD SVG 1.1//EN" "http://www.w3.org/Graphics/SVG/1.1/DTD/svg11.dtd">
<svg version="1.1" id="Layer_1" xmlns="http://www.w3.org/2000/svg" xmlns:xlink="http://www.w3.org/1999/xlink" x="0px" y="0px"
	 width="304px" height="310px" viewBox="0 0 304 310" enable-background="new 0 0 304 310" xml:space="preserve">
<circle fill-rule="evenodd" clip-rule="evenodd" fill="none" stroke="#91D1D4" stroke-width="14.1627" stroke-linecap="round" stroke-linejoin="round" stroke-miterlimit="10" cx="155.091" cy="150.934" r="134.243"/>
<g>
	<path id="svg_374_10_" fill="#91D1D4" d="M179.162,109.811c-51.109,15.095-30.773,71.076-60.328,82.419
		c-25.328,9.717-32.844-18.258-34.48-26.474c2.848-1.336,6.348-3.89,10.004-8.697c9.77-12.862-3.914-25.339-3.914-25.339
		c1.82,5.506-5.254,8.784-5.254,8.784c-13.344,5.837-10.844,16.94-9.156,22.703c-3.379-3.476-10.559-9.464-17.402-6.107
		c-9.223,4.542-5.805,7.563-18.062,6.269c0,0,4.207,15.7,21.543,13.437c4.508-0.588,7.742-1.878,10.066-3.385
		c29.984,80.981,115.344,69.341,155.762,30.565C274.494,159.313,230.267,94.717,179.162,109.811L179.162,109.811z"/>
	<path fill="none" stroke="#FFFFFF" stroke-width="1.9901" stroke-miterlimit="10" d="M237.025,197.511
		c-13.164,3.902-27.922,1.863-39.879-6.824"/>
	<path fill="#FFFFFF" d="M185.275,111.79c0.48,1.271-2.008,3.398-5.562,4.767c-3.543,1.364-6.824,1.441-7.309,0.17
		c-0.488-1.272,1.996-3.407,5.547-4.771C181.505,110.596,184.787,110.513,185.275,111.79z"/>
	<path fill="#91D1D4" d="M156.166,86.47c-7.977-0.258-9.93,12.086-2.328,14.414c3.477,1.065,7.434-1.199,10.797,0.262
		c3.359,1.455,4.004,4.17,7.219,5.722C169.208,96.741,163.025,86.689,156.166,86.47z"/>
	<path fill="#91D1D4" d="M178.556,113.728l-0.129-0.299c-6.199-14.832-7.281-27.965-2.945-36.02
		c1.578-2.948,4.387-5.428,7.512-6.622c2.602-1.001,5.242-1.079,7.641-0.229c2.875,1.028,5.73,4,7.266,7.568
		c1.414,3.311,1.523,6.658,0.293,9.418c-1.242,2.773-3.676,3.936-6.492,5.295c-2.023,0.964-4.105,1.965-6.062,3.688
		c-2.297,2.029-3.184,4.986-3.957,8.096c-0.203,0.78-0.277,1.63-0.359,2.525c-0.211,2.177-0.449,4.651-2.516,6.373L178.556,113.728z
		"/>
</g>
</svg>
