<?xml version="1.0" encoding="utf-8"?>
<!-- Generator: Adobe Illustrator 16.0.0, SVG Export Plug-In . SVG Version: 6.00 Build 0)  -->
<!DOCTYPE svg PUBLIC "-//W3C//DTD SVG 1.1//EN" "http://www.w3.org/Graphics/SVG/1.1/DTD/svg11.dtd">
<svg version="1.1" id="Layer_1" xmlns="http://www.w3.org/2000/svg" xmlns:xlink="http://www.w3.org/1999/xlink" x="0px" y="0px"
	 width="304px" height="310px" viewBox="0 0 304 310" enable-background="new 0 0 304 310" xml:space="preserve">
<circle fill="none" stroke="#91D1D4" stroke-width="14.1627" stroke-linecap="round" stroke-linejoin="round" stroke-miterlimit="10" cx="155.091" cy="150.934" r="134.243"/>
<g>
	<path fill="#91D1D4" d="M150.666,55.554c2.435-4.932,6.417-4.932,8.852,0l21.944,44.467c2.435,4.932,8.879,9.614,14.322,10.405
		l49.071,7.13c5.443,0.791,6.674,4.579,2.735,8.418l-35.508,34.613c-3.938,3.84-6.4,11.416-5.471,16.837l8.384,48.873
		c0.93,5.421-2.293,7.763-7.161,5.203l-43.892-23.076c-4.868-2.56-12.834-2.56-17.703,0l-43.893,23.076
		c-4.868,2.56-8.09,0.218-7.161-5.203l8.383-48.873c0.93-5.421-1.532-12.997-5.47-16.837l-35.51-34.613
		c-3.938-3.839-2.708-7.627,2.735-8.418l49.072-7.13c5.443-0.791,11.888-5.473,14.322-10.405L150.666,55.554z"/>
</g>
</svg>
