<?xml version="1.0" encoding="utf-8"?>
<!-- Generator: Adobe Illustrator 16.2.1, SVG Export Plug-In . SVG Version: 6.00 Build 0)  -->
<!DOCTYPE svg PUBLIC "-//W3C//DTD SVG 1.1//EN" "http://www.w3.org/Graphics/SVG/1.1/DTD/svg11.dtd">
<svg version="1.1" id="Layer_1" xmlns="http://www.w3.org/2000/svg" xmlns:xlink="http://www.w3.org/1999/xlink" x="0px" y="0px"
	 width="344px" height="42px" viewBox="0 0 344 42" enable-background="new 0 0 344 42" xml:space="preserve">
<g id="iaAoUO_2_">
	<g>
		<g>
			<path fill-rule="evenodd" clip-rule="evenodd" fill="#92CFD5" d="M3.837,4.704c3.667,0,7.333,0,11,0
				c-1.6,26.984,44.781,27.707,43,0c3.667,0,7.333,0,11,0c-0.985,27.312,44.98,27.276,44,0c3.667,0,7.333,0,11,0
				c-2.192,28.197,44.765,26.639,43,0c3.667,0,7.333,0,11,0c-1.812,27.567,44.686,27.147,43,0c3.667,0,7.333,0,11,0
				c-1.851,27.316,44.863,27.397,43,0c3.667,0,7.333,0,11,0c-1.6,26.984,44.781,27.707,43,0c3.667,0,7.333,0,11,0
				c3.83,32.706-46.033,42.383-59,18c-7.667,17.659-46.648,18.855-54,0c-7.782,17.199-46.81,19.316-54,0
				c-4.936,4.418-10.94,12.329-20,14c-14.782,2.727-28.94-4.017-34-14c-5.567,4.075-11.056,12.223-20,14
				c-15.651,3.11-28.599-4.618-35-14C48.879,47.824,2.243,36.938,3.837,4.704z"/>
		</g>
	</g>
</g>
</svg>
