<?xml version="1.0"?>
<svg width="212" height="168" xmlns="http://www.w3.org/2000/svg" xmlns:svg="http://www.w3.org/2000/svg">
 <g>
  <title>Layer 1</title>
  <g id="svg_1">
   <path d="m71.003998,40.810997c-51.105,-15.093994 -95.331997,49.500999 -48.778999,94.174995c40.417999,38.775009 125.778008,50.416 155.761986,-30.564987c2.324005,1.506989 5.559006,2.796997 10.06601,3.386002c17.335999,2.261993 21.542999,-13.438004 21.542999,-13.438004c-12.257004,1.293991 -8.839005,-1.727005 -18.061996,-6.270004c-6.843002,-3.356003 -14.022003,2.630997 -17.402008,6.106995c1.688004,-5.763992 4.188004,-16.865997 -9.154999,-22.702988c0,0 -7.074005,-3.278 -5.253998,-8.784012c0,0 -13.684998,12.478012 -3.914001,25.339005c3.654999,4.807999 7.154999,7.361008 10.003998,8.697006c-1.636993,8.216995 -9.151993,36.190994 -34.479996,26.474991c-29.556,-11.343002 -9.219986,-67.323997 -60.328995,-82.418999l0,0z" fill="#91D1D4" id="svg_374_10_"/>
   <path id="svg_2" d="m53.019997,121.688004c-11.956993,8.686996 -26.714996,10.725998 -39.878998,6.822998" stroke-miterlimit="10" stroke-width="1.9901" stroke="#FFFFFF" fill="none"/>
   <path id="svg_3" d="m72.214996,42.956001c3.551003,1.363998 6.035004,3.499001 5.547005,4.770996c-0.484001,1.271004 -3.765999,1.194 -7.308998,-0.169998c-3.555,-1.368996 -6.042,-3.496002 -5.562004,-4.766998c0.487999,-1.277 3.770004,-1.194 7.323997,0.166z" fill="#FFFFFF"/>
   <path id="svg_4" d="m78.311996,37.867996c3.215004,-1.551994 3.859001,-4.266998 7.219002,-5.721992c3.362999,-1.461006 7.32,0.802994 10.797005,-0.262001c7.60199,-2.328003 5.649002,-14.672005 -2.328003,-14.414001c-6.859001,0.219002 -13.042,10.270996 -15.688004,20.397995z" fill="#91D1D4"/>
   <path id="svg_5" d="m71.357002,44.521004c-2.066002,-1.722 -2.305,-4.196007 -2.515999,-6.373001c-0.082001,-0.895004 -0.156006,-1.745003 -0.359001,-2.525002c-0.772003,-3.110001 -1.659004,-6.067001 -3.957001,-8.096001c-1.957001,-1.723 -4.039001,-2.723999 -6.062004,-3.688004c-2.814995,-1.358994 -5.25,-2.521996 -6.490997,-5.294998c-1.230003,-2.760002 -1.121002,-6.107002 0.292999,-9.417999c1.535004,-3.568001 4.390999,-6.540001 7.265999,-7.568001c2.398003,-0.849998 5.039001,-0.771996 7.640999,0.229004c3.125,1.194 5.934006,3.673996 7.512001,6.621994c4.335999,8.055 3.254005,21.188004 -2.945,36.020004l-0.128998,0.298996l-0.252998,-0.206993z" fill="#91D1D4"/>
  </g>
 </g>
</svg>