<?xml version="1.0" encoding="utf-8"?>
<!-- Generator: Adobe Illustrator 16.0.0, SVG Export Plug-In . SVG Version: 6.00 Build 0)  -->
<!DOCTYPE svg PUBLIC "-//W3C//DTD SVG 1.1//EN" "http://www.w3.org/Graphics/SVG/1.1/DTD/svg11.dtd">
<svg version="1.1" id="Layer_1" xmlns="http://www.w3.org/2000/svg" xmlns:xlink="http://www.w3.org/1999/xlink" x="0px" y="0px"
	 width="304px" height="310px" viewBox="0 0 304 310" enable-background="new 0 0 304 310" xml:space="preserve">
<circle fill="none" stroke="#91D1D4" stroke-width="14.1627" stroke-linecap="round" stroke-linejoin="round" stroke-miterlimit="10" cx="155.091" cy="150.934" r="134.243"/>
<path fill="#91D1D4" stroke="#91D1D4" stroke-width="0.25" stroke-linecap="round" stroke-linejoin="round" stroke-miterlimit="10" d="
	M107.613,61.245h32.155v23.012h-32.155V61.245z M176.036,160.527c-3.058,0-5.491-2.466-5.491-5.507V91.464h48.567l20.48,86.728
	l-0.111,5.604v38.316c0,2.965-2.404,5.364-5.349,5.364h-47.238c-2.964,0-5.365-2.399-5.365-5.364v-61.585h-5.093 M134.113,160.673
	c3.042,0,5.51-2.45,5.51-5.512V91.56H91.103L70.59,178.287l0.096,5.652v38.336c0,2.947,2.402,5.348,5.348,5.348h47.222
	c2.995,0,5.396-2.4,5.396-5.348v-61.603h5.062 M146.717,91.56h16.669v59.056h-16.669V91.56z M170.545,61.245h32.153v23.012h-32.153
	V61.245z"/>
</svg>
