<?xml version="1.0" encoding="utf-8"?>
<!-- Generator: Adobe Illustrator 16.2.1, SVG Export Plug-In . SVG Version: 6.00 Build 0)  -->
<!DOCTYPE svg PUBLIC "-//W3C//DTD SVG 1.1//EN" "http://www.w3.org/Graphics/SVG/1.1/DTD/svg11.dtd">
<svg version="1.1" id="Layer_1" xmlns="http://www.w3.org/2000/svg" xmlns:xlink="http://www.w3.org/1999/xlink" x="0px" y="0px"
	 width="936.094px" height="975.098px" viewBox="0 0 936.094 975.098" enable-background="new 0 0 936.094 975.098"
	 xml:space="preserve">
<g>
	<path id="svg_374_3_" fill="#127D9F" d="M698.138,2186.858"/>
	<path id="svg_374_1_" fill="#127D9F" d="M377.274,974.755c-207.221-230.412,60.419-425.008,141.4-476.062
		c25.927,24.938,67.463,51.78,133.728,71.129c177.131,51.662,254.271-145.378,254.271-145.378
		c-51.275,41.984-115.187-20.091-115.187-20.091c-116.813-118.425-225.045-46.402-279.643-4.809
		c23.281-50.313,57.764-151.494-5.988-210.635c-86.209-79.886-104.42-31.03-140.742-167.106c0,0-150.251,109.047-55.26,284.821
		c24.747,45.695,51.682,74.952,77.248,93.498C175.257,586.193,62.608,789.577,23.275,991.543"/>
</g>
</svg>
