<?xml version="1.0" encoding="utf-8"?>
<!-- Generator: Adobe Illustrator 16.2.1, SVG Export Plug-In . SVG Version: 6.00 Build 0)  -->
<!DOCTYPE svg PUBLIC "-//W3C//DTD SVG 1.1//EN" "http://www.w3.org/Graphics/SVG/1.1/DTD/svg11.dtd">
<svg version="1.1" id="Layer_1" xmlns="http://www.w3.org/2000/svg" xmlns:xlink="http://www.w3.org/1999/xlink" x="0px" y="0px"
	 width="304px" height="310px" viewBox="0 0 304 310" enable-background="new 0 0 304 310" xml:space="preserve">
<g>
	<path id="svg_374_10_" fill="#91D1D4" d="M109.004,109.811c-51.105-15.094-95.332,49.501-48.779,94.175
		c40.418,38.775,125.778,50.416,155.762-30.565c2.324,1.507,5.559,2.797,10.066,3.386c17.336,2.262,21.543-13.438,21.543-13.438
		c-12.257,1.294-8.839-1.727-18.062-6.27c-6.843-3.356-14.022,2.631-17.402,6.107c1.688-5.764,4.188-16.866-9.155-22.703
		c0,0-7.074-3.278-5.254-8.784c0,0-13.685,12.478-3.914,25.339c3.655,4.808,7.155,7.361,10.004,8.697
		c-1.637,8.217-9.152,36.191-34.48,26.475C139.777,180.887,160.113,124.906,109.004,109.811L109.004,109.811z"/>
	<path fill="none" stroke="#FFFFFF" stroke-width="1.9901" stroke-miterlimit="10" d="M91.02,190.688
		c-11.957,8.687-26.715,10.726-39.879,6.823"/>
	<path fill="#FFFFFF" d="M110.215,111.956c3.551,1.364,6.035,3.499,5.547,4.771c-0.484,1.271-3.766,1.194-7.309-0.17
		c-3.555-1.369-6.042-3.496-5.562-4.767C103.379,110.513,106.661,110.596,110.215,111.956z"/>
	<path fill="#91D1D4" d="M116.312,106.868c3.215-1.552,3.859-4.267,7.219-5.722c3.363-1.461,7.32,0.803,10.797-0.262
		c7.602-2.328,5.649-14.672-2.328-14.414C125.141,86.689,118.958,96.741,116.312,106.868z"/>
	<path fill="#91D1D4" d="M109.357,113.521c-2.066-1.722-2.305-4.196-2.516-6.373c-0.082-0.895-0.156-1.745-0.359-2.525
		c-0.772-3.11-1.659-6.067-3.957-8.096c-1.957-1.723-4.039-2.724-6.062-3.688c-2.815-1.359-5.25-2.522-6.491-5.295
		c-1.23-2.76-1.121-6.107,0.293-9.418c1.535-3.568,4.391-6.54,7.266-7.568c2.398-0.85,5.039-0.772,7.641,0.229
		c3.125,1.194,5.934,3.674,7.512,6.622c4.336,8.055,3.254,21.188-2.945,36.02l-0.129,0.299L109.357,113.521z"/>
</g>
</svg>
