<?xml version="1.0" encoding="utf-8"?>
<!-- Generator: Adobe Illustrator 16.2.1, SVG Export Plug-In . SVG Version: 6.00 Build 0)  -->
<!DOCTYPE svg PUBLIC "-//W3C//DTD SVG 1.1//EN" "http://www.w3.org/Graphics/SVG/1.1/DTD/svg11.dtd">
<svg version="1.1" id="Layer_1" xmlns="http://www.w3.org/2000/svg" xmlns:xlink="http://www.w3.org/1999/xlink" x="0px" y="0px"
	 width="300.03px" height="311.178px" viewBox="0 0 300.03 311.178" enable-background="new 0 0 300.03 311.178"
	 xml:space="preserve">
<circle fill-rule="evenodd" clip-rule="evenodd" fill="none" stroke="#91D2D5" stroke-width="14.1627" stroke-linecap="round" stroke-linejoin="round" stroke-miterlimit="10" cx="154.417" cy="159.148" r="134.243"/>
<g id="hoJibP_1_">
	<g>
		<path fill-rule="evenodd" clip-rule="evenodd" fill="#91D2D5" d="M136.994,56.904c10.648,0,20.703,0,31.216,0
			c0,5.044,0,10.069,0,15.4c10.609,0,20.771,0,31.389,0c0,5.316,0,10.342,0,15.815c5.465,0,10.488,0,15.905,0
			c0,10.889,0.255,21.335-0.126,31.758c-0.154,4.251,1.229,5.966,5.202,6.924c5.054,1.217,9.947,3.101,14.903,4.72
			c7.011,2.288,8.794,7.402,4.657,13.647c-7.577,11.438-15.282,22.792-22.779,34.281c-1.062,1.625-1.747,3.807-1.777,5.743
			c-0.167,10.841-0.08,21.685-0.08,32.546c0.519,0,0.845,0.103,0.99-0.015c6.26-5.05,8.735-4.966,14.345,0.683
			c2.658,2.678,5.192,5.479,8.204,8.671c3.438-3.549,6.354-6.695,9.42-9.688c4.49-4.386,8.166-4.451,12.584-0.193
			c4.887,4.71,8.876,4.432,13.805,9.314c-3.816,3.498-6.563,11.843-10.479,15.432c-2.474-2.912-5.417-6.377-8.747-10.298
			c-3.776,3.767-6.683,6.696-9.621,9.593c-5.187,5.111-8.53,5.166-13.626,0.075c-2.861-2.859-5.558-5.884-8.989-9.536
			c-2.321,2.568-4.144,4.757-6.143,6.771c-8.787,8.853-10.285,8.841-19.194-0.12c-1.92-1.932-3.692-4.01-5.947-6.474
			c-3.483,3.606-6.394,6.763-9.458,9.762c-4.627,4.526-8.108,4.476-12.809-0.064c-2.919-2.818-5.781-5.694-8.673-8.54
			c-0.09-0.09-0.223-0.133-1.159-1.043c-2.777,3.074-5.446,6.255-8.355,9.198c-5.091,5.148-8.454,5.087-13.635-0.005
			c-2.709-2.662-5.388-5.353-8.093-8.018c-0.172-0.169-0.451-0.227-1.283-0.625c-2.822,2.912-5.739,6.054-8.799,9.05
			c-4.645,4.55-8.221,4.554-12.797,0.029c-2.976-2.943-5.817-6.021-9.137-9.473c-3.193,3.185-6.098,6.113-9.036,9.008
			c-5.197,5.12-8.534,5.174-13.642,0.067c-2.859-2.859-5.549-5.89-9.129-9.712c-3.129,3.496-5.698,6.6-8.514,9.462
			c-5.295,5.383-8.637,5.373-13.912,0.147c-4.373-4.331-8.305-17.743-2.157-18.02c6.214-0.279-6.029,1.287-6,1.333
			c3.463-3.397,1.746-3.523,5.905-7.605c2.406,2.992,5.316,6.612,8.734,10.864c3.926-4.196,6.762-7.435,9.82-10.445
			c4.451-4.383,8.125-4.393,12.567-0.052c3.075,3.005,5.941,6.223,8.938,9.385c5.477-4.176,9.335-8.065,8.629-15.435
			c-0.809-8.434-0.058-17.008-0.278-25.514c-0.056-2.188-0.755-4.644-1.94-6.47c-7.33-11.286-14.897-22.419-22.356-33.624
			c-4.54-6.82-2.741-11.765,5.051-14.244c5.341-1.698,10.603-3.662,15.989-5.191c2.593-0.735,3.471-1.866,3.418-4.604
			c-0.183-9.688-0.07-19.379-0.07-29.069c0-1.285,0-2.57,0-4.161c5.234,0,10.16,0,15.54,0c0-5.317,0-10.343,0-15.815
			c10.703,0,20.961,0,31.529,0C136.994,67.159,136.994,62.232,136.994,56.904z M121.311,88.289c0,5.015,0,10.135,0,15.682
			c-5.608,0-10.629,0-15.484,0c0,5.45,0,10.442,0,15.698c9.999-3.314,19.628-6.502,29.254-9.7c5.81-1.931,11.618-5.409,17.42-5.393
			c5.943,0.017,11.883,3.432,17.816,5.385c9.746,3.209,19.484,6.438,29.374,9.706c0-5.442,0-10.485,0-15.979
			c-5.238,0-10.26,0-15.574,0c0-5.374,0-10.296,0-15.399C163.17,88.289,142.538,88.289,121.311,88.289z"/>
		<path fill-rule="evenodd" clip-rule="evenodd" fill="#91D2D5" d="M246.85,253.176c-3.031,3.261-2.11,8.764-4.666,11.333
			c-6.47,6.505-4.622,12.73-11,6.334c-2.568-2.574-4.255,8.496-7.334,5.333c-3.104,3.316-6.394,0.907-9.237,3.761
			c-5.246,5.265-8.589,5.23-13.912-0.104c-2.768-2.774-0.21,6.863-3.851,3.011c-3.104,3.537-5.766,2.047-8.666,5
			c-5.067,5.163-12.854,7.156-18,2c-2.853-2.854-5.808,5.731-9,2.333c-3.472,3.58-6.606,1.67-9.667,4.667
			c-4.64,4.539-10.031-0.118-14.667-4.667c-2.986-2.932-4.037,0.769-7.333-2.667c-3.215,3.207-6.058-5.896-9-3
			c-5.19,5.109-8.784-1.35-13.874-6.456c-2.854-2.863-6.153,1.294-9.459-2.21c-2.821,2.983-4.581-1.587-7.047,0.888
			c-6.837,6.861-0.216,2.538-6.953-4.222c-2.476-2.483-10.004-4.925-13-8c-3.192,3.411,1.612-0.603-1.333,2.335
			c-4.821,4.811,2.453-0.015-2.334-4.668c-2.678-2.603-9.364-1.062-12-3.667c-2.059-2.035-6.974-7.002-9-9
			c1.76-1.72-1.394-0.042,0.291-1.688c1.907-1.863,3.811-3.722,5.808-5.672c1.463,1.622,0.88,6.61,2.612,8.531
			c1.498,1.66,3.131,3.47,4.957,5.496c3.381-3.841-2.544,1.312,0.361-1.643c4.883-4.971,8.499-4.957,13.399-0.11
			c2.882,2.85,5.617,5.85,8.841,9.223c3.129-3.126,5.946-5.957,8.781-8.769c5.46-5.417,8.847-5.452,14.263-0.005
			c2.754,2.77,5.351,5.696,8.449,9.013c3.39-3.5,6.232-6.53,9.181-9.454c4.871-4.831,8.5-4.828,13.415,0.064
			c2.87,2.857,5.581,5.872,9.262,9.767c2.198-2.61,3.893-4.919,5.882-6.935c8.691-8.807,10.383-8.773,19.25,0.115
			c1.922,1.925,3.748,3.944,6.172,6.508c3.359-3.601,6.188-6.844,9.244-9.857c4.444-4.384,8.099-4.355,12.581-0.079
			c3.028,2.89,5.981,5.86,8.974,8.789c0.081,0.079,0.234,0.084,1.075,0.367c2.727-2.831,5.628-5.985,8.685-8.982
			c4.594-4.503,8.259-4.506,12.856,0.013c2.981,2.933,5.785,6.046,9.508,9.961c3.123-3.463,5.787-6.648,8.695-9.591
			c5.017-5.075,1.979-11.794,7.125-6.729"/>
		<path fill-rule="evenodd" clip-rule="evenodd" fill="#91D2D5" d="M275.166,262.581c-3.651,3.601-7.12,7.021-10.975,10.823"/>
	</g>
</g>
</svg>
