<?xml version="1.0" encoding="utf-8"?>
<!-- Generator: Adobe Illustrator 16.2.1, SVG Export Plug-In . SVG Version: 6.00 Build 0)  -->
<!DOCTYPE svg PUBLIC "-//W3C//DTD SVG 1.1//EN" "http://www.w3.org/Graphics/SVG/1.1/DTD/svg11.dtd">
<svg version="1.1" id="Layer_1" xmlns="http://www.w3.org/2000/svg" xmlns:xlink="http://www.w3.org/1999/xlink" x="0px" y="0px"
	 width="281.927px" height="281.928px" viewBox="0 0 281.927 281.928" enable-background="new 0 0 281.927 281.928"
	 xml:space="preserve">
<rect x="1.958" y="2.491" fill="#93D1D5" width="278.313" height="278.313"/>
<g id="e5kTK5.tif">
	<g>
		<path fill="#93D1D5" d="M69.359,201.688c-5.99,5.989-11.99,11.621-17.487,17.707c-1.672,1.852-2.677,4.952-2.694,7.49
			c-0.021,3.192,2.281,5.488,5.518,6.553c3.264,1.072,6.054,0.25,8.388-2.065c5.983-5.94,11.892-11.953,17.923-18.032
			c15.219,12.536,32.325,19.552,51.579,21.554c0.058,0.809,0.135,1.379,0.135,1.95c0.009,7.76-0.075,15.52,0.041,23.279
			c0.074,4.937,3.845,8.569,8.489,8.505c4.5-0.061,8.032-3.639,8.233-8.417c0.078-1.878,0.015-3.761,0.015-5.642
			c0.001-6.55,0.001-13.101,0.001-19.701c19.631-1.948,36.656-9.181,51.754-21.496c6.07,6.117,11.918,12.059,17.826,17.941
			c2.33,2.319,5.092,3.195,8.367,2.146c3.395-1.087,5.234-3.461,5.791-6.847c0.5-3.037-0.822-5.426-2.947-7.524
			c-5.824-5.752-11.598-11.555-17.438-17.382c12.496-15.238,19.523-32.338,21.518-51.664c8.41,0,16.506,0.037,24.604-0.013
			c5.271-0.032,9.041-3.51,9.109-8.255c0.072-4.875-3.77-8.44-9.232-8.49c-4.586-0.042-9.17-0.009-13.756-0.009
			c-3.592,0-7.182,0-10.785,0c-1.941-19.729-9.246-36.72-21.48-51.779c6.094-6.037,11.98-11.786,17.77-17.631
			c3.596-3.631,3.658-8.562,0.332-11.942c-3.363-3.418-8.256-3.417-11.928,0.157c-4.549,4.427-9.049,8.91-13.455,13.478
			c-1.436,1.488-2.516,3.319-3.723,4.946c-15.947-13.181-33.102-20.073-52.327-22.129c0-8.47,0.036-16.572-0.014-24.674
			c-0.028-4.841-2.971-8.379-7.283-8.957c-5.119-0.686-9.407,3.277-9.454,8.907c-0.068,8.203-0.018,16.407-0.018,24.76
			c-19.481,2.024-36.569,9.088-51.718,21.532c-5.914-5.954-11.523-11.966-17.583-17.48c-1.849-1.683-4.93-2.713-7.468-2.757
			c-3.197-0.055-5.519,2.237-6.604,5.45c-1.144,3.39-0.211,6.237,2.218,8.671c5.878,5.89,11.787,11.748,17.807,17.743
			c-12.428,15.146-19.503,32.228-21.516,51.706c-1.424,0-2.69,0-3.957,0c-7.054,0.001-14.109-0.075-21.163,0.028
			c-4.967,0.072-8.625,3.762-8.603,8.395c0.021,4.627,3.691,8.191,8.682,8.329c2.82,0.078,5.643,0.015,8.465,0.015
			c5.497,0,10.993,0,16.583,0C49.893,169.477,56.892,186.477,69.359,201.688z"/>
		<path fill-rule="evenodd" clip-rule="evenodd" fill="#FFFFFF" d="M69.359,201.688c-12.467-15.211-19.466-32.211-21.486-51.646
			c-5.59,0-11.086,0-16.583,0c-2.822,0-5.645,0.062-8.465-0.015c-4.99-0.138-8.66-3.701-8.682-8.329
			c-0.021-4.633,3.636-8.323,8.603-8.395c7.053-0.103,14.108-0.027,21.163-0.028c1.267,0,2.533,0,3.957,0
			c2.013-19.478,9.088-36.56,21.516-51.706c-6.02-5.995-11.929-11.853-17.807-17.743c-2.43-2.434-3.362-5.281-2.218-8.671
			c1.085-3.213,3.407-5.505,6.604-5.45c2.539,0.044,5.619,1.075,7.468,2.757c6.06,5.514,11.669,11.526,17.583,17.48
			c15.148-12.444,32.236-19.507,51.718-21.532c0-8.353-0.05-16.557,0.018-24.76c0.047-5.629,4.335-9.592,9.454-8.907
			c4.312,0.578,7.254,4.115,7.283,8.957c0.05,8.103,0.014,16.205,0.014,24.674c19.226,2.056,36.38,8.948,52.327,22.129
			c1.207-1.626,2.287-3.458,3.723-4.946c4.406-4.568,8.906-9.051,13.455-13.478c3.672-3.575,8.564-3.576,11.928-0.157
			c3.326,3.38,3.264,8.311-0.332,11.942c-5.789,5.845-11.676,11.594-17.77,17.631c12.234,15.059,19.539,32.049,21.48,51.779
			c3.604,0,7.193,0,10.785,0c4.586,0,9.17-0.033,13.756,0.009c5.463,0.05,9.305,3.614,9.232,8.49
			c-0.068,4.745-3.838,8.223-9.109,8.255c-8.098,0.05-16.193,0.013-24.604,0.013c-1.994,19.326-9.021,36.426-21.518,51.664
			c5.84,5.828,11.613,11.63,17.438,17.382c2.125,2.099,3.447,4.488,2.947,7.524c-0.557,3.386-2.396,5.76-5.791,6.847
			c-3.275,1.049-6.037,0.172-8.367-2.146c-5.908-5.882-11.756-11.825-17.826-17.941c-15.098,12.315-32.123,19.548-51.754,21.496
			c0,6.6,0,13.15-0.001,19.701c0,1.881,0.063,3.764-0.015,5.642c-0.201,4.778-3.733,8.357-8.233,8.417
			c-4.644,0.063-8.416-3.569-8.489-8.505c-0.116-7.759-0.032-15.519-0.041-23.279c0-0.571-0.077-1.141-0.135-1.95
			c-19.253-2.002-36.36-9.018-51.579-21.554c-6.031,6.079-11.94,12.092-17.923,18.032c-2.333,2.316-5.124,3.137-8.388,2.065
			c-3.237-1.065-5.539-3.361-5.518-6.553c0.017-2.538,1.021-5.638,2.694-7.49C57.369,213.308,63.369,207.677,69.359,201.688z
			 M80.961,93.893c-9.013,11.394-14.534,24.336-16.178,39.373c12.331,0,24.27,0.024,36.208-0.063c0.67-0.005,1.67-0.778,1.948-1.435
			c1.627-3.848,3.085-7.768,4.495-11.395C98.699,111.637,89.932,102.867,80.961,93.893z M119.963,108.043
			c3.212-1.351,6.462-3.03,9.907-4.054c2.228-0.662,2.938-1.524,2.912-3.815c-0.118-10.671-0.046-21.346-0.064-32.019
			c-0.002-0.88-0.173-1.761-0.288-2.85c-14.801,1.793-27.753,7.151-38.992,16.171C102.354,90.406,111.11,99.177,119.963,108.043z
			 M189.136,81.693c-11.727-9.201-24.643-14.75-39.633-16.357c0,12.312-0.021,24.143,0.053,35.973
			c0.004,0.732,0.589,1.867,1.195,2.122c3.945,1.663,7.973,3.134,11.924,4.648C171.337,99.441,180.056,90.748,189.136,81.693z
			 M217.449,133.095c-1.723-14.863-7.141-27.858-16.262-39.247c-8.984,8.978-17.764,17.751-26.52,26.5
			c1.723,4.101,3.518,8.373,5.355,12.747C192.3,133.095,204.693,133.095,217.449,133.095z M80.91,189.31
			c9.089-9.088,17.858-17.857,26.574-26.573c-1.317-3.117-3.058-6.355-4.021-9.81c-0.699-2.507-1.855-2.956-4.158-2.932
			c-10.438,0.109-20.876,0.042-31.315,0.057c-1.005,0.001-2.009,0.128-3.233,0.21C66.531,165.124,71.911,178.07,80.91,189.31z
			 M217.455,150.237c-12.963,0-25.354,0-37.445,0c-1.867,4.453-3.623,8.635-5.191,12.377c8.865,8.816,17.715,17.615,26.664,26.514
			C210.322,177.974,215.744,165.042,217.455,150.237z M119.657,175.281c-8.633,8.643-17.405,17.424-26.386,26.414
			c11.404,9.167,24.402,14.581,39.438,16.318c0-12.41,0.02-24.462-0.059-36.514c-0.003-0.572-0.754-1.417-1.352-1.663
			C127.43,178.237,123.505,176.769,119.657,175.281z M162.58,175.146c-3.555,1.487-6.912,3.223-10.473,4.26
			c-2.213,0.644-2.659,1.616-2.643,3.648c0.078,9.968,0.035,19.938,0.035,29.906c0,1.601,0,3.202,0,5.073
			c15.113-1.787,28.102-7.21,39.561-16.413C180.052,192.615,171.347,183.912,162.58,175.146z M141.028,124.017
			c-9.776-0.002-17.569,7.86-17.553,17.708c0.016,9.661,7.78,17.529,17.335,17.571c10.045,0.043,17.969-7.778,17.943-17.71
			C158.728,131.825,150.853,124.02,141.028,124.017z"/>
		<path fill-rule="evenodd" clip-rule="evenodd" fill="#93D1D5" d="M80.961,93.893c8.971,8.974,17.738,17.744,26.473,26.481
			c-1.41,3.626-2.868,7.546-4.495,11.395c-0.278,0.656-1.277,1.43-1.948,1.435c-11.938,0.087-23.877,0.063-36.208,0.063
			C66.427,118.229,71.949,105.287,80.961,93.893z"/>
		<path fill-rule="evenodd" clip-rule="evenodd" fill="#93D1D5" d="M119.963,108.043c-8.853-8.867-17.609-17.637-26.525-26.567
			c11.239-9.02,24.191-14.378,38.992-16.171c0.114,1.089,0.285,1.97,0.288,2.85c0.019,10.673-0.054,21.347,0.064,32.019
			c0.025,2.291-0.684,3.153-2.912,3.815C126.425,105.013,123.175,106.693,119.963,108.043z"/>
		<path fill-rule="evenodd" clip-rule="evenodd" fill="#93D1D5" d="M189.136,81.693c-9.08,9.055-17.799,17.748-26.461,26.386
			c-3.951-1.515-7.979-2.986-11.924-4.648c-0.606-0.255-1.191-1.39-1.195-2.122c-0.074-11.83-0.053-23.66-0.053-35.973
			C164.494,66.943,177.41,72.492,189.136,81.693z"/>
		<path fill-rule="evenodd" clip-rule="evenodd" fill="#93D1D5" d="M217.449,133.095c-12.756,0-25.148,0-37.426,0
			c-1.838-4.374-3.633-8.646-5.355-12.747c8.756-8.75,17.535-17.522,26.52-26.5C210.308,105.237,215.726,118.232,217.449,133.095z"
			/>
		<path fill-rule="evenodd" clip-rule="evenodd" fill="#93D1D5" d="M80.91,189.31c-8.999-11.24-14.379-24.186-16.152-39.048
			c1.224-0.083,2.229-0.209,3.233-0.21c10.438-0.015,20.877,0.052,31.315-0.057c2.303-0.023,3.459,0.425,4.158,2.932
			c0.963,3.455,2.704,6.693,4.021,9.81C98.768,171.453,89.999,180.221,80.91,189.31z"/>
		<path fill-rule="evenodd" clip-rule="evenodd" fill="#93D1D5" d="M217.455,150.237c-1.711,14.805-7.133,27.737-15.973,38.891
			c-8.949-8.899-17.799-17.698-26.664-26.514c1.568-3.742,3.324-7.924,5.191-12.377
			C192.101,150.237,204.492,150.237,217.455,150.237z"/>
		<path fill-rule="evenodd" clip-rule="evenodd" fill="#93D1D5" d="M119.657,175.281c3.848,1.488,7.772,2.957,11.641,4.555
			c0.598,0.247,1.349,1.091,1.352,1.663c0.079,12.052,0.059,24.104,0.059,36.514c-15.036-1.737-28.034-7.151-39.438-16.318
			C102.252,192.705,111.024,183.923,119.657,175.281z"/>
		<path fill-rule="evenodd" clip-rule="evenodd" fill="#93D1D5" d="M162.58,175.146c8.768,8.766,17.473,17.469,26.48,26.475
			c-11.459,9.203-24.447,14.626-39.561,16.413c0-1.871,0-3.472,0-5.073c0-9.969,0.043-19.938-0.035-29.906
			c-0.017-2.033,0.43-3.005,2.643-3.648C155.667,178.369,159.025,176.633,162.58,175.146z"/>
		<path fill-rule="evenodd" clip-rule="evenodd" fill="#93D1D5" d="M141.028,124.017c9.825,0.002,17.7,7.808,17.726,17.57
			c0.025,9.932-7.898,17.753-17.943,17.71c-9.556-0.042-17.32-7.911-17.335-17.571C123.458,131.877,131.251,124.015,141.028,124.017
			z"/>
	</g>
</g>
</svg>
