<?xml version="1.0" encoding="utf-8"?>
<!-- Generator: Adobe Illustrator 17.1.0, SVG Export Plug-In . SVG Version: 6.00 Build 0)  -->
<!DOCTYPE svg PUBLIC "-//W3C//DTD SVG 1.1//EN" "http://www.w3.org/Graphics/SVG/1.1/DTD/svg11.dtd">
<svg version="1.1" id="Layer_1" xmlns="http://www.w3.org/2000/svg" xmlns:xlink="http://www.w3.org/1999/xlink" x="0px" y="0px"
	 viewBox="0 0 612 792" enable-background="new 0 0 612 792" xml:space="preserve">
<circle fill="none" stroke="#127C9E" stroke-width="1.205" stroke-miterlimit="10" cx="306" cy="67.2" r="31.3"/>
<rect x="291.2" y="77.8" fill="#FFFFFF" stroke="#127C9E" stroke-width="1.0028" stroke-miterlimit="10" width="29.7" height="36.6"/>
<circle fill="#FFFFFF" stroke="#127C9E" stroke-width="1.0512" stroke-miterlimit="10" cx="306" cy="410.8" r="303.3"/>
<circle fill="#92D2D5" stroke="#127C9E" stroke-width="1.0512" stroke-miterlimit="10" cx="307.1" cy="409.3" r="262"/>
<path fill="none" d="M536.2,424.6c48.3,127.8-15.9,270.5-143.2,318.7c-127.8,48.3-270.5-15.9-318.7-143.2
	C26,472.4,90.2,329.7,217.4,281.4C345.2,233.2,487.9,297.4,536.2,424.6z"/>
<g enable-background="new    ">
	<path fill="#107C9E" d="M183.9,292.9c0-1,0-2.2,0-3.4c0-1.2,0.1-2.5,0.2-3.8c0.1-1.3,0.2-2.7,0.4-4c0.2-1.3,0.4-2.6,0.7-3.9
		c0.3-1.2,0.7-2.2,1.2-2.9c0.5-0.7,1.1-1.3,1.8-1.6c0.6-0.3,1.3-0.5,1.9-0.4c0.6,0,1.2,0.2,1.7,0.5c0.5,0.3,1,0.7,1.5,1.2
		c0.5,0.5,0.9,1.1,1.2,1.8c0.3,0.6,0.6,1.4,1,2.4c0.4,1,0.8,2,1.3,3.1c0.3,0.6,0.6,1.2,1,1.7c0.3,0.6,0.7,1,1.1,1.4
		c0.4,0.4,0.8,0.6,1.3,0.8c0.5,0.1,1,0.1,1.5-0.2c0.6-0.3,1.1-0.8,1.5-1.4c0.4-0.6,0.8-1.4,1.1-2.2c0.3-0.8,0.5-1.7,0.7-2.7
		c0.2-0.9,0.3-1.9,0.4-2.7c0.1-0.9,0.1-1.7,0.1-2.5c0-0.8,0-1.4,0-2c0-0.7,0.3-1.2,0.9-1.5c0.4-0.2,0.8-0.2,1.2-0.1
		c0.4,0.2,0.7,0.4,0.8,0.8c0.1,0.2,0.2,0.4,0.2,0.6c0,0.2,0,0.8,0,1.5c0,0.8,0,1.7-0.1,2.7c-0.1,1.1-0.2,2.2-0.4,3.4
		c-0.2,1.2-0.5,2.4-0.9,3.5c-0.4,1.1-0.9,2.2-1.6,3.1c-0.7,0.9-1.5,1.6-2.5,2.1c-1.1,0.6-2.2,0.8-3.1,0.6c-0.9-0.1-1.8-0.5-2.5-1
		c-0.8-0.6-1.4-1.3-2-2.1c-0.6-0.8-1.1-1.7-1.5-2.6c-0.2-0.4-0.4-0.9-0.7-1.5c-0.2-0.5-0.4-1-0.6-1.6c-0.2-0.5-0.4-1-0.6-1.5
		c-0.2-0.5-0.3-0.8-0.5-1.1c-0.4-0.8-0.7-1.2-1.1-1.4c-0.3-0.2-0.7-0.2-0.9,0c-0.4,0.2-0.7,0.6-1,1.4c-0.3,0.7-0.5,1.6-0.7,2.6
		c-0.2,1-0.3,2.1-0.4,3.3c-0.1,1.2-0.2,2.4-0.2,3.6c-0.1,1.2-0.1,2.3-0.1,3.3c0,1,0,1.9,0,2.6c0,1.3-0.2,2.3-0.5,2.9
		c-0.4,0.6-0.7,1-1.2,1.2c-0.8,0.4-1.5,0.4-2.2,0c-0.7-0.4-1.3-1-1.7-1.9l-1.2-2.3c-2.3-4.7-4.5-9.1-6.6-13.4
		c-2.1-4.2-4-8.2-5.7-11.9c-1.7-3.7-3.1-7.1-4.4-10.2c-1.2-3.1-2.1-5.8-2.6-8.2c-0.5-2.3-0.7-4.3-0.4-5.8c0.2-1.5,1-2.6,2.2-3.2
		c1-0.5,2.1-0.7,3.1-0.5c1,0.2,2,0.7,2.9,1.5s1.8,1.7,2.7,2.9s1.6,2.5,2.3,4c1.4,2.9,2.6,5.9,3.5,9c0.9,3.1,1.5,6.2,1.9,9.3
		s0.7,6.2,0.8,9.4c0.1,3.1,0,6.2-0.1,9.3c0.2,0.4,0.5,1,0.8,1.6c0.3,0.6,0.6,1.2,0.9,1.9c0.3,0.6,0.6,1.2,0.9,1.7
		c0.3,0.5,0.5,1,0.6,1.3L183.9,292.9z M177.1,279.2c-0.1-2.8-0.2-5.5-0.5-8.1c-0.2-2.6-0.6-5.1-1-7.6c-0.5-2.5-1.1-4.9-1.8-7.3
		c-0.8-2.4-1.7-4.8-2.9-7.2c-0.2-0.4-0.5-1-1-1.9c-0.5-0.8-1-1.7-1.6-2.5s-1.3-1.4-2-1.9c-0.7-0.5-1.4-0.5-2.1-0.2
		c-0.5,0.3-0.8,0.9-0.9,1.8c0,0.9,0.1,2.1,0.4,3.5c0.3,1.4,0.8,3,1.4,4.7c0.6,1.8,1.3,3.6,2.1,5.5c0.8,1.9,1.6,3.9,2.6,5.9
		c0.9,2,1.8,3.9,2.7,5.8s1.7,3.6,2.5,5.2C175.8,276.6,176.5,278,177.1,279.2z"/>
</g>
<g enable-background="new    ">
	<path fill="#107C9E" d="M236.2,262.5c0,0.2-0.1,0.8-0.2,1.5c-0.1,0.8-0.2,1.7-0.4,2.7c-0.2,1-0.5,2.1-0.8,3.3
		c-0.3,1.2-0.8,2.3-1.3,3.4c-0.6,1.1-1.2,2-2,2.9c-0.8,0.9-1.7,1.5-2.8,1.8c-1.5,0.5-2.9,0.5-4.3-0.1c-1.4-0.6-2.6-1.5-3.5-2.8
		c-0.4,1.8-1,3.4-1.9,4.7c-0.9,1.3-2,2.2-3.2,2.6c-1,0.3-1.9,0.5-2.8,0.4c-0.9-0.1-1.7-0.3-2.5-0.8c-0.8-0.4-1.5-1-2.1-1.8
		c-0.6-0.8-1.1-1.6-1.5-2.6c-0.7-2-1-3.9-0.9-5.7c0.1-1.8,0.5-3.4,1.2-4.8c0.7-1.4,1.6-2.6,2.7-3.6c1.1-1,2.2-1.7,3.4-2.1
		c0.8-0.3,1.6-0.4,2.3-0.5c0.8,0,1.4,0,2,0.1c0.6,0.1,1,0.2,1.4,0.3c0.3,0.1,0.5,0.2,0.6,0.2c0.4,0.2,0.7,0.5,0.8,0.9
		c0.1,0.4,0.1,0.8-0.1,1.2c-0.2,0.4-0.5,0.7-0.9,0.8c-0.4,0.1-0.8,0.1-1.2-0.1c-0.1,0-0.2-0.1-0.5-0.2c-0.2-0.1-0.5-0.1-0.9-0.2
		c-0.4,0-0.8,0-1.3,0c-0.5,0-1,0.2-1.5,0.3c-0.8,0.3-1.6,0.8-2.4,1.5c-0.8,0.7-1.4,1.6-1.9,2.6c-0.5,1-0.8,2.2-0.9,3.6
		c-0.1,1.3,0.1,2.8,0.7,4.4c0.2,0.5,0.4,1,0.7,1.4c0.3,0.5,0.6,0.9,1,1.2c0.4,0.3,0.9,0.5,1.4,0.6s1.1,0,1.8-0.2
		c0.5-0.2,1-0.5,1.5-1c0.5-0.5,0.9-1.2,1.2-2.1c0.3-0.8,0.5-1.8,0.6-3c0.1-1.2,0-2.4-0.3-3.9c-0.1-0.4,0-0.7,0.2-1.1
		c0.2-0.3,0.5-0.6,0.9-0.7c0.4-0.1,0.7-0.1,1.1,0.1c0.4,0.2,0.6,0.5,0.8,0.8c0.2,0.5,0.5,1.2,0.9,2s0.9,1.7,1.5,2.5
		c0.6,0.8,1.3,1.4,2.1,1.9c0.8,0.5,1.6,0.5,2.6,0.2c0.6-0.2,1.2-0.6,1.7-1.2c0.5-0.6,0.9-1.2,1.3-2c0.4-0.8,0.7-1.6,1-2.5
		c0.3-0.9,0.5-1.8,0.7-2.7c0.2-0.9,0.3-1.7,0.4-2.5c0.1-0.8,0.2-1.5,0.2-2.1c0-0.3,0.1-0.6,0.3-0.9c0.2-0.2,0.4-0.4,0.7-0.5
		c0.4-0.2,0.9-0.1,1.2,0.1c0.4,0.2,0.6,0.5,0.8,0.9C236.2,262.1,236.2,262.3,236.2,262.5z"/>
</g>
<g enable-background="new    ">
	<path fill="#107C9E" d="M254.4,258.7c0.6,2.5,0.6,4.7,0.1,6.6c-0.5,2-1.3,3.5-2.3,4.8l0.2,0c1.6-0.4,2.9-1.1,4.1-2.1
		c1.1-1,2.1-2.2,2.9-3.6s1.4-2.8,2-4.4c0.5-1.6,0.9-3.1,1.3-4.5c0.1-0.3,0.2-0.6,0.4-0.8c0.2-0.2,0.5-0.4,0.8-0.4
		c0.5-0.1,0.9,0,1.2,0.2c0.3,0.3,0.6,0.6,0.6,1c0.1,0.2,0.1,0.4,0,0.6c-0.3,1.7-0.8,3.5-1.4,5.3c-0.6,1.8-1.4,3.5-2.4,5
		c-1,1.6-2.2,2.9-3.6,4.1c-1.4,1.2-3.1,2-5.1,2.4c-1.4,0.3-2.9,0.4-4.3,0.3s-2.8-0.5-4-1.2c-0.4-0.2-0.8-0.4-1.2-0.7
		c-0.3-0.3-0.6-0.5-0.9-0.8c-0.1,0-0.1-0.1-0.1-0.1c-0.2-0.2-0.4-0.4-0.4-0.7c-0.1-0.3,0-0.7,0.1-1.1c0-0.1,0-0.1,0.1-0.1
		c0,0,0,0,0.1-0.1c0.2-0.3,0.5-0.5,0.8-0.6l0.1,0c0.1,0,0.2,0,0.3,0c0,0,0,0,0.1,0c0,0,0,0,0.1,0c0.1,0,0.2,0,0.3,0c0,0,0.1,0,0.1,0
		c0.3,0.1,0.5,0.3,0.7,0.5c0.3,0.3,0.5,0.5,0.9,0.7c0.3,0.2,0.6,0.3,0.9,0.4c0.3,0.1,0.7,0.1,1.1,0c0.7-0.2,1.3-0.5,1.9-1.1
		c0.6-0.6,1-1.3,1.4-2.2c0.4-0.9,0.6-1.9,0.7-3s0-2.4-0.3-3.7c-0.2-1-0.5-1.8-0.9-2.4c-0.4-0.6-0.7-1.1-1.2-1.5s-0.8-0.6-1.2-0.7
		c-0.4-0.1-0.8-0.1-1.1-0.1c-0.7,0.2-1.4,0.7-1.9,1.6c-0.6,0.9-1.1,2.1-1.5,3.4c-0.5,1.3-0.9,2.8-1.3,4.3c-0.4,1.6-0.8,3.1-1.2,4.6
		c1,4.4,1.9,8.5,2.7,12.5c0.8,4,1.5,7.7,2.1,11.1c0.6,3.4,1,6.6,1.2,9.4c0.2,2.8,0.2,5.3,0,7.4c-0.2,2.1-0.8,3.8-1.5,5.1
		s-1.9,2.1-3.4,2.5c-0.5,0.1-1,0.1-1.6,0.1c-0.6,0-1.3-0.3-1.9-0.8c-0.6-0.5-1.3-1.2-1.9-2.2c-0.6-1-1.1-2.4-1.5-4.2
		c-0.5-2.3-0.9-5-1-8.1c-0.1-3.1-0.1-6.5,0.2-10.1c0.2-3.6,0.7-7.4,1.3-11.3c0.6-3.9,1.4-7.7,2.3-11.5c-0.2-0.9-0.4-1.9-0.6-2.8
		c-0.2-0.9-0.4-1.8-0.6-2.7c-0.3,0.5-0.6,0.8-1.1,0.9c-0.5,0.1-0.9,0-1.2-0.2c-0.3-0.3-0.6-0.6-0.6-1c0-0.2-0.1-0.4,0-0.6
		c0.3-1.6,0.5-3.2,0.5-4.6c0-1.4,0-2.6,0-3.7c-0.1-1.1-0.1-1.9-0.3-2.5s-0.2-0.9-0.2-0.9c-0.1-0.4,0-0.8,0.2-1.2
		c0.2-0.4,0.6-0.6,1-0.7c0.4-0.1,0.8,0,1.1,0.2c0.4,0.2,0.6,0.5,0.7,1l2.9,12.4c0.4-1.2,0.8-2.4,1.1-3.5c0.4-1.2,0.8-2.2,1.3-3.2
		c0.5-1,1.1-1.8,1.8-2.5c0.7-0.7,1.5-1.1,2.5-1.4c0.9-0.2,1.8-0.2,2.7,0.1c0.9,0.3,1.6,0.7,2.4,1.3c0.7,0.6,1.3,1.4,1.9,2.4
		C253.8,256.4,254.2,257.5,254.4,258.7z M239.6,275.8c-0.6,3.3-1.1,6.5-1.5,9.8c-0.4,3.2-0.6,6.3-0.7,9.3c-0.1,2.9-0.1,5.7,0.1,8.2
		c0.2,2.5,0.5,4.7,0.9,6.5c0.1,0.5,0.3,0.9,0.4,1.5c0.2,0.5,0.4,1,0.7,1.4s0.6,0.7,1,1c0.4,0.2,0.8,0.3,1.3,0.2
		c0.9-0.2,1.5-0.9,1.9-2.2c0.4-1.3,0.6-2.9,0.6-4.9c0-2-0.1-4.3-0.4-6.8c-0.3-2.5-0.6-5.2-1.1-7.9c-0.5-2.7-1-5.5-1.5-8.2
		C240.6,280.9,240.1,278.3,239.6,275.8z"/>
</g>
<g enable-background="new    ">
	<path fill="#107C9E" d="M284.1,254.5c0.3,2.5,0.1,4.7-0.6,6.6c-0.7,1.9-1.7,3.4-2.9,4.5l0.2,0c1.6-0.2,3.1-0.7,4.3-1.6
		c1.2-0.9,2.3-1.9,3.3-3.2c0.9-1.3,1.8-2.6,2.4-4.1c0.7-1.5,1.3-2.9,1.8-4.3c0.1-0.3,0.3-0.6,0.5-0.8c0.2-0.2,0.5-0.3,0.8-0.3
		c0.5-0.1,0.9,0.1,1.2,0.4c0.3,0.3,0.5,0.6,0.5,1c0,0.2,0,0.4-0.1,0.6c-0.5,1.7-1.2,3.4-2,5.1s-1.8,3.3-3,4.7
		c-1.2,1.4-2.5,2.7-4.1,3.7c-1.6,1-3.3,1.6-5.3,1.8c-1.5,0.2-2.9,0.1-4.3-0.2c-1.4-0.3-2.7-0.9-3.9-1.7c-0.4-0.3-0.8-0.5-1.1-0.9
		c-0.3-0.3-0.6-0.6-0.8-0.9c-0.1,0-0.1-0.1-0.1-0.2c-0.2-0.2-0.3-0.5-0.3-0.8c0-0.4,0-0.7,0.3-1c0-0.1,0-0.1,0.1-0.1
		c0,0,0.1,0,0.1-0.1c0.2-0.3,0.5-0.5,0.9-0.5l0.1,0c0.1,0,0.2,0,0.3,0c0,0,0,0,0.1,0c0,0,0,0,0.1,0c0.1,0,0.2,0,0.3,0
		c0,0,0.1,0,0.1,0c0.3,0.1,0.5,0.3,0.7,0.5c0.2,0.3,0.5,0.6,0.8,0.8c0.2,0.2,0.5,0.4,0.9,0.5s0.7,0.2,1.1,0.2c0.7-0.1,1.3-0.4,2-0.9
		c0.6-0.5,1.2-1.1,1.7-2c0.5-0.8,0.8-1.8,1-3s0.3-2.4,0.1-3.7c-0.1-1-0.3-1.8-0.6-2.5c-0.3-0.7-0.6-1.2-1-1.6
		c-0.4-0.4-0.7-0.7-1.1-0.9c-0.4-0.2-0.7-0.2-1.1-0.2c-0.7,0.1-1.4,0.6-2.1,1.4c-0.7,0.9-1.3,1.9-1.9,3.2c-0.6,1.3-1.2,2.7-1.8,4.2
		c-0.6,1.5-1.1,3-1.7,4.4c0.5,4.5,0.9,8.7,1.2,12.7c0.4,4,0.6,7.8,0.8,11.3c0.2,3.5,0.2,6.6,0.1,9.5c-0.1,2.8-0.4,5.3-0.9,7.4
		c-0.5,2.1-1.2,3.7-2.1,4.9c-0.9,1.2-2.1,1.9-3.6,2c-0.5,0.1-1,0-1.6-0.1c-0.6-0.1-1.2-0.5-1.8-1c-0.6-0.5-1.1-1.3-1.6-2.4
		s-0.8-2.5-1-4.3c-0.3-2.3-0.3-5.1-0.1-8.2c0.2-3.1,0.7-6.5,1.3-10.1c0.7-3.6,1.5-7.2,2.6-11c1-3.8,2.2-7.5,3.6-11.1
		c-0.1-1-0.2-1.9-0.3-2.8c-0.1-0.9-0.2-1.8-0.3-2.7c-0.3,0.5-0.7,0.7-1.2,0.8c-0.5,0.1-0.9-0.1-1.2-0.4c-0.3-0.3-0.5-0.6-0.5-1
		c0-0.2,0-0.4,0.1-0.6c0.5-1.6,0.8-3.1,1-4.5s0.3-2.6,0.4-3.7c0.1-1,0.1-1.9,0-2.5c0-0.6-0.1-0.9-0.1-1c0-0.4,0.1-0.8,0.3-1.1
		c0.3-0.3,0.6-0.5,1.1-0.6c0.4,0,0.8,0.1,1.1,0.3c0.3,0.3,0.5,0.6,0.6,1l1.4,12.6c0.5-1.1,1-2.3,1.5-3.4c0.5-1.1,1.1-2.1,1.7-3
		c0.6-0.9,1.3-1.7,2-2.3c0.8-0.6,1.6-1,2.6-1.1c0.9-0.1,1.8,0,2.6,0.4c0.8,0.4,1.5,0.9,2.2,1.6c0.6,0.7,1.2,1.6,1.6,2.6
		C283.7,252.2,284,253.3,284.1,254.5z M267.3,269.8c-1,3.2-1.9,6.3-2.6,9.5c-0.7,3.2-1.3,6.2-1.8,9.1c-0.4,2.9-0.7,5.6-0.8,8.1
		c-0.1,2.5-0.1,4.7,0.1,6.6c0.1,0.5,0.1,1,0.3,1.5c0.1,0.5,0.3,1,0.5,1.5c0.2,0.4,0.5,0.8,0.8,1.1c0.3,0.3,0.8,0.4,1.2,0.3
		c0.9-0.1,1.6-0.8,2.2-2c0.5-1.2,0.9-2.8,1.1-4.8c0.2-2,0.4-4.3,0.4-6.8c0-2.5,0-5.2-0.2-8c-0.1-2.8-0.3-5.5-0.6-8.3
		C267.8,274.9,267.6,272.3,267.3,269.8z"/>
</g>
<g enable-background="new    ">
	<path fill="#107C9E" d="M308.4,265.9c1-1,1.9-2,2.9-3c1-1,2-2.1,2.9-3.2c0.9-1.1,1.8-2.3,2.6-3.5c0.8-1.2,1.5-2.5,2.2-3.8
		c0.1-0.3,0.3-0.5,0.6-0.7c0.2-0.2,0.5-0.2,0.8-0.2c0.5,0,0.8,0.2,1.1,0.5c0.3,0.3,0.4,0.7,0.4,1.1c0,0.2,0,0.4-0.1,0.6
		c-0.8,1.8-1.8,3.4-2.9,4.9c-1.1,1.5-2.3,2.9-3.5,4.3c-1.2,1.3-2.4,2.6-3.7,3.9c-1.2,1.3-2.4,2.5-3.5,3.8c-0.1,1.9-0.1,3.8,0,5.7
		c0.1,1.9,0.2,4,0.2,6.1c0,1.8,0,3.5-0.1,5.3c-0.1,1.8-0.3,3.5-0.5,5.1c-0.2,1.6-0.6,3.1-1,4.5c-0.4,1.4-1,2.6-1.6,3.7
		c-0.7,1-1.4,1.9-2.3,2.5s-1.9,0.9-3.1,0.9c-2,0-3.5-0.7-4.5-2c-1.1-1.4-1.6-3.2-1.6-5.7c0-1.3,0.1-2.7,0.4-4.3
		c0.3-1.5,0.7-3.1,1.2-4.7c0.5-1.6,1.1-3.3,1.9-4.9c0.7-1.7,1.5-3.3,2.4-4.9c0.9-1.6,1.8-3.1,2.7-4.5c1-1.4,1.9-2.7,2.9-3.9
		c0.1-1.3,0.1-2.7,0.2-4.1c0.1-1.4,0.1-2.7,0.2-4c-0.7,1.3-1.6,2.3-2.7,3.1c-1.1,0.8-2.2,1.2-3.5,1.2c-2.1,0-3.7-0.7-4.9-2.1
		c-1.2-1.4-1.8-3.3-1.8-5.8c0-1.8,0.2-3.4,0.5-4.9c0.3-1.5,0.7-2.8,1.1-3.8c0.4-1.1,0.8-1.9,1.1-2.4c0.3-0.6,0.5-0.8,0.5-0.8
		c0.3-0.5,0.7-0.7,1.3-0.7c0.5,0,0.8,0.2,1.1,0.5c0.3,0.3,0.4,0.7,0.4,1.1c0,0.3-0.1,0.6-0.2,0.8c0,0-0.1,0.2-0.4,0.7
		c-0.3,0.5-0.6,1.2-0.9,2.1c-0.3,0.9-0.7,2-0.9,3.3c-0.3,1.3-0.4,2.7-0.4,4.2s0.3,2.7,0.8,3.6c0.6,0.9,1.5,1.3,2.7,1.3
		c1.6,0,3-1.2,4.3-3.5c1.3-2.3,2.3-5.7,3.2-10.2c0.1-0.4,0.2-0.7,0.5-0.9c0.3-0.2,0.6-0.4,1-0.4c0.4,0,0.8,0.1,1.1,0.5
		c0.3,0.3,0.5,0.7,0.5,1.1c0,0.1-0.1,0.6-0.2,1.5c-0.1,0.9-0.2,2.1-0.4,3.6c-0.1,1.5-0.3,3.2-0.5,5.2
		C308.6,261.5,308.5,263.6,308.4,265.9z M305.1,274.7c-1.2,1.8-2.4,3.7-3.4,5.7c-1,2-1.9,4-2.7,5.9c-0.7,2-1.3,3.8-1.7,5.6
		c-0.4,1.8-0.6,3.4-0.6,4.8c0,1.4,0.2,2.6,0.7,3.4c0.5,0.8,1.2,1.2,2.2,1.2c0.9,0,1.7-0.5,2.4-1.4c0.7-0.9,1.3-2.2,1.8-3.8
		c0.5-1.7,0.8-3.7,1.1-6c0.2-2.4,0.4-5,0.3-7.9c0-1.2,0-2.4-0.1-3.6C305.2,277.3,305.1,276,305.1,274.7z"/>
</g>
<g enable-background="new    ">
	<path fill="#107C9E" d="M347.9,257.1c-0.3,1.4-0.6,2.8-1.1,4.2s-1.1,2.6-1.9,3.7c-0.8,1.1-1.7,1.9-2.9,2.5c-1.1,0.6-2.5,0.8-4,0.6
		c-1-0.1-1.8-0.4-2.5-0.7c-0.7-0.4-1.3-0.8-1.7-1.4c-0.5-0.5-0.9-1.1-1.1-1.8s-0.5-1.3-0.7-2.1c-1.2,1.5-2.4,2.6-3.8,3.3
		c-1.4,0.7-2.8,1-4,0.8c-1-0.1-2-0.4-2.7-0.9c-0.8-0.5-1.4-1.1-1.9-1.9c-0.5-0.8-0.9-1.7-1.1-2.7c-0.2-1-0.2-2.2-0.1-3.4
		c0.3-2.1,0.7-3.8,1.2-5.3c0.6-1.4,1.1-2.6,1.7-3.5c0.6-0.9,1.3-1.8,2.2-2.7c0.2-0.1,0.3-0.2,0.6-0.3c0.2-0.1,0.4-0.1,0.7,0
		c0.4,0.1,0.8,0.3,1,0.6c0.2,0.4,0.3,0.7,0.3,1.1c0,0.3-0.2,0.6-0.5,0.9c-0.1,0.1-0.4,0.4-0.8,0.9c-0.4,0.4-0.8,1-1.2,1.8
		c-0.4,0.8-0.8,1.7-1.2,2.8c-0.4,1.1-0.7,2.5-0.9,4c-0.2,1.6,0,2.9,0.5,3.8c0.6,0.9,1.4,1.4,2.6,1.6c0.6,0.1,1.2,0,1.9-0.2
		c0.7-0.2,1.4-0.6,2.1-1.2c0.7-0.6,1.3-1.4,1.9-2.3c0.6-1,1-2.1,1.3-3.5l1.4-7c0.1-0.4,0.3-0.7,0.6-1c0.3-0.2,0.7-0.3,1.1-0.3
		c0.5,0.1,0.8,0.3,1,0.7c0.2,0.4,0.3,0.8,0.3,1.2l-1.3,6.7c-0.3,1.4-0.4,2.7-0.3,3.8c0,1.1,0.2,2,0.6,2.7c0.3,0.7,0.8,1.3,1.3,1.7
		c0.6,0.4,1.2,0.6,2,0.7c1,0.1,1.9-0.1,2.6-0.6c0.8-0.5,1.4-1.2,1.9-2.1c0.5-0.9,1-2,1.3-3.3c0.3-1.3,0.6-2.6,0.8-4.1
		c0.2-1.7,0.3-3.2,0.2-4.4c0-1.2-0.1-2,0-2.3c0.1-0.4,0.2-0.8,0.6-1c0.3-0.3,0.7-0.4,1.2-0.3c0.4,0,0.7,0.2,0.9,0.5
		c0.2,0.3,0.4,0.6,0.4,1c0,0.1,0.1,0.4,0.1,1c0.1,0.5,0.2,1.2,0.3,1.9c0.2,0.8,0.4,1.6,0.7,2.4c0.3,0.9,0.7,1.7,1.2,2.4
		c0.5,0.8,1,1.4,1.7,1.9c0.7,0.5,1.5,0.9,2.4,1c0.5,0.1,1,0,1.4-0.1c0.4-0.2,0.7-0.4,1-0.6s0.5-0.5,0.7-0.7c0.2-0.2,0.2-0.4,0.3-0.4
		c0.2-0.3,0.4-0.5,0.7-0.6c0.3-0.1,0.6-0.2,0.9-0.2c0.5,0.1,0.8,0.3,1.1,0.7c0.2,0.4,0.3,0.8,0.3,1.1c0,0.3-0.2,0.7-0.6,1.3
		c-0.4,0.5-0.8,1-1.4,1.4c-0.6,0.4-1.3,0.8-2.1,1.1c-0.8,0.3-1.7,0.4-2.6,0.2c-0.8-0.1-1.5-0.3-2.2-0.6c-0.7-0.3-1.3-0.7-1.8-1.2
		c-0.5-0.5-1-1-1.5-1.5C348.6,258.3,348.2,257.7,347.9,257.1z"/>
</g>
<g enable-background="new    ">
	<path fill="#107C9E" d="M359,267.4c0.7-0.8,1.4-1.6,2.3-2.5c0.8-0.9,1.7-1.8,2.7-2.8c0.9-0.9,1.9-1.9,2.9-2.8c1-0.9,2-1.7,3.1-2.5
		c1-0.7,2-1.2,2.9-1.4c0.9-0.2,1.7-0.2,2.4,0c0.7,0.2,1.3,0.5,1.7,0.9c0.4,0.4,0.8,0.9,1,1.5c0.2,0.6,0.3,1.2,0.3,1.9
		c0,0.7-0.1,1.4-0.3,2.2c-0.2,0.6-0.4,1.4-0.8,2.4c-0.4,1-0.7,2.1-1,3.2c-0.2,0.6-0.3,1.3-0.4,1.9c-0.1,0.6-0.1,1.2-0.1,1.8
		c0,0.5,0.2,1,0.5,1.4c0.3,0.4,0.7,0.7,1.2,0.8c0.6,0.2,1.3,0.2,2.1,0c0.7-0.2,1.5-0.5,2.3-0.9c0.8-0.4,1.5-0.9,2.3-1.5
		c0.8-0.6,1.5-1.2,2.1-1.8c0.6-0.6,1.2-1.2,1.8-1.8c0.5-0.6,1-1.1,1.3-1.5c0.4-0.5,1-0.7,1.6-0.5c0.5,0.1,0.8,0.4,1,0.8
		c0.2,0.4,0.2,0.8,0.1,1.1c-0.1,0.2-0.2,0.4-0.3,0.6c-0.2,0.2-0.5,0.6-1,1.2c-0.5,0.6-1.1,1.2-1.9,2c-0.8,0.7-1.6,1.5-2.6,2.3
		s-2,1.5-3,2c-1.1,0.6-2.1,1-3.3,1.3c-1.1,0.3-2.2,0.2-3.3,0c-1.2-0.3-2.1-0.9-2.8-1.6c-0.6-0.7-1-1.5-1.2-2.4
		c-0.2-0.9-0.2-1.9-0.1-2.9c0.1-1,0.3-2,0.5-2.9c0.1-0.5,0.3-1,0.5-1.5c0.2-0.5,0.4-1.1,0.6-1.6c0.2-0.5,0.4-1,0.5-1.5
		c0.2-0.5,0.3-0.8,0.4-1.2c0.2-0.8,0.3-1.4,0.1-1.8c-0.1-0.4-0.4-0.6-0.7-0.6c-0.4-0.1-1,0-1.7,0.4c-0.7,0.3-1.4,0.8-2.2,1.5
		c-0.8,0.6-1.7,1.4-2.5,2.2c-0.9,0.8-1.7,1.7-2.5,2.5c-0.8,0.8-1.6,1.6-2.3,2.4c-0.7,0.8-1.3,1.4-1.7,1.9c-0.9,1-1.6,1.6-2.3,1.8
		c-0.7,0.2-1.2,0.3-1.7,0.2c-0.8-0.2-1.4-0.7-1.6-1.5c-0.3-0.8-0.3-1.6,0-2.6l0.7-2.5c1.3-5,2.6-9.9,3.9-14.4
		c1.2-4.6,2.4-8.8,3.6-12.7c1.2-3.9,2.3-7.4,3.5-10.5s2.3-5.7,3.4-7.8c1.2-2.1,2.3-3.7,3.5-4.7c1.2-1,2.4-1.3,3.8-1
		c1.1,0.3,2,0.9,2.6,1.7c0.6,0.8,1,1.8,1.2,3c0.2,1.2,0.2,2.5,0.1,4c-0.2,1.5-0.4,3-0.9,4.5c-0.8,3.1-2,6.2-3.3,9
		c-1.4,2.9-2.9,5.6-4.7,8.3c-1.7,2.6-3.6,5.1-5.6,7.5c-2,2.4-4.1,4.7-6.2,6.9c-0.1,0.5-0.3,1.1-0.5,1.7c-0.2,0.7-0.4,1.3-0.5,2
		c-0.2,0.7-0.3,1.3-0.5,1.9c-0.2,0.6-0.3,1.1-0.4,1.4L359,267.4z M363,252.6c1.8-2.2,3.4-4.3,5-6.4c1.5-2.1,3-4.2,4.2-6.4
		c1.3-2.1,2.4-4.4,3.4-6.7c1-2.3,1.9-4.7,2.6-7.3c0.1-0.4,0.3-1.1,0.5-2.1c0.2-0.9,0.3-1.9,0.4-2.9c0.1-1,0-1.9-0.2-2.8
		c-0.2-0.8-0.7-1.3-1.5-1.5c-0.6-0.2-1.2,0.1-1.8,0.8c-0.6,0.7-1.3,1.6-2,2.9c-0.7,1.3-1.4,2.8-2.1,4.5c-0.7,1.7-1.4,3.6-2,5.5
		c-0.7,2-1.3,4-1.9,6.1c-0.6,2.1-1.2,4.1-1.8,6.1c-0.6,2-1.1,3.8-1.5,5.6C363.7,249.8,363.3,251.3,363,252.6z"/>
</g>
<g enable-background="new    ">
	<path fill="#107C9E" d="M418.6,279.1c-0.2,0.2-0.6,0.5-1.1,1c-0.6,0.5-1.3,1.1-2.1,1.8c-0.8,0.6-1.8,1.3-2.8,2
		c-1,0.7-2.1,1.2-3.2,1.7c-1.1,0.4-2.3,0.7-3.4,0.8c-1.1,0.1-2.2,0-3.3-0.4c-1.5-0.6-2.5-1.6-3.2-2.9c-0.6-1.4-0.9-2.8-0.8-4.5
		c-1.5,1.1-3,1.9-4.5,2.2c-1.5,0.4-2.9,0.3-4.1-0.2c-1-0.4-1.7-0.9-2.4-1.5c-0.6-0.7-1.1-1.4-1.4-2.2c-0.3-0.8-0.4-1.7-0.4-2.7
		s0.3-1.9,0.7-2.9c0.8-2,1.8-3.6,3.1-4.9c1.3-1.3,2.7-2.2,4.1-2.8c1.5-0.6,2.9-0.9,4.4-0.9c1.5,0,2.8,0.2,4,0.7
		c0.8,0.3,1.5,0.7,2.1,1.2c0.6,0.5,1.1,0.9,1.4,1.4c0.4,0.4,0.6,0.8,0.8,1.1c0.2,0.3,0.3,0.5,0.3,0.5c0.1,0.4,0.2,0.8,0,1.2
		c-0.2,0.4-0.4,0.7-0.8,0.9c-0.4,0.2-0.8,0.2-1.2,0c-0.4-0.2-0.7-0.4-0.9-0.8c0-0.1-0.1-0.2-0.2-0.4c-0.1-0.2-0.3-0.5-0.6-0.7
		c-0.2-0.3-0.6-0.6-0.9-0.8s-0.8-0.5-1.4-0.7c-0.8-0.3-1.7-0.5-2.8-0.5c-1,0-2.1,0.2-3.1,0.7c-1,0.5-2,1.2-3,2.1
		c-1,0.9-1.7,2.2-2.4,3.8c-0.2,0.5-0.3,1-0.4,1.5c-0.1,0.5-0.1,1.1,0,1.6c0.1,0.5,0.3,1,0.6,1.4c0.3,0.4,0.8,0.8,1.5,1
		c0.5,0.2,1.1,0.2,1.8,0.2c0.7-0.1,1.5-0.3,2.3-0.7s1.6-1,2.5-1.8c0.8-0.8,1.6-1.8,2.3-3.1c0.2-0.3,0.5-0.6,0.9-0.7
		c0.4-0.1,0.8-0.1,1.1,0c0.4,0.1,0.6,0.4,0.8,0.8c0.2,0.4,0.2,0.8,0.1,1.1c-0.2,0.5-0.4,1.2-0.7,2.1c-0.3,0.9-0.5,1.9-0.5,2.8
		c-0.1,1,0,1.9,0.3,2.8c0.3,0.9,0.9,1.5,1.8,1.9c0.6,0.2,1.3,0.3,2,0.2c0.7-0.1,1.5-0.3,2.3-0.6c0.8-0.3,1.6-0.7,2.4-1.2
		c0.8-0.5,1.6-1,2.3-1.6s1.4-1.1,2-1.6c0.6-0.5,1.1-1,1.5-1.4c0.2-0.2,0.5-0.4,0.8-0.4c0.3-0.1,0.6,0,0.9,0.1
		c0.4,0.2,0.7,0.5,0.9,0.9c0.1,0.4,0.1,0.8,0,1.2C418.8,278.8,418.7,279,418.6,279.1z"/>
</g>
<g enable-background="new    ">
	<path fill="#107C9E" d="M436.8,289.3c-0.6,0.4-1.2,0.9-2,1.5c-0.8,0.6-1.7,1.1-2.6,1.7c-0.9,0.6-1.9,1.1-3,1.6
		c-1.1,0.5-2.1,0.9-3.2,1.1c-1.1,0.3-2.2,0.4-3.2,0.4c-1.1,0-2.1-0.3-3-0.8c-1.5-0.8-2.5-1.9-3.1-3.3c-0.6-1.5-0.9-3.1-0.9-5
		c0-1.9,0.3-3.8,0.8-5.9c0.5-2.1,1.1-4.2,1.9-6.3c0.8-2.1,1.6-4.1,2.4-5.9c0.9-1.9,1.7-3.5,2.4-5c1.1-2.1,2.2-4.2,3.5-6.3
		c1.3-2.1,2.6-4.2,4-6.2c1.4-2,2.8-3.8,4.2-5.4c1.4-1.7,2.8-3,4.2-4.1c1.4-1.1,2.7-1.9,3.9-2.3s2.4-0.4,3.4,0.2
		c0.8,0.4,1.4,1,1.9,1.7s0.7,1.6,0.7,2.7c0,1.1-0.2,2.4-0.7,3.9c-0.5,1.5-1.2,3.2-2.2,5.2c-1.3,2.5-2.8,4.9-4.7,7.2
		c-1.9,2.4-3.9,4.6-6.2,6.8c-2.2,2.2-4.7,4.3-7.2,6.3c-2.6,2-5.2,3.9-7.8,5.7c-1,3.4-1.4,6.3-1.3,8.6s0.9,3.8,2.3,4.6
		c1,0.5,2.1,0.6,3.4,0.3s2.6-0.8,3.9-1.5c1.3-0.7,2.5-1.4,3.7-2.2c1.1-0.8,2-1.4,2.7-1.9c0.2-0.2,0.5-0.3,0.8-0.3
		c0.3,0,0.6,0,0.8,0.2c0.4,0.2,0.7,0.5,0.8,1c0.1,0.4,0.1,0.8-0.1,1.2C437.1,288.9,437,289.1,436.8,289.3z M425.9,265
		c-0.8,1.6-1.5,3.1-2.2,4.6c-0.7,1.5-1.3,2.9-1.8,4.3c2.1-1.5,4.1-3.1,6.2-4.8c2.1-1.8,4.1-3.6,6-5.5c1.9-1.9,3.6-3.9,5.2-6
		c1.6-2.1,2.9-4.1,4-6.2c1.5-2.9,2.3-5.1,2.5-6.6c0.2-1.5-0.1-2.4-0.9-2.8c-0.5-0.3-1.2-0.2-2,0.3c-0.8,0.5-1.8,1.2-2.8,2.2
		c-1,1-2.2,2.3-3.4,3.8c-1.2,1.5-2.4,3.1-3.6,4.9c-1.2,1.8-2.4,3.7-3.6,5.7C428.1,260.9,427,262.9,425.9,265z"/>
</g>
<g enable-background="new    ">
	<path fill="#107C9E" d="M434.9,296.7c0.1,1,0.4,1.9,0.9,2.8c0.5,0.9,1.3,1.7,2.5,2.4c1.1,0.7,2.4,1.1,3.6,1.1
		c1.3,0,2.6-0.2,3.9-0.6c1.3-0.4,2.6-1,3.9-1.7c1.3-0.7,2.5-1.5,3.7-2.3c0.3-0.2,0.6-0.3,0.9-0.3c0.3,0,0.6,0.1,0.8,0.2
		c0.4,0.2,0.6,0.6,0.7,1c0.1,0.4,0,0.8-0.2,1.1c-0.1,0.1-0.1,0.2-0.2,0.3c-0.1,0.1-0.2,0.1-0.3,0.2c-3.8,2.6-7.3,4.1-10.3,4.8
		s-5.8,0.2-8.2-1.3c-1.5-1-2.7-2.1-3.5-3.4c-0.8-1.3-1.2-2.6-1.3-4.1c-0.1-1.4,0-2.8,0.4-4.2c0.4-1.4,1-2.7,1.7-3.9
		c0.7-1.2,1.6-2.2,2.5-3c0.9-0.8,1.9-1.4,2.9-1.8c1-0.4,2-0.6,3.1-0.5c1,0.1,2,0.4,2.9,0.9c0.5,0.3,1,0.8,1.4,1.3
		c0.4,0.6,0.7,1.2,0.8,1.8c0.2,0.7,0.2,1.4,0.1,2.1s-0.4,1.5-0.9,2.2c-0.6,1-1.3,1.8-2.2,2.4c-0.9,0.6-1.8,1.1-2.8,1.5
		c-1,0.4-2.1,0.6-3.3,0.7S436.1,296.8,434.9,296.7z M435.2,293.7c0.9,0.1,1.8,0.2,2.7,0.1c0.9-0.1,1.7-0.3,2.5-0.6
		c0.8-0.3,1.5-0.7,2.1-1.2c0.6-0.5,1.1-1,1.5-1.7c0.4-0.7,0.6-1.3,0.5-1.9c-0.1-0.6-0.4-1-0.9-1.3c-0.6-0.4-1.3-0.6-1.9-0.5
		c-0.7,0.1-1.3,0.3-1.9,0.7c-0.6,0.4-1.2,0.9-1.8,1.5s-1.1,1.3-1.5,1.9c-0.3,0.4-0.5,0.9-0.7,1.4
		C435.6,292.7,435.4,293.2,435.2,293.7z"/>
</g>
<g>
	<path id="svg_374_6_" fill="#107C9E" d="M385.5,398.1c-94.9-7.4-97.1,99.2-153.8,99.2c-48.8,0-43-51.4-40.8-66.3
		c5.8-0.5,13.3-2.7,22.3-8c24.4-15.4,9.5-45.1,9.5-45.1c-0.5,10.6-14.3,11.1-14.3,11.1c-26,1.1-29.2,21.2-29.7,32.4
		c-3.2-8-11.7-22.8-24.9-21.2c-18.6,1.6-14.3,9-34.5-1.1c0,0-3.2,29.2,27.6,36.1c8,2.1,14.3,1.6,19.1,1.1
		c-1.6,154.9,148.5,189.9,240.8,151.1C513.4,541.8,481,405.5,385.5,398.1L385.5,398.1z"/>
	<path fill="none" stroke="#92D2D5" stroke-width="1.054" stroke-miterlimit="10" d="M425.9,581.6c-24.4-2.1-47.7-14.8-62-37.1"/>
	<ellipse fill="#92D2D5" cx="382.4" cy="405" rx="12.2" ry="4.2"/>
	<path fill="#107C9E" d="M362.2,344c-13.3-5.3-24.4,13.8-13.3,22.8c5.3,4.2,13.3,2.7,18,7.4c4.8,4.8,4.2,9.5,8.5,14.3
		C377.6,369.5,373.4,348.8,362.2,344z"/>
	<path fill="#107C9E" d="M381.8,404v-0.5c-1.1-28.6,5.8-51.4,18-62c4.8-3.7,10.6-6.4,17-6.4c4.8,0,9.5,1.6,12.7,4.8
		c4.2,3.7,6.9,10.6,7.4,17.5c0,6.4-1.6,12.2-5.3,15.9c-3.7,3.7-8.5,4.2-14.3,4.8c-4.2,0.5-8,0.5-12.7,2.1
		c-5.3,2.1-8.5,6.4-11.7,11.1c-1.1,1.1-1.6,2.7-2.1,4.2c-1.6,3.7-3.7,7.4-8.5,9L381.8,404z"/>
</g>
<line fill="none" stroke="#127C9E" stroke-width="0.6923" stroke-miterlimit="10" x1="307.1" y1="108" x2="307.1" y2="148.9"/>
<line fill="none" stroke="#127C9E" stroke-width="0.6923" stroke-miterlimit="10" x1="71.1" y1="572.6" x2="91.2" y2="560.4"/>
<line fill="none" stroke="#127C9E" stroke-width="0.7375" stroke-miterlimit="10" x1="546.8" y1="571" x2="524" y2="557.8"/>
<line fill="none" stroke="#127C9E" stroke-width="0.6923" stroke-miterlimit="10" x1="71.1" y1="244.9" x2="91.2" y2="257.1"/>
<line fill="none" stroke="#127C9E" stroke-width="0.6923" stroke-miterlimit="10" x1="546.8" y1="246.4" x2="522.4" y2="261.3"/>
<line fill="none" stroke="#127C9E" stroke-width="0.6923" stroke-miterlimit="10" x1="307.1" y1="673.9" x2="307.1" y2="714.7"/>
<line fill="none" stroke="#127C9E" stroke-width="0.6923" stroke-miterlimit="10" x1="4.2" y1="411.4" x2="44.5" y2="411.4"/>
<line fill="none" stroke="#127C9E" stroke-width="0.6923" stroke-miterlimit="10" x1="569" y1="411.4" x2="609.3" y2="411.4"/>
</svg>
