<?xml version="1.0" encoding="utf-8"?>
<!-- Generator: Adobe Illustrator 15.0.0, SVG Export Plug-In . SVG Version: 6.00 Build 0)  -->
<!DOCTYPE svg PUBLIC "-//W3C//DTD SVG 1.1//EN" "http://www.w3.org/Graphics/SVG/1.1/DTD/svg11.dtd">
<svg version="1.1" id="Layer_1" xmlns="http://www.w3.org/2000/svg" xmlns:xlink="http://www.w3.org/1999/xlink" x="0px" y="0px"
	 width="134.993px" height="143.737px" viewBox="0 0 134.993 143.737" enable-background="new 0 0 134.993 143.737"
	 xml:space="preserve">
<g>
	<circle fill="none" stroke="#FFFFFF" stroke-miterlimit="10" cx="69.696" cy="13.042" r="5.875"/>
	
		<rect x="66.949" y="15.042" fill="#FFFFFF" stroke="#127C9E" stroke-width="1.0028" stroke-miterlimit="10" width="5.584" height="6.876"/>
	<circle fill="#FFFFFF" stroke="#127C9E" stroke-width="1.0512" stroke-miterlimit="10" cx="69.736" cy="77.826" r="57.167"/>
	<circle fill="#92D2D5" stroke="#127C9E" stroke-width="1.0512" stroke-miterlimit="10" cx="69.987" cy="77.583" r="49.417"/>
	<g>
		<path fill="#107C9E" d="M46.722,55.626c-0.004-0.196-0.003-0.41,0.004-0.644c0.007-0.232,0.019-0.474,0.034-0.723
			s0.04-0.501,0.071-0.755c0.031-0.253,0.072-0.498,0.124-0.733c0.056-0.229,0.133-0.415,0.235-0.556
			c0.102-0.141,0.213-0.241,0.334-0.302c0.121-0.06,0.24-0.088,0.355-0.084s0.223,0.033,0.322,0.089
			c0.101,0.055,0.193,0.131,0.279,0.228s0.161,0.211,0.226,0.342c0.053,0.107,0.114,0.256,0.182,0.446
			c0.068,0.19,0.151,0.383,0.248,0.579c0.056,0.111,0.116,0.22,0.182,0.324c0.066,0.104,0.137,0.191,0.209,0.263
			c0.073,0.07,0.153,0.118,0.241,0.142c0.087,0.024,0.18,0.012,0.277-0.037c0.112-0.056,0.209-0.143,0.289-0.261
			c0.081-0.119,0.148-0.257,0.204-0.415s0.101-0.325,0.135-0.503c0.035-0.177,0.06-0.349,0.075-0.517s0.024-0.326,0.026-0.476
			c0.002-0.148,0.002-0.271-0.001-0.37c-0.006-0.131,0.05-0.225,0.166-0.282c0.079-0.04,0.156-0.043,0.23-0.01
			s0.128,0.082,0.16,0.147c0.019,0.037,0.028,0.076,0.031,0.115c0,0.047,0.001,0.142,0.006,0.285
			c0.004,0.143-0.001,0.314-0.016,0.514c-0.016,0.199-0.042,0.412-0.079,0.641c-0.039,0.228-0.096,0.449-0.173,0.665
			c-0.076,0.215-0.178,0.41-0.303,0.585c-0.125,0.176-0.28,0.31-0.468,0.402c-0.214,0.106-0.409,0.146-0.585,0.12
			s-0.335-0.092-0.477-0.195c-0.142-0.104-0.268-0.236-0.379-0.396s-0.208-0.321-0.288-0.485c-0.042-0.083-0.083-0.175-0.124-0.274
			c-0.04-0.099-0.078-0.197-0.115-0.295c-0.037-0.099-0.072-0.189-0.105-0.275c-0.033-0.085-0.064-0.156-0.092-0.211
			c-0.072-0.146-0.141-0.233-0.206-0.266c-0.064-0.031-0.122-0.034-0.174-0.009c-0.075,0.037-0.139,0.122-0.192,0.256
			c-0.053,0.135-0.097,0.297-0.132,0.489c-0.036,0.191-0.063,0.401-0.081,0.629c-0.019,0.227-0.033,0.451-0.046,0.672
			c-0.013,0.222-0.02,0.43-0.021,0.625c-0.002,0.196-0.003,0.357-0.004,0.486c-0.001,0.244-0.034,0.426-0.102,0.543
			s-0.14,0.195-0.219,0.234c-0.145,0.072-0.284,0.069-0.418-0.007s-0.241-0.195-0.322-0.359l-0.218-0.44
			c-0.438-0.882-0.853-1.724-1.247-2.525s-0.751-1.552-1.071-2.251c-0.32-0.698-0.594-1.339-0.821-1.921s-0.39-1.095-0.487-1.538
			c-0.097-0.441-0.123-0.809-0.078-1.099c0.046-0.289,0.183-0.491,0.411-0.604c0.196-0.098,0.388-0.125,0.577-0.085
			c0.188,0.04,0.371,0.132,0.545,0.274c0.176,0.143,0.343,0.327,0.502,0.554c0.158,0.227,0.305,0.476,0.439,0.746
			c0.272,0.551,0.49,1.115,0.652,1.695c0.162,0.579,0.283,1.162,0.365,1.749c0.082,0.588,0.129,1.177,0.143,1.766
			c0.013,0.59,0.008,1.171-0.016,1.747c0.042,0.083,0.092,0.185,0.15,0.301c0.057,0.116,0.115,0.233,0.173,0.351
			c0.058,0.116,0.112,0.226,0.163,0.328c0.05,0.104,0.091,0.185,0.121,0.246L46.722,55.626z M45.442,53.042
			c-0.017-0.526-0.045-1.033-0.087-1.521c-0.041-0.487-0.105-0.964-0.191-1.426c-0.088-0.463-0.201-0.919-0.344-1.37
			c-0.141-0.449-0.324-0.901-0.549-1.354c-0.036-0.074-0.1-0.191-0.188-0.352c-0.087-0.16-0.19-0.315-0.309-0.466
			c-0.119-0.15-0.245-0.271-0.38-0.361s-0.268-0.104-0.397-0.038c-0.104,0.051-0.158,0.164-0.164,0.338
			c-0.007,0.175,0.021,0.394,0.082,0.657c0.061,0.264,0.149,0.561,0.268,0.893c0.117,0.33,0.251,0.677,0.4,1.039
			c0.15,0.361,0.311,0.729,0.482,1.104c0.171,0.375,0.34,0.736,0.508,1.087c0.167,0.35,0.326,0.677,0.477,0.979
			C45.201,52.555,45.332,52.818,45.442,53.042z"/>
		<path fill="#107C9E" d="M56.582,49.888c-0.006,0.046-0.017,0.143-0.033,0.289c-0.017,0.147-0.044,0.319-0.082,0.515
			c-0.037,0.196-0.088,0.405-0.152,0.628c-0.064,0.222-0.148,0.435-0.253,0.638c-0.104,0.204-0.23,0.386-0.377,0.546
			c-0.147,0.161-0.321,0.277-0.523,0.349c-0.284,0.102-0.556,0.097-0.813-0.016c-0.259-0.112-0.481-0.289-0.668-0.532
			c-0.067,0.339-0.187,0.632-0.357,0.879c-0.172,0.247-0.373,0.412-0.604,0.493c-0.182,0.065-0.357,0.091-0.528,0.078
			c-0.171-0.014-0.329-0.062-0.476-0.146c-0.146-0.083-0.276-0.195-0.39-0.337c-0.115-0.142-0.206-0.309-0.274-0.5
			c-0.138-0.382-0.193-0.742-0.168-1.081c0.026-0.339,0.104-0.642,0.235-0.909c0.13-0.269,0.3-0.495,0.508-0.681
			c0.207-0.185,0.424-0.317,0.649-0.398c0.151-0.054,0.299-0.083,0.441-0.087s0.268,0.002,0.376,0.019s0.194,0.037,0.259,0.062
			s0.1,0.037,0.105,0.04c0.077,0.045,0.127,0.102,0.152,0.17c0.026,0.074,0.023,0.148-0.011,0.225
			c-0.034,0.075-0.088,0.126-0.161,0.152c-0.078,0.028-0.154,0.025-0.228-0.01c-0.014-0.006-0.042-0.017-0.086-0.031
			c-0.045-0.015-0.101-0.026-0.171-0.035c-0.068-0.008-0.148-0.009-0.236-0.001c-0.089,0.006-0.186,0.028-0.288,0.064
			c-0.152,0.055-0.302,0.147-0.448,0.277c-0.147,0.131-0.266,0.293-0.356,0.488c-0.09,0.196-0.145,0.42-0.162,0.672
			c-0.018,0.253,0.027,0.528,0.135,0.828c0.033,0.093,0.076,0.184,0.13,0.272c0.055,0.089,0.12,0.163,0.197,0.224
			c0.077,0.062,0.166,0.102,0.267,0.121c0.102,0.019,0.212,0.007,0.335-0.038c0.088-0.031,0.18-0.097,0.274-0.197
			c0.094-0.1,0.171-0.23,0.233-0.391c0.062-0.16,0.102-0.349,0.121-0.565c0.02-0.218,0-0.46-0.057-0.727
			c-0.016-0.072-0.004-0.142,0.033-0.207c0.037-0.066,0.093-0.112,0.167-0.139c0.068-0.024,0.138-0.02,0.209,0.016
			c0.07,0.037,0.12,0.088,0.15,0.154c0.038,0.091,0.095,0.219,0.171,0.383c0.074,0.164,0.168,0.32,0.279,0.469
			c0.11,0.147,0.24,0.265,0.387,0.351s0.311,0.097,0.492,0.031c0.117-0.042,0.223-0.115,0.315-0.221
			c0.092-0.104,0.175-0.229,0.247-0.375c0.072-0.145,0.135-0.303,0.188-0.474s0.096-0.34,0.13-0.507s0.061-0.325,0.078-0.476
			c0.019-0.15,0.033-0.28,0.044-0.39c0.005-0.062,0.025-0.117,0.062-0.163s0.081-0.078,0.136-0.098
			c0.083-0.03,0.16-0.023,0.234,0.02c0.073,0.042,0.123,0.099,0.147,0.167C56.579,49.811,56.583,49.848,56.582,49.888z"/>
		<path fill="#107C9E" d="M60.021,49.173c0.109,0.467,0.119,0.885,0.028,1.254s-0.237,0.668-0.44,0.896l0.03-0.007
			c0.3-0.069,0.556-0.201,0.771-0.393c0.215-0.192,0.396-0.416,0.545-0.673c0.149-0.257,0.271-0.533,0.369-0.828
			c0.096-0.295,0.177-0.579,0.241-0.851c0.013-0.062,0.039-0.114,0.08-0.155c0.041-0.042,0.09-0.069,0.146-0.082
			c0.086-0.021,0.162-0.006,0.227,0.043c0.065,0.049,0.105,0.108,0.122,0.18c0.011,0.041,0.011,0.081,0.005,0.12
			c-0.063,0.324-0.151,0.657-0.266,0.996c-0.113,0.339-0.264,0.657-0.451,0.952c-0.188,0.296-0.416,0.554-0.686,0.773
			c-0.27,0.221-0.589,0.375-0.959,0.462c-0.269,0.062-0.54,0.082-0.812,0.057c-0.273-0.023-0.527-0.103-0.762-0.235
			c-0.084-0.039-0.158-0.084-0.225-0.136c-0.064-0.052-0.119-0.102-0.163-0.15c-0.013-0.008-0.02-0.017-0.022-0.026
			c-0.041-0.039-0.067-0.083-0.079-0.134c-0.016-0.066-0.007-0.133,0.026-0.199c0.002-0.011,0.006-0.019,0.01-0.022
			c0.005-0.004,0.01-0.009,0.013-0.016c0.04-0.057,0.09-0.095,0.149-0.115l0.023-0.005c0.024-0.005,0.043-0.007,0.055-0.004
			c0.005-0.002,0.01-0.001,0.012,0.001c0.004,0.002,0.008,0.002,0.014,0.001c0.015-0.004,0.033-0.003,0.057,0.002
			c0.006,0.004,0.012,0.006,0.017,0.004c0.053,0.021,0.1,0.05,0.14,0.088c0.051,0.053,0.104,0.099,0.162,0.14
			c0.049,0.031,0.105,0.057,0.17,0.076c0.063,0.021,0.131,0.021,0.202,0.005c0.126-0.029,0.244-0.097,0.354-0.203
			c0.108-0.105,0.197-0.241,0.266-0.407c0.068-0.165,0.11-0.357,0.127-0.575c0.016-0.218-0.005-0.45-0.063-0.699
			c-0.043-0.183-0.098-0.334-0.166-0.454c-0.068-0.121-0.142-0.215-0.219-0.282c-0.078-0.067-0.153-0.112-0.229-0.135
			c-0.074-0.023-0.143-0.027-0.203-0.013c-0.137,0.032-0.259,0.135-0.365,0.31s-0.202,0.387-0.288,0.637
			c-0.086,0.251-0.165,0.523-0.238,0.818c-0.072,0.295-0.148,0.583-0.228,0.863c0.182,0.823,0.352,1.61,0.508,2.36
			s0.287,1.449,0.394,2.099c0.106,0.648,0.182,1.241,0.227,1.776s0.045,1.002-0.001,1.399c-0.046,0.399-0.143,0.72-0.289,0.963
			s-0.359,0.396-0.639,0.462c-0.085,0.02-0.188,0.025-0.309,0.016c-0.119-0.01-0.24-0.057-0.362-0.144s-0.239-0.224-0.353-0.411
			s-0.21-0.451-0.289-0.79c-0.102-0.432-0.164-0.944-0.191-1.537c-0.025-0.593-0.016-1.23,0.031-1.912
			c0.046-0.683,0.126-1.39,0.238-2.121c0.111-0.732,0.256-1.453,0.433-2.163c-0.041-0.178-0.081-0.354-0.118-0.526
			c-0.038-0.173-0.076-0.341-0.114-0.503c-0.048,0.092-0.117,0.147-0.209,0.169c-0.086,0.021-0.162,0.006-0.227-0.043
			c-0.065-0.049-0.106-0.109-0.122-0.18c-0.009-0.036-0.01-0.075-0.004-0.12c0.056-0.307,0.088-0.594,0.096-0.86
			c0.007-0.267,0.005-0.499-0.007-0.696c-0.012-0.198-0.027-0.354-0.048-0.467c-0.021-0.112-0.033-0.171-0.034-0.176
			c-0.018-0.077-0.005-0.149,0.038-0.218c0.042-0.069,0.104-0.113,0.186-0.132c0.076-0.018,0.148-0.007,0.217,0.033
			s0.111,0.102,0.131,0.182l0.545,2.337c0.07-0.226,0.142-0.448,0.213-0.668c0.072-0.221,0.154-0.421,0.248-0.604
			s0.205-0.338,0.333-0.467c0.127-0.129,0.282-0.215,0.466-0.258c0.172-0.04,0.338-0.036,0.5,0.012
			c0.16,0.049,0.309,0.132,0.443,0.25c0.134,0.118,0.251,0.269,0.35,0.451C59.894,48.747,59.969,48.95,60.021,49.173z
			 M57.214,52.404c-0.118,0.616-0.212,1.229-0.281,1.84c-0.068,0.609-0.111,1.191-0.129,1.747c-0.018,0.554-0.011,1.069,0.02,1.543
			c0.031,0.475,0.086,0.885,0.168,1.229c0.02,0.085,0.046,0.178,0.08,0.277c0.034,0.099,0.076,0.188,0.127,0.267
			c0.051,0.08,0.11,0.142,0.18,0.188c0.07,0.045,0.15,0.057,0.242,0.036c0.167-0.039,0.286-0.179,0.359-0.417
			c0.072-0.239,0.108-0.548,0.108-0.925s-0.026-0.804-0.079-1.28c-0.052-0.478-0.121-0.974-0.207-1.488
			c-0.086-0.516-0.182-1.032-0.285-1.551C57.412,53.353,57.31,52.864,57.214,52.404z"/>
		<path fill="#107C9E" d="M65.615,48.38c0.055,0.477,0.015,0.892-0.118,1.247c-0.132,0.356-0.313,0.637-0.541,0.841l0.031-0.004
			c0.305-0.034,0.575-0.135,0.811-0.301c0.235-0.165,0.442-0.367,0.62-0.604c0.177-0.238,0.33-0.498,0.461-0.78
			s0.244-0.555,0.34-0.817c0.02-0.06,0.052-0.107,0.098-0.145c0.046-0.036,0.097-0.058,0.153-0.064
			c0.089-0.011,0.162,0.013,0.22,0.069c0.06,0.057,0.093,0.12,0.102,0.192c0.005,0.042,0.001,0.082-0.011,0.12
			c-0.101,0.315-0.226,0.635-0.378,0.958c-0.152,0.324-0.339,0.622-0.559,0.894c-0.222,0.271-0.478,0.502-0.771,0.689
			c-0.293,0.188-0.629,0.304-1.006,0.347c-0.274,0.031-0.546,0.019-0.814-0.037c-0.269-0.057-0.511-0.164-0.729-0.322
			c-0.079-0.049-0.148-0.103-0.207-0.161c-0.06-0.06-0.107-0.115-0.145-0.169c-0.013-0.009-0.019-0.019-0.02-0.029
			c-0.036-0.043-0.058-0.091-0.062-0.142c-0.008-0.067,0.008-0.133,0.048-0.194c0.004-0.012,0.009-0.019,0.014-0.021
			s0.01-0.007,0.014-0.014c0.047-0.053,0.101-0.084,0.162-0.097l0.023-0.002c0.025-0.004,0.044-0.003,0.056,0.001
			c0.005,0,0.009,0,0.012,0.003c0.002,0.002,0.007,0.003,0.012,0.002c0.016-0.002,0.034,0.002,0.057,0.01
			c0.006,0.004,0.011,0.007,0.017,0.006c0.05,0.025,0.093,0.06,0.129,0.104c0.044,0.058,0.091,0.11,0.144,0.156
			c0.047,0.036,0.1,0.068,0.16,0.096c0.062,0.027,0.128,0.036,0.2,0.028c0.13-0.015,0.255-0.068,0.375-0.16
			c0.12-0.093,0.224-0.217,0.312-0.374c0.087-0.156,0.15-0.342,0.192-0.557c0.04-0.214,0.047-0.448,0.018-0.702
			c-0.021-0.186-0.058-0.343-0.112-0.471c-0.053-0.127-0.115-0.229-0.184-0.305c-0.069-0.076-0.14-0.13-0.211-0.16
			c-0.071-0.032-0.139-0.044-0.201-0.036c-0.14,0.015-0.272,0.104-0.398,0.265s-0.246,0.361-0.36,0.6
			c-0.114,0.237-0.225,0.5-0.331,0.785c-0.107,0.283-0.215,0.561-0.326,0.83c0.085,0.84,0.162,1.642,0.229,2.403
			c0.069,0.764,0.118,1.473,0.149,2.13c0.029,0.657,0.035,1.254,0.018,1.791c-0.018,0.536-0.072,1-0.164,1.391
			s-0.225,0.697-0.398,0.922s-0.402,0.353-0.688,0.385c-0.088,0.01-0.19,0.004-0.309-0.02s-0.232-0.085-0.344-0.185
			c-0.111-0.101-0.212-0.251-0.303-0.449c-0.09-0.2-0.156-0.473-0.195-0.82c-0.05-0.439-0.054-0.955-0.011-1.547
			c0.043-0.593,0.127-1.225,0.253-1.896c0.125-0.673,0.286-1.366,0.482-2.081c0.196-0.714,0.424-1.413,0.681-2.098
			c-0.021-0.182-0.039-0.359-0.057-0.536c-0.018-0.176-0.035-0.347-0.054-0.513c-0.059,0.085-0.135,0.133-0.228,0.144
			c-0.089,0.011-0.162-0.013-0.221-0.069c-0.059-0.056-0.092-0.12-0.101-0.192c-0.004-0.037,0-0.076,0.01-0.119
			c0.092-0.299,0.157-0.58,0.195-0.844c0.038-0.265,0.063-0.495,0.074-0.693c0.012-0.197,0.014-0.354,0.006-0.468
			c-0.008-0.115-0.012-0.174-0.012-0.18c-0.01-0.077,0.012-0.148,0.062-0.211c0.05-0.064,0.116-0.101,0.199-0.109
			c0.078-0.009,0.148,0.011,0.211,0.059c0.063,0.048,0.1,0.112,0.109,0.195l0.271,2.383c0.096-0.215,0.191-0.428,0.289-0.639
			c0.096-0.21,0.201-0.399,0.316-0.569c0.113-0.171,0.241-0.312,0.383-0.426s0.307-0.18,0.492-0.201
			c0.177-0.021,0.342,0.004,0.496,0.069c0.154,0.066,0.291,0.166,0.411,0.299c0.12,0.134,0.219,0.297,0.296,0.49
			C65.537,47.942,65.588,48.152,65.615,48.38z M62.451,51.264c-0.188,0.598-0.352,1.195-0.491,1.794
			c-0.14,0.597-0.249,1.171-0.331,1.72s-0.135,1.061-0.16,1.535c-0.023,0.475-0.017,0.889,0.023,1.24
			c0.01,0.088,0.026,0.184,0.048,0.285c0.022,0.103,0.054,0.195,0.095,0.28c0.042,0.085,0.094,0.153,0.158,0.206
			c0.063,0.054,0.142,0.075,0.234,0.064c0.171-0.02,0.307-0.145,0.406-0.373s0.172-0.53,0.215-0.905
			c0.045-0.374,0.067-0.802,0.071-1.281c0.003-0.48-0.009-0.981-0.033-1.502c-0.026-0.522-0.061-1.046-0.104-1.573
			C62.537,52.228,62.494,51.73,62.451,51.264z"/>
		<path fill="#107C9E" d="M70.19,50.523c0.182-0.183,0.366-0.369,0.552-0.56c0.188-0.191,0.369-0.392,0.546-0.6
			c0.176-0.209,0.341-0.428,0.493-0.654c0.152-0.228,0.289-0.469,0.407-0.725c0.026-0.058,0.062-0.101,0.109-0.129
			c0.047-0.029,0.099-0.043,0.155-0.044c0.09,0,0.161,0.031,0.217,0.093c0.055,0.062,0.082,0.133,0.082,0.211
			c0,0.042-0.008,0.08-0.023,0.117c-0.16,0.339-0.344,0.65-0.551,0.932c-0.207,0.282-0.426,0.55-0.653,0.803
			c-0.229,0.254-0.459,0.499-0.692,0.737c-0.234,0.238-0.457,0.478-0.67,0.718c-0.02,0.359-0.018,0.72,0.004,1.082
			c0.022,0.362,0.034,0.745,0.035,1.152c0.002,0.333-0.008,0.666-0.027,1c-0.02,0.333-0.053,0.652-0.098,0.957
			c-0.046,0.305-0.109,0.59-0.188,0.856c-0.08,0.266-0.183,0.497-0.306,0.692c-0.125,0.195-0.27,0.35-0.437,0.463
			c-0.167,0.112-0.361,0.169-0.585,0.17c-0.37,0.001-0.654-0.126-0.854-0.38c-0.199-0.255-0.299-0.611-0.301-1.069
			c0-0.25,0.026-0.519,0.079-0.806c0.054-0.286,0.13-0.582,0.228-0.887c0.098-0.306,0.215-0.614,0.352-0.927
			c0.138-0.313,0.286-0.618,0.447-0.916c0.16-0.298,0.331-0.581,0.512-0.85c0.182-0.27,0.365-0.514,0.552-0.732
			c0.01-0.25,0.021-0.509,0.032-0.777c0.013-0.269,0.026-0.518,0.041-0.747c-0.135,0.24-0.302,0.434-0.502,0.58
			c-0.2,0.147-0.42,0.221-0.659,0.222c-0.396,0.001-0.706-0.13-0.932-0.396c-0.225-0.265-0.338-0.629-0.34-1.093
			c-0.001-0.338,0.03-0.646,0.095-0.926c0.063-0.278,0.133-0.519,0.208-0.72s0.144-0.354,0.205-0.461
			c0.062-0.107,0.094-0.158,0.094-0.153c0.057-0.089,0.138-0.134,0.241-0.134c0.088,0,0.16,0.029,0.216,0.089
			c0.055,0.061,0.082,0.129,0.082,0.207c0.001,0.058-0.015,0.109-0.046,0.156c0.005-0.005-0.02,0.039-0.073,0.13
			c-0.055,0.091-0.114,0.223-0.179,0.395c-0.064,0.173-0.123,0.379-0.178,0.618c-0.054,0.24-0.08,0.503-0.078,0.789
			c0,0.287,0.054,0.511,0.158,0.672s0.274,0.241,0.509,0.24c0.296-0.001,0.563-0.223,0.802-0.663s0.438-1.081,0.603-1.92
			c0.011-0.068,0.041-0.124,0.093-0.169c0.053-0.044,0.115-0.066,0.188-0.067c0.084,0,0.153,0.029,0.212,0.086
			c0.058,0.058,0.086,0.127,0.086,0.21c0.001,0.016-0.01,0.108-0.03,0.277c-0.02,0.17-0.044,0.396-0.071,0.677
			c-0.028,0.281-0.057,0.608-0.087,0.98C70.234,49.704,70.208,50.103,70.19,50.523z M69.572,52.183
			c-0.234,0.339-0.447,0.696-0.643,1.072c-0.193,0.376-0.359,0.749-0.499,1.119s-0.247,0.725-0.324,1.064
			c-0.077,0.338-0.114,0.641-0.114,0.906c0.002,0.271,0.047,0.482,0.135,0.636c0.09,0.153,0.23,0.229,0.424,0.229
			c0.172-0.001,0.324-0.086,0.456-0.256s0.243-0.411,0.333-0.724c0.09-0.313,0.158-0.692,0.203-1.138
			c0.045-0.446,0.066-0.944,0.064-1.496c0-0.225-0.006-0.451-0.014-0.68C69.584,52.688,69.577,52.442,69.572,52.183z"/>
		<path fill="#107C9E" d="M77.641,48.869c-0.049,0.268-0.119,0.532-0.209,0.797c-0.091,0.265-0.211,0.497-0.359,0.699
			s-0.329,0.359-0.542,0.473c-0.214,0.112-0.465,0.15-0.754,0.115c-0.182-0.023-0.338-0.07-0.467-0.142
			c-0.131-0.071-0.24-0.158-0.33-0.261c-0.09-0.104-0.161-0.218-0.214-0.342c-0.053-0.125-0.094-0.254-0.125-0.39
			c-0.218,0.277-0.46,0.482-0.726,0.614s-0.521,0.184-0.763,0.153c-0.196-0.023-0.369-0.082-0.518-0.174s-0.271-0.211-0.365-0.356
			s-0.162-0.315-0.2-0.51c-0.039-0.193-0.045-0.406-0.015-0.64c0.047-0.388,0.124-0.718,0.229-0.99
			c0.104-0.273,0.212-0.494,0.319-0.665c0.107-0.17,0.245-0.337,0.412-0.5c0.029-0.027,0.064-0.048,0.105-0.058
			c0.041-0.011,0.081-0.014,0.123-0.009c0.083,0.011,0.147,0.049,0.194,0.115s0.065,0.138,0.056,0.216
			c-0.007,0.057-0.035,0.115-0.085,0.178c-0.024,0.028-0.072,0.083-0.143,0.163c-0.07,0.081-0.146,0.192-0.227,0.334
			c-0.08,0.143-0.159,0.319-0.234,0.53c-0.077,0.211-0.132,0.464-0.169,0.758c-0.038,0.306-0.005,0.544,0.1,0.718
			c0.104,0.173,0.268,0.273,0.49,0.301c0.108,0.014,0.23-0.001,0.367-0.045c0.137-0.043,0.27-0.12,0.398-0.229
			c0.13-0.11,0.248-0.256,0.354-0.437c0.106-0.182,0.186-0.399,0.239-0.655l0.267-1.321c0.014-0.077,0.055-0.137,0.121-0.182
			c0.065-0.044,0.137-0.062,0.215-0.053c0.088,0.012,0.153,0.053,0.197,0.124c0.043,0.07,0.061,0.147,0.051,0.23l-0.245,1.269
			c-0.05,0.272-0.069,0.508-0.061,0.709c0.01,0.2,0.045,0.369,0.106,0.505c0.062,0.137,0.146,0.241,0.252,0.315
			c0.106,0.073,0.229,0.118,0.369,0.136c0.187,0.023,0.351-0.012,0.493-0.104s0.265-0.227,0.365-0.403
			c0.101-0.176,0.183-0.385,0.247-0.627c0.064-0.241,0.113-0.499,0.146-0.772c0.041-0.326,0.057-0.599,0.047-0.82
			c-0.008-0.222-0.009-0.369,0-0.441c0.01-0.077,0.047-0.143,0.111-0.194c0.064-0.053,0.138-0.074,0.221-0.063
			c0.072,0.009,0.131,0.039,0.178,0.089c0.046,0.051,0.072,0.112,0.078,0.188c0.004,0.021,0.012,0.082,0.025,0.184
			s0.035,0.224,0.064,0.366s0.072,0.295,0.128,0.457s0.129,0.313,0.219,0.456s0.198,0.265,0.325,0.367
			c0.126,0.103,0.277,0.164,0.453,0.186c0.098,0.013,0.184,0.004,0.259-0.026s0.139-0.068,0.191-0.114s0.094-0.091,0.123-0.134
			c0.029-0.044,0.046-0.07,0.053-0.08c0.033-0.054,0.076-0.095,0.129-0.122c0.054-0.027,0.108-0.038,0.166-0.03
			c0.088,0.011,0.155,0.052,0.2,0.123c0.047,0.071,0.066,0.144,0.057,0.215c-0.008,0.062-0.045,0.142-0.111,0.239
			c-0.068,0.096-0.156,0.187-0.267,0.27c-0.11,0.084-0.24,0.151-0.392,0.203c-0.15,0.053-0.312,0.067-0.482,0.047
			c-0.149-0.019-0.286-0.058-0.41-0.118c-0.123-0.06-0.236-0.133-0.339-0.219c-0.103-0.087-0.193-0.182-0.275-0.287
			C77.779,49.091,77.706,48.982,77.641,48.869z"/>
		<path fill="#107C9E" d="M79.743,50.81c0.126-0.149,0.269-0.31,0.428-0.479c0.158-0.171,0.326-0.345,0.503-0.521
			c0.176-0.177,0.359-0.35,0.551-0.52c0.19-0.17,0.383-0.327,0.577-0.469c0.193-0.137,0.374-0.226,0.544-0.263
			c0.169-0.039,0.319-0.041,0.45-0.006c0.131,0.034,0.238,0.092,0.322,0.171s0.146,0.172,0.185,0.279
			c0.038,0.107,0.058,0.226,0.059,0.355c0,0.129-0.019,0.265-0.056,0.405c-0.031,0.116-0.083,0.268-0.158,0.455
			c-0.074,0.188-0.14,0.388-0.196,0.6c-0.032,0.12-0.058,0.241-0.076,0.362c-0.02,0.122-0.025,0.233-0.018,0.336
			c0.008,0.102,0.037,0.19,0.088,0.266c0.049,0.075,0.127,0.127,0.233,0.155c0.12,0.032,0.25,0.03,0.39-0.005
			c0.139-0.036,0.281-0.095,0.427-0.178c0.146-0.082,0.29-0.179,0.433-0.288c0.143-0.111,0.275-0.223,0.398-0.34
			c0.121-0.114,0.232-0.228,0.332-0.339c0.101-0.111,0.182-0.204,0.245-0.278c0.081-0.103,0.184-0.138,0.31-0.104
			c0.086,0.022,0.146,0.071,0.181,0.146c0.033,0.073,0.041,0.146,0.022,0.216c-0.011,0.04-0.028,0.076-0.053,0.107
			c-0.031,0.035-0.092,0.107-0.184,0.218s-0.208,0.235-0.351,0.375c-0.143,0.141-0.304,0.283-0.482,0.43s-0.368,0.275-0.567,0.386
			c-0.2,0.111-0.404,0.192-0.615,0.24c-0.209,0.05-0.415,0.047-0.616-0.007c-0.231-0.061-0.404-0.16-0.52-0.295
			c-0.114-0.137-0.19-0.29-0.229-0.462s-0.046-0.354-0.023-0.548s0.056-0.379,0.104-0.555c0.024-0.091,0.054-0.187,0.089-0.288
			c0.035-0.101,0.07-0.2,0.108-0.298c0.036-0.098,0.07-0.19,0.101-0.276c0.031-0.086,0.056-0.159,0.072-0.22
			c0.041-0.156,0.047-0.268,0.02-0.334s-0.07-0.108-0.125-0.122c-0.08-0.022-0.185,0-0.312,0.065
			c-0.128,0.066-0.269,0.159-0.423,0.28c-0.153,0.12-0.312,0.26-0.476,0.419c-0.163,0.158-0.322,0.316-0.478,0.475
			c-0.156,0.157-0.299,0.31-0.43,0.455c-0.13,0.146-0.237,0.267-0.322,0.363c-0.162,0.183-0.308,0.296-0.435,0.341
			c-0.128,0.044-0.234,0.054-0.32,0.031c-0.156-0.041-0.259-0.135-0.309-0.28c-0.051-0.146-0.052-0.307-0.006-0.482l0.127-0.476
			c0.254-0.951,0.497-1.857,0.73-2.721c0.232-0.861,0.459-1.661,0.681-2.397c0.22-0.736,0.437-1.398,0.65-1.985
			c0.213-0.587,0.429-1.079,0.648-1.476c0.219-0.397,0.441-0.69,0.667-0.878c0.225-0.188,0.461-0.249,0.708-0.184
			c0.21,0.057,0.374,0.162,0.489,0.317c0.115,0.154,0.191,0.343,0.229,0.566c0.038,0.223,0.041,0.472,0.012,0.746
			c-0.03,0.275-0.085,0.559-0.163,0.851c-0.158,0.594-0.368,1.162-0.628,1.704c-0.261,0.542-0.555,1.062-0.881,1.556
			c-0.326,0.496-0.678,0.97-1.058,1.421c-0.379,0.451-0.767,0.885-1.164,1.302c-0.024,0.091-0.053,0.199-0.087,0.325
			c-0.033,0.126-0.066,0.251-0.1,0.377c-0.034,0.126-0.065,0.244-0.096,0.354c-0.029,0.111-0.053,0.199-0.07,0.265L79.743,50.81z
			 M80.486,48.024c0.335-0.406,0.647-0.807,0.939-1.201c0.291-0.394,0.556-0.793,0.796-1.198s0.456-0.823,0.646-1.255
			s0.351-0.892,0.481-1.379c0.021-0.081,0.052-0.211,0.091-0.388c0.04-0.179,0.064-0.363,0.075-0.555
			c0.012-0.191-0.005-0.365-0.047-0.522c-0.041-0.156-0.133-0.254-0.273-0.291c-0.111-0.029-0.227,0.02-0.347,0.146
			s-0.244,0.31-0.372,0.547c-0.129,0.238-0.258,0.521-0.388,0.848c-0.13,0.325-0.259,0.674-0.385,1.045
			c-0.125,0.371-0.247,0.754-0.366,1.147c-0.118,0.395-0.23,0.778-0.336,1.152c-0.105,0.373-0.201,0.723-0.288,1.05
			C80.625,47.499,80.55,47.783,80.486,48.024z"/>
		<path fill="#107C9E" d="M90.97,53.026c-0.035,0.03-0.107,0.096-0.217,0.195c-0.109,0.099-0.244,0.21-0.401,0.333
			c-0.157,0.121-0.335,0.244-0.529,0.368c-0.195,0.125-0.399,0.229-0.612,0.312c-0.213,0.084-0.428,0.138-0.644,0.16
			c-0.217,0.023-0.425-0.005-0.622-0.084c-0.281-0.111-0.481-0.295-0.602-0.55c-0.119-0.255-0.17-0.535-0.148-0.841
			c-0.273,0.21-0.557,0.352-0.85,0.423c-0.292,0.071-0.552,0.062-0.779-0.028c-0.179-0.071-0.328-0.169-0.447-0.292
			s-0.206-0.264-0.26-0.423c-0.055-0.159-0.078-0.33-0.07-0.512s0.049-0.366,0.125-0.556c0.15-0.377,0.347-0.685,0.589-0.921
			c0.243-0.237,0.502-0.413,0.777-0.527c0.276-0.115,0.553-0.173,0.831-0.175c0.277-0.001,0.527,0.043,0.75,0.131
			c0.15,0.06,0.28,0.135,0.39,0.227c0.109,0.091,0.199,0.179,0.27,0.263c0.071,0.084,0.122,0.156,0.154,0.217
			c0.031,0.061,0.049,0.094,0.052,0.101c0.028,0.084,0.029,0.16,0.002,0.228c-0.029,0.073-0.081,0.127-0.156,0.161
			c-0.076,0.034-0.149,0.037-0.223,0.008c-0.076-0.03-0.132-0.083-0.164-0.157c-0.006-0.014-0.021-0.04-0.043-0.081
			c-0.023-0.039-0.059-0.086-0.104-0.139c-0.047-0.052-0.106-0.104-0.177-0.158c-0.071-0.054-0.158-0.101-0.26-0.141
			c-0.149-0.06-0.323-0.09-0.52-0.089c-0.196,0-0.393,0.044-0.59,0.131s-0.386,0.219-0.566,0.396
			c-0.18,0.179-0.328,0.415-0.446,0.71c-0.036,0.092-0.063,0.189-0.082,0.291s-0.019,0.201-0.001,0.298s0.058,0.186,0.121,0.268
			c0.063,0.081,0.155,0.145,0.276,0.193c0.087,0.034,0.198,0.046,0.335,0.033c0.137-0.014,0.282-0.06,0.435-0.14
			c0.151-0.079,0.307-0.193,0.465-0.345c0.157-0.149,0.304-0.344,0.438-0.582c0.036-0.063,0.091-0.108,0.162-0.133
			c0.071-0.025,0.144-0.022,0.217,0.006c0.067,0.027,0.116,0.077,0.146,0.15s0.033,0.146,0.012,0.215
			c-0.031,0.094-0.074,0.228-0.126,0.4s-0.085,0.352-0.1,0.536s0.005,0.357,0.058,0.52c0.055,0.161,0.171,0.277,0.35,0.349
			c0.116,0.046,0.243,0.061,0.382,0.042c0.139-0.017,0.283-0.056,0.434-0.116c0.15-0.062,0.302-0.139,0.454-0.231
			c0.152-0.095,0.296-0.192,0.432-0.295c0.137-0.103,0.262-0.205,0.374-0.306c0.113-0.101,0.21-0.188,0.29-0.263
			c0.045-0.044,0.097-0.071,0.154-0.082s0.113-0.005,0.166,0.016c0.082,0.033,0.137,0.09,0.164,0.171
			c0.026,0.08,0.026,0.154-0.001,0.223C91.018,52.967,90.998,52.998,90.97,53.026z"/>
		<path fill="#107C9E" d="M94.399,54.939c-0.106,0.08-0.235,0.174-0.386,0.28c-0.151,0.106-0.316,0.214-0.495,0.321
			c-0.178,0.106-0.367,0.207-0.567,0.301c-0.2,0.093-0.402,0.165-0.607,0.215c-0.204,0.05-0.406,0.072-0.604,0.066
			c-0.199-0.006-0.39-0.055-0.569-0.147c-0.278-0.143-0.473-0.352-0.584-0.625c-0.111-0.274-0.164-0.585-0.161-0.936
			c0.005-0.35,0.055-0.723,0.151-1.121c0.096-0.398,0.216-0.794,0.359-1.186c0.143-0.393,0.295-0.766,0.457-1.122
			c0.162-0.355,0.313-0.668,0.451-0.937c0.2-0.389,0.42-0.785,0.66-1.189c0.239-0.403,0.489-0.79,0.75-1.16
			c0.26-0.369,0.525-0.711,0.794-1.023s0.532-0.573,0.788-0.78c0.256-0.208,0.501-0.352,0.734-0.431
			c0.234-0.079,0.449-0.068,0.644,0.031c0.152,0.078,0.271,0.186,0.358,0.32c0.086,0.136,0.128,0.305,0.129,0.51
			c0,0.205-0.044,0.449-0.131,0.732c-0.088,0.283-0.228,0.612-0.42,0.987c-0.238,0.463-0.533,0.917-0.884,1.36
			s-0.738,0.872-1.162,1.286c-0.425,0.415-0.878,0.812-1.36,1.193c-0.483,0.382-0.977,0.742-1.478,1.082
			c-0.187,0.647-0.27,1.188-0.248,1.625c0.022,0.436,0.169,0.724,0.443,0.864c0.185,0.095,0.401,0.114,0.647,0.057
			c0.246-0.059,0.492-0.15,0.738-0.275s0.477-0.263,0.691-0.413s0.385-0.272,0.509-0.367c0.047-0.033,0.098-0.053,0.153-0.057
			c0.055-0.004,0.107,0.007,0.158,0.033c0.078,0.04,0.129,0.101,0.148,0.182c0.02,0.08,0.012,0.155-0.023,0.225
			C94.47,54.87,94.441,54.902,94.399,54.939z M92.353,50.356c-0.151,0.296-0.291,0.585-0.418,0.865s-0.242,0.552-0.348,0.813
			c0.387-0.274,0.777-0.579,1.172-0.913c0.394-0.333,0.769-0.682,1.126-1.046c0.356-0.364,0.686-0.739,0.987-1.126
			s0.553-0.774,0.752-1.164c0.281-0.546,0.438-0.961,0.472-1.242c0.034-0.281-0.023-0.46-0.172-0.536
			c-0.098-0.05-0.226-0.031-0.385,0.057c-0.16,0.088-0.338,0.228-0.536,0.418c-0.197,0.191-0.41,0.428-0.637,0.71
			c-0.227,0.281-0.455,0.592-0.685,0.931c-0.23,0.339-0.459,0.698-0.687,1.079C92.767,49.582,92.553,49.967,92.353,50.356z"/>
		<path fill="#107C9E" d="M94.044,56.33c0.013,0.186,0.067,0.362,0.166,0.531c0.098,0.168,0.252,0.318,0.465,0.45
			c0.216,0.135,0.445,0.206,0.688,0.212c0.241,0.006,0.487-0.029,0.737-0.106c0.251-0.077,0.498-0.184,0.742-0.319
			c0.244-0.137,0.478-0.28,0.7-0.43c0.053-0.035,0.105-0.052,0.16-0.052c0.056,0,0.107,0.016,0.156,0.046
			c0.075,0.047,0.119,0.111,0.133,0.193s0.001,0.153-0.037,0.216c-0.016,0.021-0.028,0.039-0.043,0.053
			c-0.014,0.013-0.031,0.024-0.051,0.037c-0.724,0.481-1.371,0.78-1.943,0.896s-1.09,0.037-1.55-0.237
			c-0.292-0.182-0.509-0.396-0.651-0.641c-0.142-0.245-0.225-0.499-0.251-0.764c-0.025-0.265-0.001-0.53,0.073-0.797
			s0.181-0.513,0.321-0.738s0.298-0.416,0.472-0.571c0.173-0.156,0.356-0.272,0.548-0.349c0.192-0.077,0.385-0.11,0.578-0.102
			c0.193,0.011,0.376,0.069,0.549,0.177c0.102,0.063,0.188,0.146,0.263,0.251c0.072,0.104,0.125,0.22,0.156,0.346
			c0.031,0.127,0.037,0.262,0.018,0.402c-0.021,0.141-0.074,0.281-0.163,0.423c-0.113,0.182-0.249,0.333-0.411,0.453
			c-0.161,0.121-0.338,0.216-0.531,0.285c-0.193,0.07-0.401,0.115-0.623,0.137C94.492,56.354,94.269,56.354,94.044,56.33z
			 M94.113,55.774c0.173,0.028,0.344,0.033,0.512,0.016c0.168-0.019,0.324-0.057,0.47-0.113c0.146-0.056,0.277-0.13,0.395-0.219
			c0.117-0.09,0.213-0.194,0.287-0.313c0.083-0.133,0.112-0.254,0.089-0.363c-0.024-0.11-0.08-0.193-0.168-0.248
			c-0.12-0.074-0.242-0.104-0.367-0.091c-0.125,0.015-0.248,0.058-0.367,0.131s-0.23,0.167-0.337,0.283
			c-0.105,0.114-0.198,0.237-0.278,0.364c-0.049,0.08-0.094,0.169-0.133,0.267C94.173,55.586,94.141,55.682,94.113,55.774z"/>
	</g>
	<g>
		<path id="svg_374_6_" fill="#107C9E" d="M84.757,75.425C66.814,74.001,66.453,94.113,55.76,94.113
			c-9.161,0-8.147-9.729-7.669-12.519c1.061-0.077,2.472-0.459,4.207-1.533c4.637-2.872,1.831-8.463,1.831-8.463
			c-0.091,1.957-2.719,2.135-2.719,2.135c-4.912,0.227-5.469,4.029-5.634,6.052c-0.646-1.507-2.188-4.265-4.748-4.032
			c-3.46,0.315-2.746,1.682-6.455-0.21c0,0-0.573,5.458,5.168,6.845c1.493,0.359,2.669,0.346,3.582,0.15
			c-0.343,29.164,27.983,35.822,45.421,28.483C108.829,102.569,102.699,76.849,84.757,75.425L84.757,75.425z"/>
		<path fill="none" stroke="#92D2D5" stroke-width="1.054" stroke-miterlimit="10" d="M92.388,110.08
			c-4.62-0.361-9.026-2.79-11.748-6.977"/>
		<ellipse fill="#92D2D5" cx="84.116" cy="76.787" rx="2.328" ry="0.832"/>
		<path fill-rule="evenodd" clip-rule="evenodd" fill="#107C9E" d="M80.331,65.281c-2.484-1.047-4.596,2.609-2.479,4.265
			c0.967,0.757,2.488,0.521,3.371,1.389c0.885,0.867,0.758,1.798,1.586,2.678C83.199,70.099,82.465,66.181,80.331,65.281z"/>
		<path fill="#107C9E" d="M84.092,76.587l-0.004-0.109c-0.162-5.43,1.086-9.699,3.427-11.717c0.856-0.738,2.042-1.178,3.171-1.178
			c0.942,0,1.785,0.295,2.438,0.854c0.783,0.672,1.322,1.953,1.373,3.264c0.048,1.217-0.324,2.283-1.045,3.006
			c-0.726,0.725-1.635,0.798-2.688,0.883c-0.754,0.061-1.533,0.123-2.359,0.43c-0.971,0.362-1.607,1.188-2.227,2.074
			c-0.156,0.223-0.284,0.48-0.42,0.753c-0.33,0.661-0.705,1.412-1.562,1.706L84.092,76.587z"/>
	</g>
	
		<line fill="none" stroke="#127C9E" stroke-width="0.6923" stroke-miterlimit="10" x1="69.905" y1="20.752" x2="69.905" y2="28.416"/>
	
		<line fill="none" stroke="#127C9E" stroke-width="0.6923" stroke-miterlimit="10" x1="25.416" y1="108.336" x2="29.237" y2="106.064"/>
	
		<line fill="none" stroke="#127C9E" stroke-width="0.7375" stroke-miterlimit="10" x1="115.158" y1="108.085" x2="110.802" y2="105.541"/>
	
		<line fill="none" stroke="#127C9E" stroke-width="0.6923" stroke-miterlimit="10" x1="25.416" y1="46.587" x2="29.237" y2="48.858"/>
	
		<line fill="none" stroke="#127C9E" stroke-width="0.6923" stroke-miterlimit="10" x1="115.158" y1="46.838" x2="110.573" y2="49.666"/>
	
		<line fill="none" stroke="#127C9E" stroke-width="0.6923" stroke-miterlimit="10" x1="69.905" y1="127.501" x2="69.905" y2="135.165"/>
	
		<line fill="none" stroke="#127C9E" stroke-width="0.6923" stroke-miterlimit="10" x1="12.822" y1="77.991" x2="20.486" y2="77.991"/>
	
		<line fill="none" stroke="#127C9E" stroke-width="0.6923" stroke-miterlimit="10" x1="119.324" y1="77.991" x2="126.988" y2="77.991"/>
</g>
</svg>
