<?xml version="1.0"?>
<svg width="1241" height="1241" xmlns="http://www.w3.org/2000/svg">
 <!-- Created with Method Draw - http://github.com/duopixel/Method-Draw/ -->

 <g>
  <title>Layer 1</title>
  <linearGradient y2="1.026758" x2="0.455546" y1="0.030026" x1="0.539682" id="svg_6">
   <stop stop-color="#FFFFFF" stop-opacity="0" offset="0"/>
   <stop stop-color="#B2B2B2" stop-opacity="0.3168" offset="0.3168"/>
   <stop stop-color="#000000" offset="1"/>
  </linearGradient>
  <g id="svg_61">
   <circle id="svg_13" r="615.299988" cy="622.96889" cx="621.651682" fill="#8C8C8C"/>
   <circle id="svg_14" r="615.299988" cy="622.96889" cx="621.651682" fill="url(#svg_6)" opacity="0.5"/>
   <g id="svg_15">
    <g id="svg_16">
     <path id="svg_17" d="m323.051727,986.268921l0,0c0.299988,-0.700012 0.599976,-1.5 0.599976,-1.5s0.300049,-0.699951 0.600037,-1.5s0.599976,-1.5 0.899963,-2.199951c0.300049,-0.700073 0.600037,-1.500061 0.900024,-2.200073c0.299988,-0.700012 0.299988,-0.700012 0.599976,-1.5c0.600037,-1.5 2.600037,-4.099976 4.800049,-7.5c2.299988,-3.400024 4.799988,-7.5 7.399963,-11.599976c2.600037,-4.100037 5.5,-8.900024 8.299988,-13.800049c2.900024,-4.799927 5.800049,-9.699951 8.300049,-13.799927c2.599976,-4.100037 5.199951,-8.200073 7.399963,-11.599976c2.299988,-3.400024 3.5,-6.300049 4.799988,-7.500061c2,-2.600037 4.700012,-5.000061 7.700012,-8.000061s6.700012,-5.799927 10.799988,-9.299927c4,-3.5 7.800049,-6.200073 12.300049,-8.700073c4.5,-2.399963 8.5,-5.899902 12.699951,-7.699951c4.5,-2.400024 8.300049,-3.400024 12.5,-5.099976c3.900024,-1 7.400024,-1.200073 9.900024,-1c4.299988,0.099976 7.200012,1.299927 8.799988,3.699951c1.900024,1.700012 2.100037,5.200073 1.799988,10.200073c-0.399963,5 -2.5,10.199951 -4.699951,15.299927c-2.900024,4.800049 -5.800049,9.700073 -10.100037,13.900024c-4.399963,4.200073 -8.399963,7.700012 -13.200012,10.900024s-10.299988,6.099976 -15.199951,7.5c-5.200012,2.099976 -10.900024,3.199951 -15.900024,2.899963c-5.299988,0.400024 -10.400024,0 -15.5,-2.200012l-2.700012,2.300049l-30.099976,55.599976c-0.299988,0.700012 -1.700012,1.900024 -3.400024,2s-3.599976,0.200073 -4.299988,-0.099976c-1.799988,0.099976 -2.900024,-1.200012 -4.400024,-1.800049c-1.199951,-0.299927 -1.499939,-3.899902 -1.599976,-5.699951zm95.5,-77.599976c6.400024,-5.100037 10.099976,-9.599976 12.299988,-13c2.299988,-3.400024 3.200012,-5.599976 2.299988,-7.700073c-1.199951,-1.299927 -2.599976,-2 -5.899963,-2.5c-2.5,-0.199951 -6.400024,0.800049 -10.200012,1.800049c-3.900024,1 -7.299988,3 -11.799988,5.400024c-4.5,2.400024 -7.200012,4.799927 -10.200012,7.799927c-1.299988,1.200073 -2.700012,2.300049 -4.400024,4.200073s-3.299988,3.800049 -5.699951,5.400024c-1.700012,1.900024 -3.300049,3.799927 -4.700012,5c-1.299988,1.199951 -2,2.599976 -2,2.599976l-0.799988,4c8.299988,0.899963 15.399963,0.400024 21.299988,-1.500061c7.599976,-1 13.799988,-5.399963 19.799988,-11.499939z" fill="#DDDDDC"/>
     <path id="svg_18" d="m488.25174,940.368896c0.5,-3.200012 2,-6.900024 3.299988,-9.900024c2,-2.599976 3.900024,-5.299988 6.200012,-8.599976c2,-2.599976 3.900024,-5.300049 5.900024,-7.900024c2,-2.599976 3.199951,-5.599976 3.399963,-8.099976c0.299988,-0.700073 -0.099976,-1.800049 0.200012,-2.5c0.299988,-0.700012 -0.099976,-1.800049 0.200012,-2.5c-0.400024,-1 -0.100037,-1.800049 -0.5,-2.800049c-0.400024,-1 -1.200012,-1.299927 -2.200012,-0.900024c0,0 0,0 -0.700012,-0.299927c0,0 -0.700012,-0.300049 0,0c-1.700012,1.900024 -4.399963,4.199951 -7.099976,6.599976c-2.700012,2.300049 -5.700012,5.400024 -8.400024,7.700012c-2.700012,2.299988 -5.399963,4.700012 -9.099976,7.399963c-2.700012,2.300049 -5.100037,3.900024 -7.5,5.5c-1.299988,1.200073 -3.700012,2.800049 -6.100037,4.300049c-2.699951,2.300049 -5.099976,3.900024 -8.5,5.900024c-2.699951,2.299927 -5.099976,3.899963 -7.199951,4.799927c-2.400024,1.600098 -3.400024,2 -3.400024,2l-7.700012,-8.399902c0.700012,0.299927 2.5,0.199951 3.600037,-0.200073c1,-0.400024 2.099976,-0.900024 3.099976,-1.299988c7.599976,-3.700012 14.799988,-8.499939 21.5,-14.299988c6.700012,-5.800049 13.5,-11.599976 19.799988,-18.5c0.299988,-0.700012 1.299988,-1.200073 2,-2.599976c1.299988,-1.200073 2.299988,-3.400024 4.200012,-6c1.700012,-1.900024 3.299988,-3.800049 4.5,-6.700073c1.700012,-1.900024 2.599976,-4.099976 2.900024,-4.799927c0.599976,-1.5 2,-2.600037 1.5,-3.700073c0.299988,-0.699951 0.599976,-1.5 0.899963,-2.199951c0.299988,-0.700012 0.299988,-0.700012 1.299988,-1.200073c0.700012,0.300049 1.800049,-0.099976 3.600037,-0.199951c0,0 0.700012,0.300049 1.5,0.599976c0.700012,0.300049 1.5,0.599976 1.5,0.599976c1.299957,3.100098 2.600006,6.300049 3.100006,9.100098c0.5,2.799927 1.400024,4.899902 2,7.699951c0.900024,2.099976 0.699951,4.599976 1.199951,7.400024c-0.199951,2.5 -0.400024,5 -0.599976,7.5c-2.299988,3.400024 -4.099976,7.800049 -6.699982,11.900024c-2.600037,4.099976 -4.100037,7.799927 -6.400024,11.199951c-1.5,3.700073 -2.799988,6.599976 -3.299988,9.900024c-0.5,3.199951 -0.400024,5 1.200012,7.400024c1.599976,2.400024 3.799988,3.299927 8.099976,3.400024c4.000031,0.799927 9.299957,0.399902 17.000031,-1.500061c1.900024,1.700012 1.599976,2.399963 0.199951,3.600037c-1.299927,1.199951 -4.5,2.399963 -7.299927,3c-3.100037,1.299927 -6.700073,1.5 -11.000031,1.5c-4.299988,-0.100037 -7.100037,0.5 -10.100037,-0.700073c-2.5,-0.199951 -4,-0.799927 -5.099976,-2.199951c-1.5,-0.599976 -2.599976,-2 -3.5,-4c-1.200012,-1.300049 -1.299988,-3.099976 -1.400024,-4.900024c-0.899963,1.900024 -0.799988,-0.599976 -0.099976,-2.099976z" fill="#DDDDDC"/>
     <path id="svg_19" d="m521.651733,943.06897c0.300049,-0.700012 0.599976,-1.500061 0.5,-3.199951c0.599976,-1.500061 0.200073,-2.500061 0.5,-3.200073c5.200073,-8.199951 11,-16.100037 18.099976,-22.699951c7.100098,-6.600037 14.800049,-12.80011 22.800049,-17.300049c0,0 0.699951,0.300049 1,-0.400024c0.699951,0.299988 1,-0.400024 1,-0.400024c3.199951,0.5 5.500061,1.400024 7.400024,3.100098c1.900024,1.699951 3.5,4 4.299927,6.099976c0.900024,2.099915 1.400024,4.900024 2,7.699951c0.5,2.799988 0.400024,5.300049 0.200073,7.799988c-0.399963,5 -2.200073,9.400085 -5.099976,14.30011c-2.900024,4.799927 -6.5,9.399902 -10.600098,12.899902c-4,3.5 -8.799927,6.700073 -14,8.799988c-5.199951,2.100037 -9.799927,2.800049 -14.799927,2.400085s-8.400024,-2.600037 -10.700073,-5.300049c-2.799927,-2 -3,-5.500061 -2.599976,-10.599976zm13.900024,-0.200073c-0.599976,1.5 -0.200012,2.5 1.299927,3.099976c0.700073,0.300049 2.200073,0.900024 2.900024,1.200012c3.200073,0.500061 6.099976,-0.100037 9.200073,-1.299988c3.099976,-1.300049 5.5,-2.900024 8.199951,-5.199951c2.699951,-2.300049 4.699951,-5 6.599976,-7.600098c2,-2.599976 2.5,-5.899963 2.600037,-8.399902c0.600037,-1.500061 0.200012,-2.500061 0.100037,-4.300049c-0.100037,-1.800049 -0.200073,-3.599976 -0.700073,-4.599976c-0.399963,-1 -1.599976,-2.400024 -2.799927,-3.700073c-1.5,-0.599976 -2.900024,-1.199951 -5.5,-1.399902c-1.800049,0.099976 -4.200073,1.699951 -6.100037,4.299927c-2.700012,2.300049 -5,5.700073 -7.200012,9.099976s-4.5,6.700073 -6.099976,10.400024c-0.400024,3.300049 -1.599976,6.200073 -2.5,8.400024z" fill="#DDDDDC"/>
     <path id="svg_20" d="m635.151733,962.868896c-1.799927,-5.900024 -1.900024,-12 -0.199951,-18.199951c1.400024,-5.500061 4.299927,-10.300049 8.699951,-14.500061c3.599976,-4.499939 8.400085,-7.700012 12.900024,-10.200012c4.500061,-2.400024 9.400085,-3.900024 13.199829,-4.799988c4.599976,-0.700012 7.800049,-0.200012 9.700073,1.500061c2.599976,2 3.199951,4.799927 2.099976,9.499939c-0.400024,5 -2.599976,8.399963 -5.700073,11.500061c-3,3.099976 -6.699951,5.799927 -11.199829,8.299927c-3.69989,2.800049 -7.199951,4.800049 -10.599915,6.800049c-3.400085,2 -5.100037,3.900024 -5,5.699951c-0.30011,0.700012 0.099915,1.800049 1.599915,2.400024c1.5,0.599976 2.900024,1.199951 4.400085,1.800049c1.499939,0.599976 3.19989,0.499939 4.69989,1.099976c1.5,0.599976 3.200134,0.5 4,0.799927c11.699951,-1.199951 20.599854,-1.799927 25.599854,-1.399963c6.100098,-0.100037 9.300049,0.399963 10.800049,1.100037c1.5,0.599976 0.900024,2.099976 -1.199951,2.899963c-2.400024,1.600037 -5.200073,2.100037 -10.100098,3.500061c-3.899902,1 -9.199951,1.299927 -14.799927,2.399902c-5.299927,0.400024 -11.399902,0.400024 -16.399902,0c-5,-0.399902 -10.5,-1.799927 -14.199951,-3.299927c-3.700073,-1.5 -6.300049,-3.5 -8.300049,-6.900024zm36.399902,-37.5c-2.5,-0.200012 -4.999878,-0.400024 -7.399902,1.199951c-2.099915,0.900024 -4.5,2.400024 -6.099915,4.300049c-1.699951,1.900024 -3.299988,3.800049 -5,5.699951c-1.700012,1.900024 -2.600037,4.100098 -3.500061,6.300049l0.700073,0.299988l0.700012,0.299988c1.799988,-0.099976 3.599915,-0.199951 5.899963,-1.799927c2.100037,-0.900024 4.500061,-2.400024 7.200012,-4.800049c2.399963,-1.599976 4.399963,-4.199951 5.999817,-6.099976c1,-2.099976 1.599976,-3.600037 1.5,-5.400024z" fill="#DDDDDC"/>
     <path id="svg_21" d="m738.951599,923.268921c-3.700012,2.800049 -7.80011,6.199951 -11.80011,9.699951c-4.399902,4.200012 -6.899902,8.300049 -9.799927,13.200012c-2.900024,4.799988 -4.700012,9.299988 -5.099976,14.299988c-0.5,3.200073 0.099976,6.100037 2,7.700012c1.899902,1.700012 4.099976,2.600037 7.399963,3.100037s6.799988,0.299988 10.399963,0c3.600037,-0.199951 7.400024,-1.199951 11,-1.5c3.600037,-0.200012 7.400024,-1.200012 11,-1.5c3.600037,-0.199951 7.099976,-0.5 10.400024,0c0.099976,1.800049 -0.499939,3.199951 -0.799988,4c-0.600037,1.5 -1.699951,1.899963 -2.299988,3.400024c-7,2.299927 -13.700012,3.799927 -20.700012,6.099976c-6.699951,1.5 -13.799988,2 -21.299988,1.5c-2.5,-0.199951 -4,-0.800049 -6.900024,-2c-2.199951,-0.900024 -4.099976,-2.599976 -6,-4.199951c-1.900024,-1.700073 -3.499939,-4 -4.300049,-6.100098c-0.899902,-2.099976 -1.399902,-4.899902 -1.19989,-7.399963c0.699951,-5.799988 1.799988,-10.499939 3.899963,-15.600037c2.199951,-5.099976 4.699951,-9.299927 8.299927,-13.799988c3.600098,-4.499939 6.900024,-8.299988 11.700073,-11.499939c4,-3.500061 8.799988,-6.700073 14,-8.800049l0,0c2.100037,-0.900024 4.199951,-1.700012 6.299927,-2.599976s4.900024,-1.400024 6.400024,-0.800049c1.800049,-0.099976 4,0.800049 5.100037,2.200073c1.200012,1.299927 2,3.400024 1.499939,6.699951c-0.299927,0.700073 0.100098,1.799988 -0.19989,2.5s-0.200012,2.5 -0.500061,3.200073c-0.300049,0.699951 -0.900024,2.199951 -1.199951,2.899902c-0.299988,0.700073 -0.600037,1.5 -1.700073,1.900024c-0.299927,0.700012 -1,0.400024 -2.099976,0.900024c-1,0.399963 -1,0.399963 -2.099976,0.900024c-1,0.400024 -1.800049,0.099976 -2.5,-0.200073l1.400024,-11.5c-3.5,-0.699951 -6.599976,0.600037 -10.299988,3.300049z" fill="#DDDDDC"/>
     <path id="svg_22" d="m763.551636,969.868896c0.5,-3.199951 1.300049,-7.199951 3.300049,-9.900024c1.500061,-3.699951 3.799927,-7 5.799927,-9.699951c2,-2.599976 4.5,-6.700073 6.5,-9.400024c2.300049,-3.400024 4.200134,-6 5.5,-8.900024c-2.099976,0.900024 -4.900024,1.400024 -5.900024,1.800049c-1.799927,0.099976 -3.599976,0.199951 -5.799927,-0.700073c0,0 -0.700073,-0.299927 -2.5,-0.199951c-1.5,-0.599976 -2.5,-0.199951 -2.5,-0.199951c1.199951,-2.900024 2.900024,-4.800049 4.5,-6.700073c2.400024,-1.599976 4.799927,-3.199951 7.199951,-4.799988c2.400024,-1.600037 5.200073,-2.100037 8,-2.700012c2.800049,-0.5 5.599976,-1.099976 7.700134,-2c3.899841,-5.299988 7.899841,-10.5 11,-16.099976c3.19989,-5.599976 6.099915,-10.400024 9.299866,-16c3.200073,-5.599976 6.800049,-10.099976 10.400024,-14.599976c3.599976,-4.5 8.699951,-8.5 14.5,-12.100037l-0.300049,6.799988l-28.699951,50.200073c1,-0.400024 2.80011,-0.500061 4.599976,-0.700073c1.800049,-0.099976 3.599976,-0.199951 6.099976,-0.099976c1.800049,-0.099976 4.300049,0.099976 6.100159,-0.099976c1.799866,-0.099976 3.599915,-0.200073 5.299866,-0.400024c0,0 0.700134,0.300049 1,-0.400024c0.700134,0.300049 0.700134,0.300049 1.800049,-0.099976c1.799927,-0.099976 3.199951,0.5 3.699951,1.5c1.5,0.599976 1.599976,2.400024 2.400024,4.5c-8.5,1.599976 -16.19989,3.599976 -22.900024,5.099976c-7,2.300049 -13.199951,4.800049 -18.299866,8.800049c-5.80011,3.599976 -10.500061,8.599976 -14,14.900024c-3.500061,6.299927 -6.900085,14.399902 -9.400085,24.599976c-0.300049,0.699951 -0.200073,2.5 -0.5,3.199951c-0.300049,0.700012 0.099976,1.800049 -0.200073,2.5c0.400024,1 0.100159,1.800049 0.900024,2.099976c0.400024,1 1.200134,1.300049 2.900024,1.200073c2.5,0.199951 5,0.400024 8.199951,-0.900024c2.800049,-0.5 4.900024,-1.400024 7.300049,-3c2.099976,-0.900024 5.199951,-2.099976 7.300049,-3c2.799927,-0.5 5.599976,-1.099976 8.199951,-0.900024c-0.199951,2.5 -2.199951,5.099976 -4.800049,7.5c-2.699951,2.300049 -6.099976,4.300049 -10,5.300049c-3.899841,1 -7.699951,2 -11.599976,2.899963c-3.900024,1 -7.099976,0.500061 -9.599976,0.299988c-2.5,-0.199951 -4.69989,-1.099976 -5.900024,-2.5c-1.900024,-1.699951 -3.099976,-3 -4.199951,-4.400024c-0.900024,-2.099976 -1.700073,-4.199951 -2.599915,-6.299927c0.099792,-2.100037 -0.80011,-4.199951 0.19989,-6.400024z" fill="#DDDDDC"/>
     <path id="svg_23" d="m506.051727,1040.268921c0.400024,-5 2.200012,-9.400024 4.099976,-13.900024c1.800049,-4.400024 5.200043,-8.200012 7.699982,-12.299927c3.300049,-3.800049 6.600098,-7.600098 10.400024,-10.400024c4,-3.500061 7.800049,-6.200073 11.5,-9c1.300049,-1.200073 3.700073,-2.800049 6.099976,-4.300049c2.700073,-2.299927 6.100098,-4.299927 9.900024,-7.099976c3.700073,-2.800049 7.5,-5.5 12,-8c3.700073,-2.800049 8.200073,-5.199951 12,-8c3.700073,-2.800049 7.200073,-4.800049 9.900024,-7.100037c3.400024,-2 4.800049,-3.200012 6.900024,-4c0.599976,-1.499939 2.199951,-5.099915 4.699951,-9.299988s4.400024,-8.5 7.300049,-13.400024s4.699951,-9.299988 7.299927,-13.399902c2.600098,-4.100098 3.800049,-7 5.500061,-8.900085c0.600037,-1.499939 2,-2.599976 2.899963,-4.799988c0.900024,-2.200012 2.300049,-3.400024 3.599976,-4.5c1.300049,-1.199951 2.700073,-2.300049 4.800049,-3.199951c1.300049,-1.200073 3.099976,-1.300049 5.599976,-1.100098c-0.799927,4 -1.599976,8 -3.400024,12.400024c-1.799927,4.400024 -3.699951,8.800049 -6.599976,13.700073s-4.400024,8.499939 -7,12.599976c-2.599976,4.099976 -4.5,6.699951 -5.5,8.899963c0,0 0.700073,0.299988 1.5,0.600037c0.700073,0.300049 0.700073,0.300049 1.5,0.599976c3.200073,0.5 6.099976,-0.099976 8.900024,-0.599976c2.800049,-0.5 6.400024,-0.800049 8.900024,-0.600037c0.699951,0.299988 2.5,0.200012 3.199951,0.500061c0.700073,0.299927 2.200073,0.899963 2.300049,2.699951c-2,2.599976 -4.400024,4.200012 -7.200073,4.799988s-5.899902,1.799988 -9.499939,2.100037c-3.600037,0.199951 -6.399963,0.800049 -9.200012,1.299988c-2.799988,0.500061 -5.199951,2.100037 -7.199951,4.799988c-0.600037,1.5 -2.300049,3.400024 -4.200073,6c-2,2.599976 -4.199951,6 -6.5,9.400024c-2.299927,3.399963 -4.799927,7.5 -7.400024,11.599976s-5.199951,8.200012 -7.399902,11.599976c-2.300049,3.400024 -4.5,6.700073 -5.800049,9.700073c-2,2.599976 -2.900024,4.799927 -3.5,6.299927c-2.599976,4.100098 -5.5,8.900024 -8.699951,14.5c-3.200073,5.600098 -6.400024,11.200073 -10.300049,16.400024c-3.900024,5.300049 -8.300049,9.5 -13.799988,12.400024c-4.799988,3.199951 -10.399963,4.300049 -17.200012,4c-3.199951,-0.5 -5.5,-1.400024 -8.400024,-2.599976c-1.900024,-1.700073 -4.499969,-3.599976 -5.699982,-5c-1.599976,-2.400024 -2.400024,-4.5 -3,-7.300049c-1.599976,-2.299927 -1.5,-4.799927 -1,-8.099976zm9.199982,-1.300049c0.100037,1.800049 -0.5,3.199951 -0.400024,5c0.100098,1.800049 0.200073,3.599976 0.700073,4.599976c0.400024,1 1.599976,2.400024 2.799988,3.700073c1.200012,1.299927 2.899963,1.199951 5.100037,2.199951c5,0.400024 8.899963,-0.599976 13.399902,-3.099976c4.500061,-2.400024 8.500061,-5.900024 12.100098,-10.5c3.599976,-4.5 6.899902,-8.300049 9.799927,-13.200073s5.200073,-8.199951 7.400024,-11.599976c1.200012,-2.900085 3.5,-6.299927 6.400024,-11.199951c2.599976,-4.099976 4.699951,-9.300049 7.299927,-13.400024c2.600098,-4.099976 4.100098,-7.800049 5.700073,-11.5c1.199951,-2.900024 2.900024,-4.80011 2.199951,-5.099976l0.400024,-5c-1,0.400024 -2.099976,0.900024 -4.199951,1.699951c-2.100098,0.900024 -3.100098,1.300049 -3.400024,2c-1.300049,1.200073 -4.800049,3.200073 -8.800049,6.700073c-4,3.5 -8.799927,6.699951 -13.599976,9.899841c-4.799988,3.200134 -8.799988,6.700134 -13.599976,9.900085c-4,3.5 -7.5,5.5 -8.800049,6.700073c-2,2.599976 -3.900024,5.299927 -6.299927,6.899902c-2.400024,1.600098 -4.400024,4.200073 -6.300049,6.900024c-2,2.599915 -3.599976,4.5 -4.799988,7.5c-1,3.900024 -2.299988,6.900024 -3.100037,10.900024zm131.900024,-177.299927c0.300049,-0.700073 0.599976,-1.500061 0.900085,-2.200073c0.299988,-0.699951 1.299988,-1.199951 2.399963,-1.599976c1,-0.400024 2.099976,-0.900024 2.799927,-0.5c1,-0.400024 1.80011,-0.099976 2.5,0.200012c1.800049,-0.100037 2.900024,1.200012 3.400024,2.299988c0.099976,1.800049 0.5,2.800049 -0.099915,4.299988c-0.200134,2.500061 -0.80011,4 -2.500061,5.900085c-1.300049,1.199951 -3.400024,2 -5.900024,1.799927c-2.5,-0.199951 -3.699951,-1.5 -3.799927,-3.299988c0.299927,-2.600037 0.499939,-5.100037 0.299927,-6.899963z" fill="#DDDDDC"/>
     <g id="svg_24">
      <path id="svg_25" d="m210.951752,551.668945c2.599976,-8.400024 5.700012,-15.800049 10.299988,-22.500061c4.5,-6.700012 9.5,-12.399963 14.900024,-17.099915c5.399963,-4.700043 11.200012,-8.300079 17.5,-10.800079c6.299988,-2.599976 11.5,-4.699951 17.5,-4.799988c5.299988,-0.399963 10.099976,0.700012 14.5,2.600037c4.399963,1.799988 7.200012,5.599976 9.599976,10.099976c-0.5,3.199982 -1.700012,6.199982 -3.299988,9.900055c-2,2.599976 -4.200012,6 -6.200012,8.599976s-4.200012,6 -6.200012,8.599976s-2.799988,6.599976 -3.599976,10.599976s-0.299988,6.800049 1.299988,9.200073c1.600037,2.399902 4.200012,4.399902 8.5,4.399902c3.200012,0.5 6.799988,0.300049 10.400024,0s7.099976,-0.5 10.399963,0c0.700012,0.300049 1.5,0.600098 2.5,0.200073c1.5,0.599976 2.5,0.199951 2.5,0.199951c-2,2.599976 -4.399963,4.200073 -7.5,5.5s-6.299988,2.599976 -9.399963,3.900024s-6.700012,1.5 -10.200012,1.800049c-3.599976,0.199951 -6.099976,0.099915 -9.299988,-0.400024c-2.5,-0.200073 -4.700012,-1.100037 -6.600037,-2.800049c-1.899963,-1.700012 -3.799988,-3.299988 -4.699951,-5.400024c-0.900024,-2.099976 -2.400024,-4.5 -2.300049,-7c-0.5,-2.799927 -0.699951,-4.599976 -0.5,-7.099976c-2.699951,2.300049 -5.399963,4.700073 -8.099976,7c-2.700012,2.300049 -6.099976,4.300049 -8.799988,6.700073c-3.400024,2 -6.600037,3.299927 -9.700012,4.599976c-3.099976,1.299927 -6.700012,1.499939 -10.700012,0.699951s-6.899963,-2 -9.700012,-5.799988c-2.200012,-2.799988 -3.200012,-6.600037 -3.099976,-10.899963zm15.700012,-4.700073c-0.299988,0.700073 -0.200012,2.5 -0.099976,4.300049s0.5,2.799927 2,3.400024c3.599976,-0.200073 8.5,-1.600098 13.199951,-4.800049c5.200012,-2.099976 10,-5.300049 14.400024,-9.599976c4.799988,-3.200073 8.400024,-7.700073 11.700012,-11.5c3.599976,-4.5 5.5,-8.900024 5.5,-13.200073c0,0 0.299988,-0.699951 -0.100037,-1.799927c0.300049,-0.700073 -0.399963,-1 -0.099976,-1.800018c-5,-0.400024 -10.400024,0 -15.299988,1.399994c-5.600037,1.099976 -10.100037,3.5 -14.900024,6.699951c-4.799988,3.200073 -8.099976,7 -11.700012,11.5c-2.099976,5.200073 -3.900024,9.700073 -4.599976,15.400024z" fill="#DDDDDC"/>
     </g>
    </g>
    <g id="svg_26">
     <g id="svg_27">
      <path id="svg_28" d="m355.151764,750.068848l40.900024,-81.399963c8.199951,-15.600037 32.199951,-4.700012 23.699951,11.600037l-54.599976,105.899902c-4.900024,11.800049 -9.400024,14.200073 -15.900024,13.200073c-7.5,-0.599976 -8.899963,-5.5 -12.399963,-13.800049l-26.200012,-86.099976l-43.799988,75.900024c-5.200012,8.199951 -8.799988,12.699951 -16.299988,12.199951c-7.200012,-1.299927 -10.400024,-6.099976 -12.5,-15.599976l-26.200012,-117.199951c-4.200012,-19 23.399963,-23 26.700012,-6.100037l20,88.700012l46.699951,-80.700012c6.700012,-11.899963 19.300049,-11 23.400024,2l26.5,91.399963z" fill="#444444"/>
      <path id="svg_29" d="m437.451752,677.368896c2,-17.300049 29.400024,-14.5 27,3.5l-14.5,117.400024c-2,17.299927 -29.400024,14.5 -27,-3.5l14.5,-117.400024z" fill="#444444"/>
      <path id="svg_30" d="m490.75174,684.068848c1,-6.5 7.400024,-11.599976 14.200012,-11.299927c6.5,1 11.600006,7.399902 10.600006,13.899963l-12.200043,103.700012l55.800018,6.900024c20.5,2.5 17,29.599976 -3.5,27l-68.100006,-8.600037c-7.200012,-1.299988 -12.599976,-7 -11.299988,-14.200012l14.5,-117.400024z" fill="#444444"/>
      <path id="svg_31" d="m602.851685,829.368896c-6.499939,-1 -14,-5.800049 -12.799927,-14.800049l14.199951,-116.699951c0.599976,-7.5 9.199951,-11.700073 15.699951,-10.700073l46.800049,5.700073c93.699829,11.5 74.799805,153.900024 -15.599976,142.900024l-48.300049,-6.400024zm27.500061,-115.5l-10.900085,92.199951l34.600098,4.099976c55.799805,6.900024 69.199829,-85.099976 10.899902,-92.199951l-34.599915,-4.099976z" fill="#444444"/>
      <path id="svg_32" d="m799.651611,761.268921l-9.400024,76.400024c-1.199951,9 -9.099976,13.499939 -16.299927,12.199951c-6.5,-1 -11.900024,-6.700012 -10.700073,-15.700012l13.900024,-116c1.099976,-10.799988 10.599976,-12.899963 14.099976,-13.100037c5.800049,0.700073 9.300049,4.700073 11.700073,9.200073l37.799927,66.699951l54.300049,-57.599976c7.699951,-8 24.199951,-2 22.599976,12l-13.900024,116c-1.199951,9 -7.299927,13.400024 -14.099976,13.099976c-7.5,-0.599976 -12.599976,-7 -11.5,-16l9.400024,-76.400024l-39.5,38.800049c-8.700073,8.5 -17.700073,7.299988 -23.800049,-3l-24.599976,-46.599976z" fill="#444444"/>
      <path id="svg_33" d="m939.951599,869.968872c-7.200012,-1.299927 -11.900085,-6.699951 -11.300049,-14.199951l14.200012,-116.699951c0.599976,-7.500061 6.699951,-11.900085 14.199951,-11.300049l73.900024,9.300049c19.099976,1.899902 15.5,29 -3.5,27l-59.099976,-7.400024l-3.599976,31.299927l51.899963,6.099976c17.999939,2.300049 15.200012,29.700073 -3.500061,27l-51.899902,-6.099976l-3.600037,31.300049l62.700012,7.199951c18.799927,2.700012 17,29.599976 -3.5,27l-76.899963,-10.5z" fill="#444444"/>
     </g>
     <g id="svg_34">
      <g id="svg_35">
       <path id="svg_36" d="m722.551636,389.568878c1.099976,-4.700012 3.80011,-13.100006 7.099976,-16.899994c5.700134,-5.399994 11.099976,-10 18.400024,-13c6.900024,22.799988 27.099976,40.699982 51.900024,43.300018c25.599976,2.899963 48.699951,-9.000031 60.799927,-29.900024c5.700073,5 10.400024,10.399994 14.400024,17.200012c3.200134,4.799988 3.800049,13.700012 2.700073,18.399963l-0.300049,0.700012c5.400024,-4.700012 8.599976,-10.200012 9.599976,-16.699982c23.400024,-107.700012 29.800049,-149.899994 -54.799866,-164.5c-37.900085,-6.300018 -149.80011,-32.300018 -157.500061,31.799988c-13.199951,68.800018 -25.599854,137.899994 44.599976,155.899994c-0.900024,-2.099976 -1,-3.900024 -0.800049,-6.400024c1.699951,-0.099976 4.299988,-18.799957 3.900024,-19.899963zm26.299927,-85.699982c12.400024,-0.799988 22.199951,-9.699982 23.599976,-21.299988l-0.099976,-1.800018c2.699951,-23.099976 23.699951,-40.199982 46.699951,-37.5c23.100098,2.700012 39.200073,24.100006 37.200073,47.5l0.099976,1.800018c-1.399963,11.5 6.199951,22.399994 18.199951,26.600006c4,0.799988 6.700073,4.5 5.900024,8.5c-0.199951,2.5 -1.499939,3.699982 -2.900024,4.799988c-10.599915,6.799988 -25.799927,10 -47.599915,8.600006c0,0 -0.700012,-0.300018 -1.799988,0.100006c-4.300049,-0.100006 -8,2.699982 -8.400024,7.699982c-0.400024,5 2.400024,8.800018 7.099976,9.899994c3.199951,0.5 6.900024,2 10.199951,2.5c3.700073,1.5 5.700073,5 5.900085,8.5c0.099915,1.800018 -1.500061,3.700012 -2.200012,5.100006c-9.799988,8.899994 -23.300049,14.399994 -37.300049,12.899994c-14.799927,-1.899994 -26.799927,-10.299988 -34,-22c-0.400024,-1 -0.499939,-2.799988 -0.699951,-4.599976c0.799927,-4 3.5,-6.300018 7.400024,-7.300018c3.599976,-0.199982 6.099976,-0.100006 9.599976,-0.299988c5,0.399994 9.099976,-3.100006 10.200012,-7.800018c0.099915,-4.299988 -2,-7.699982 -6.400085,-9.599976c-0.699951,-0.300018 -0.699951,-0.300018 -1.5,-0.600006c-21.699951,-3.899994 -35.399902,-10.5 -44.599976,-19.5c-1.199951,-1.300018 -2,-3.399994 -1.099976,-5.600006c-1.5,-3.900024 2.5,-7.400024 6.5,-6.600006z" fill="#73BD44"/>
       <path id="svg_37" d="m786.451538,335.968903c0.699951,0.299988 1.500061,0.600006 1.500061,0.600006c4.699951,1.100006 6.699951,4.5 6.399963,9.600006c-0.399963,5 -5.200073,8.199982 -10.200073,7.799988c-3.599976,0.200012 -6.799927,-0.299988 -9.599976,0.299988c-3.599915,0.200012 -6.599915,3.300018 -7.400024,7.300018c0.100098,1.799988 0.500061,2.799988 0.700073,4.600006c7.199951,11.699982 19.199951,20.099976 34,22c14,1.5 28,-3 37.299927,-12.900024c1.300049,-1.199982 2,-2.599976 2.200073,-5.099976c0.799927,-4 -2,-7.700012 -5.900024,-8.5c-2.900024,-1.200012 -6.199951,-1.700012 -10.199951,-2.5c-4.700073,-1.100006 -7.5,-4.800018 -7.100098,-9.900024c0.100098,-4.299988 4.100098,-7.799988 8.400024,-7.699982c0.700073,0.299988 1.800049,-0.100006 1.800049,-0.100006c21.900024,1.399994 37,-1.799988 47.600037,-8.600006c1.299988,-1.199982 2.299988,-3.399994 2.899963,-4.799988c0.799988,-4 -2,-7.700012 -5.899963,-8.5c-11.300049,-3.899994 -18.900085,-14.800018 -18.200012,-26.600006l-0.100037,-1.799988c2.700012,-23.100006 -13.399963,-44.5 -37.200012,-47.5c-23.099976,-2.700012 -43.699951,13.699982 -46.699951,37.5l0.099976,1.799988c-1.400024,11.5 -11.099976,20.399994 -23.599976,21.299988c-4.299988,-0.099976 -7.299988,3 -8.100098,7c-0.19989,2.5 -0.099976,4.300018 1.100098,5.600006c10.800049,8.600006 24.5,15.199982 46.199951,19.100006z" fill="#FFFFFF"/>
       <path id="svg_38" d="m878.551636,408.968903c0.300049,-0.700012 0.300049,-0.700012 0.300049,-0.700012c0.399902,-5 -0.200073,-13.899994 -2.700073,-18.399994c-4,-6.899994 -8.699951,-12.299988 -14.400024,-17.199982c-12.199951,20.799988 -36,32.5 -60.799927,29.899963c-25.599915,-2.899963 -45,-20.499969 -51.900024,-43.299988c-6.599976,3.300018 -12.69989,7.700012 -18.400024,13c-4,3.5 -7,12.600006 -7.099976,16.900024c-0.300049,0.699982 -2.19989,19.799988 -2.19989,19.799988c-0.200134,2.5 -0.100159,4.299988 0.799866,6.400024c3.200134,0.5 7.200134,1.299988 11.200134,2.099976c32.999817,5.899963 115.69989,18.899963 145.19989,-8.5z" fill="#FFFFFF"/>
      </g>
      <g id="svg_39">
       <path id="svg_40" d="m590.951782,198.168884c-37.900024,-6.300018 -149.800018,-32.300018 -157.500031,31.799988c-14,72.800018 -26.599976,144.399994 55.799988,158c4,0.800018 8.700012,1.899994 13.700012,2.300018c5.299988,-6.400024 11.500031,-15.100006 14.900055,-17.100006c5.099976,-3.899994 3.5,-6.300018 1.899902,-8.700012c-1.299927,-3.100006 -3.299927,-6.600006 -5,-10.699982c-6.299957,-13.900024 -10.099945,-27.5 -11.499969,-42.800018c-0.200012,-3.600006 -0.200012,-7.799988 0.600037,-11.799988c0.5,-3.200012 2.799988,-6.600006 2.5,-10.200012l0,0c-1.300049,-9.199982 -20,-10.100006 -26.400024,-9.299988c-17,1.5 -34.200012,7.299988 -50.200012,12.699982c19.900024,-12.399994 44.299988,-10.899994 61.299988,-28.799988c7.700012,-8 16.100037,-9.700012 25.699982,-5.700012c6.600098,2.800018 10.100098,6.800018 13.700073,12.600006c1,-6.5 7.299927,-40.199982 37.099976,-57.899994l0,0l0,0c-1,0.399994 -6.099976,4.299988 -11.699951,11.5c1,-0.399994 1.299927,-1.200012 2.399902,-1.600006c1,-0.399994 -2.799927,6.600006 -7.899902,14.800018l3.599976,-4.5c0,0 -1.5,3.699982 -4,9.599976l1.299927,-1.199982c0,0 -4.899902,11.799988 -9.099976,23.799988c0.300049,-0.699982 2,-2.600006 3.599976,-4.5c0,0 -0.599976,1.5 -0.799927,4l0,0c0,0 -3.099976,11.600006 -1.200073,19.399994c5.5,1.400024 16.600098,1.700012 29.100098,-3.399994c20.899902,-8.600006 62,-18.199982 84.200012,-17.5l-1,0.399994c0,0 -33.900085,10.900024 -49.80011,13.800018c4.600098,-0.700012 12,-1.899994 14.5,-1.700012c0,0 -6,6.100006 -21.899902,9c3.599976,-0.199982 7.399902,-1.199982 8.899902,-0.600006c1.800049,-0.099976 -5.299927,6.400024 -20.5,7.800018c0,0 6.100098,-0.100006 8.300049,0.899994c0,0 -5.800049,3.600006 -15.5,3.899994c0,0 6.199951,1.700012 8.699951,1.899994c2.5,0.200012 -9.699951,4.600006 -17.799927,5.5c2.5,0.200012 8.900024,-0.599976 11.099976,0.300018c0,0 -10.199951,7.799988 -17.199951,4c0,0 4.799927,2.899994 3.399902,12.600006c0,0 -6.399902,-5.300018 -11.5,-11.700012c0,0 3.900024,5.100006 3.200073,10.899994c0,0 -0.700073,-4.600006 -9.200073,-9c1.100098,5.600006 0.400024,11.399994 0,16.399994c-1.199951,9 -3.799927,17.400024 -8.199951,25.900024c-2.599976,4.099976 -9.300049,16 -13.400024,17.699982c0,0 2.599976,2 -13.199951,21.300018c47.599976,6 120.299927,9.700012 129.099976,-29.900024c23.999878,-107.399963 30.39978,-149.599976 -54.099976,-164.199982z" fill="#F8A51C"/>
       <path id="svg_41" d="m567.251709,213.26889c0.300049,-0.700012 0.300049,-0.700012 0,0c0.300049,-0.700012 0.300049,-0.700012 0,0z" fill="#FFFFFF"/>
       <path id="svg_42" d="m529.551758,371.968903c3.900024,-1 11.599976,-13.299988 13.400024,-17.700012c4.099976,-7.799988 7.099976,-16.899994 8.199951,-25.899994c0.699951,-5.799988 0.300049,-11.100006 0,-16.399994c8.5,4.399994 9.200012,9 9.200012,9c0.700012,-5.799988 -3.200012,-10.899994 -3.200012,-10.899994c5.099976,6.399994 11.5,11.699982 11.5,11.699982c1.5,-9.699982 -3.400024,-12.599976 -3.400024,-12.599976c7,3.799988 17.200073,-4 17.200073,-4c-2.200073,-0.900024 -8.600098,-0.100006 -11.100037,-0.300018c8.899963,-0.600006 20.399963,-5.299988 17.799988,-5.5c-2.5,-0.199982 -8.699951,-1.899994 -8.699951,-1.899994c8.899963,-0.600006 15.5,-3.899994 15.5,-3.899994c-2.200073,-0.899994 -8.300049,-0.899994 -8.300049,-0.899994c15.300049,-1.400024 22.300049,-8 20.5,-7.800018c-1.5,-0.600006 -5.300049,0.399994 -8.900024,0.600006c15.900024,-2.899994 21.900024,-9 21.900024,-9c-3.199951,-0.5 -10.699951,0.700012 -14.5,1.700012c15.900024,-2.900024 49.799927,-13.800018 49.799927,-13.800018l1,-0.399994c-23.699951,-1.200012 -64.799927,8.299988 -85.699951,16.899994c-13.199951,4.800018 -23.599976,4.800018 -29.099976,3.399994c-2.699951,-8 1.199951,-19.399994 1.199951,-19.399994l0,0c0.900024,-2.199982 0.800049,-4 0.800049,-4c-1.699951,1.899994 -2.299988,3.399994 -3.599976,4.5c4.199951,-12.100006 9.099976,-23.799988 9.099976,-23.799988l-1.300049,1.199982c2.200073,-5.099976 4,-9.599976 4,-9.599976l-3.599976,4.5c4.400024,-8.5 8.200073,-15.600006 7.900024,-14.800018c0,0 -1,0.399994 -2.400024,1.600006c5.600037,-7.200012 10.400024,-10.399994 11.700073,-11.5c-29.900024,17.799988 -35.800049,50.700012 -37.100037,57.899994c-3.200012,-4.799988 -6.399963,-9.600006 -13.700012,-12.600006c-9.600006,-4 -19.100006,-1.899994 -25.699982,5.700012c-17,17.899994 -41.400024,16.399994 -61.300049,28.799988c16.100037,-5.399994 33.200012,-11.199982 50.200012,-12.699982c6.400024,-0.800018 25,0.100006 26.400024,9.299988l0,0c0.200012,3.600006 -2,6.899994 -2.5,10.200012c-0.799988,4 -0.600037,7.5 -0.600037,11.799988c1.700012,14.5 5.200012,28.899994 11.500031,42.800018c1.300049,3.099976 3.300049,6.599976 5,10.699982c0.5,2.800018 3.199951,4.800018 -1.900024,8.700012c-3.399963,2 -10.699982,11.100006 -14.899994,17.100006c4,0.799988 9,1.199982 13.700043,2.299988c16.599976,-19 14,-21 14,-21z" fill="#FFFFFF"/>
      </g>
      <g id="svg_43">
       <path id="svg_44" d="m564.851685,413.568878c-31.400024,-5.400024 -114.199982,-24.399994 -145.299957,6.700012c22.200012,0.599976 41.700012,9.700012 49.399963,12c13.100037,3.799988 20.800049,-4.299988 31.100037,0c11,4.599976 14.300018,11.200012 32.699982,12.799988c5.300049,-0.400024 2.5,-5.900024 10.099976,-3.5c6.200073,1.700012 6.500061,11.299988 6.500061,11.299988c4.399963,1.799988 5.599915,-1.099976 7.799988,-0.200012c3.200012,0.5 2.400024,8.800049 1.5,11c6.700012,4.5 13.5,9.100037 16.5,16.400024c0.799927,6.400024 5.5,17.799988 13.299927,22c2.900085,5.5 -2.799927,6.599976 -3.399902,8.099976s-6.400024,0.800049 -7,2.300018s-1.300049,7.200012 -4.5,6.699951c-3.200012,-0.499939 -9.700073,-5.799927 -9.700073,-5.799927c-3.599976,0.199951 -8,-1.600006 -11.299927,-3.899994c-0.600098,1.5 -1.5,3.699921 1.199951,7.399994c-7.699951,-2.300049 -9.199951,-9.000031 -10.199951,-12.899994c-1.700073,1.899963 -4.200012,6 -3,9.099945c-2.800049,-3.699982 -4.600098,-9.699982 -4.5,-13.999969c-1.5,-0.599976 -2.200073,-0.900024 -3.200073,-0.5c-4.599976,0.700012 -12.499939,5.099976 -27.699982,2.200012c-12.899963,10.200012 -28.5,33.000031 -30.200012,39.199982c-1,6.5 -11.099976,36.800049 -2.399963,38.700012c8.700012,1.899963 19.799988,2.200012 14.299988,11.200012c-23,3.400024 -31.400024,-5.400024 -37.299988,-12.099976c-5.100037,-6.400024 -12.799988,-41.600098 -10.600037,-55.400024c11,-5.800049 20.600037,-22.500031 20.600037,-22.500031l-7.200012,-1.299988c-6.799988,16.200043 -32.299988,29.700043 -55,26.300018c0.400024,1 0.099976,1.799988 0.200012,3.599976c7.200012,1.300049 15.399963,0.400024 23.899963,-1.300049c6.400024,19.900024 -1.599976,34.800049 1.100037,36.700073c3.399963,2.299927 23.299988,6.299927 16.5,16.400024c-9.200012,1.299927 -18.900024,-0.100098 -27,-3.5c9.899963,13.599976 26.599976,23.199951 51.5,27.599976c39.700012,6.199951 145.899933,22.900024 155.800018,-25.599976c23.700012,-108.400055 30.100037,-150.600006 -54.500061,-165.200043zm-41.899902,160.399994c-12.300018,19.099976 -19.100006,12.700073 -18.800018,7.700073c0.399963,-5 5.799988,-14 0,-16.400024c-12.5,-5.200073 -25.799988,-27.200073 -25.799988,-27.200073c1,-6.5 19.599976,-32.399933 26.099976,-35.699921c7.200012,1.299988 11.799957,0.599976 11.799957,0.599976s-10.299957,16.399994 -6.999969,22.999969c4.700043,5.400024 25.899994,28.900024 13.700043,48z" fill="#D05727"/>
       <path id="svg_45" d="m516.551758,502.26889c0,0 -4.600006,0.700012 -11.800018,-0.599976c-6.600037,3.299988 -25.200012,29.199982 -26.100037,35.699982c0,0 13.300049,22 25.800049,27.199951c5.899963,2.5 -0.600037,11.800049 0,16.400024c-0.400024,5 6.5,11.300049 18.799957,-7.699951c12.300049,-19.100037 -9,-42.599976 -12.600006,-48.400024c-4.099976,-7 5.900055,-22.600006 5.900055,-22.600006z" fill="#FFFFFF"/>
       <path id="svg_46" d="m452.351715,498.76889l5.599976,-1.099976c0,0 -9.599976,16.699982 -20.599976,22.499969c-2.299988,13.700012 5.5,48.899963 10.599976,55.399963c5.100037,6.400024 14.300049,15.5 37.300049,12.100098c5.5,-8.900024 -5.600037,-9.300049 -14.300049,-11.200073c-8.699951,-1.900024 1.400024,-32.199951 2.400024,-38.699951c1,-6.5 16.599976,-29.400055 30.200012,-39.200043c15.199982,2.900024 23.100006,-1.599976 27.699982,-2.200012c1,-0.399963 1.800049,-0.099976 3.199951,0.5c1,3.900024 1.800049,10.200012 4.5,14c-1,-3.899963 1.300049,-7.199951 3,-9.099976c0.700073,4.599976 2.5,10.500031 10.200073,12.900055c-2,-3.400055 -1.799988,-5.900055 -1.200073,-7.400055c4.100098,2.599976 7.800049,4.099976 11.300049,3.900024c0,0 6.400024,5.299957 9.699951,5.799957c3.200073,0.5 3.900024,-5.299957 4.5,-6.699982s6.400024,-0.799988 7,-2.299988s6.700073,-1.5 3.400024,-8.100037c-7.799927,-4.099976 -12.499939,-15.599976 -13.299927,-22c-3.300049,-6.599976 -9.700073,-11.799988 -16.5,-16.399963c0.899902,-2.200012 1.799927,-10.5 -1.5,-11c-2.5,-0.200012 -3.700073,2.799988 -7.800049,0.200012c0,0 -0.300049,-9.600037 -6.5,-11.300049c-7.699951,-2.299988 -5.5,2.900024 -10.099976,3.5c-18.300049,-1.599976 -21.600006,-8.199951 -32.700043,-12.799988c-11,-4.599976 -18,3.700012 -31.099976,0c-7.700012,-2.299988 -27.200012,-11.399963 -49.400024,-12c-6,6.100037 -10.399963,14.600037 -11.5,25.400024c-5.299988,27.200012 -10.899963,55 -10.699951,79.300018c25.099976,6 50.200012,-8.600037 56.599976,-24.000031z" fill="#FFFFFF"/>
       <path id="svg_47" d="m438.551727,579.368896c7.5,-9.800049 -13.099976,-14.099976 -16.5,-16.400024c-3.400024,-2.299988 5.599976,-17.5 -1.099976,-36.699951c-8,2.699951 -16.600037,2.599976 -23.900024,1.299927c0.599976,19.300049 4.900024,35.700073 14.099976,49.100037c8.500061,2.5 19.000061,4.299988 27.400024,2.700012z" fill="#FFFFFF"/>
      </g>
      <g id="svg_48">
       <path id="svg_49" d="m875.551636,542.468872l-0.400024,-1c0,0 0,0 -0.299927,0.700012c0.699951,0.299988 0.699951,0.299988 0.699951,0.299988z" fill="none"/>
       <path id="svg_50" d="m881.651611,538.068848c-0.900024,-2.099976 -2.400024,-4.5 -5.099976,-6.399963c-0.300049,0.700012 0.099976,1.799988 -0.5,3.200012c2.199951,1 3.699951,1.599976 5.599976,3.199951z" fill="none"/>
       <path id="svg_51" d="m813.551636,556.268921c-2.400024,1.599976 -9.300049,-0.400024 -17.599976,-1.300049c-16.099976,-0.699951 -18.300049,14.800049 -30.5,19.200012c-6.300049,2.600037 -6.300049,6.899963 -3.400024,8.100037c2.900024,1.199951 8.800049,3.699951 11.30011,3.899963c-15.500061,14.299988 -35.900085,17.799988 -42.500061,21.100037c-7.600098,3.699951 -14.400024,9.599976 -23.400024,8.400024c-5,-0.400024 -5.300049,-3.900024 -5.300049,-3.900024c-1.5,-0.600037 -4.199951,-4.400024 -3.699951,-7.600037c0.5,-3.200012 -1.900024,-12 1.199951,-23.700012c4.700134,-15.299988 16.200073,-34.699951 25.099976,-45.699951c9.200073,-11.700073 28.900024,-32.000031 31.300049,-33.600006c6,-6.100037 -3.900024,-46.5 16,-52.900024c2.800049,-0.5 4,0.799988 3.400024,2.299988c0.099976,1.799988 -1.900024,35.5 13.199951,36.600037c6.800049,0.299988 40.200073,-3.100037 67.599976,11.799988c7.800049,4.099976 14.600098,10.399963 21.200073,17.499969c1.699951,-43.299957 -14.400024,-64.799957 -70.099915,-74.199982c-37.900085,-6.299988 -149.799988,-32.299988 -157.499939,31.799988c-14,72.800018 -26.599976,144.399994 55.799805,157.999969c39.700134,6.200073 145.900024,22.900024 155.800049,-25.599976c4.799927,-23.900024 9.099976,-44.599976 12.199951,-62.299988c-5.599976,-3.200012 -11.799927,-4.899963 -16.799927,-5.299988c-18.100098,-1.400024 -35.400146,13 -43.300049,17.400024zm-93.600037,-32.200073c3.399963,-2 3.699951,7.600037 7.299988,7.400024c-6,6.099976 -13.700073,18.400024 -16.600037,23.300049c-2.899963,-9.800049 0.400085,-24 9.300049,-30.700073zm85.899963,61c-23.199951,5.900024 -38.300049,-1.299927 -41.300049,-2.5c-2.899902,-1.199951 -0.699951,-4.599976 3.5,-6.299927c10.100098,-3.5 14.700073,-20.600037 28.700073,-19.100098c14,1.500061 30.599976,3.300049 35.299927,4.400024c5.100098,0.300049 -3.699951,17.300049 -26.199951,23.5z" fill="#2582C5"/>
       <path id="svg_52" d="m844.451538,521.668945c-21.599976,2.199951 -26.300049,23.599976 -37.499939,31.799927l5,0.400024c6.399963,-5.099976 17.399963,-12.599976 26.399963,-15.700012c7.299988,-3 19.299988,-4.899963 36.400024,4l0.299927,-0.700012c-5.099915,-6.399902 -14.099915,-7.599976 -20.599976,-8.599976c-4,-0.799927 -2.300049,-2.700012 -0.199951,-3.599976c6.700012,-1.5 15.099976,1.099976 22.099976,4.899963c0.299988,-0.700012 0.199951,-2.499939 0.5,-3.200012c-6.400024,-5.299927 -17.899963,-11 -32.400024,-9.299927z" fill="#2582C5"/>
       <ellipse id="svg_53" ry="1.6" rx="3.2" cy="409.37893" cx="856.295627" fill="#2582C5" transform="matrix(0.8466,-0.5323,0.5323,0.8466,-205.1714,696.712) "/>
       <path id="svg_54" d="m751.051636,577.668945c7.599976,-3.700073 7.400024,-11.599976 8.5,-12c1,-0.400024 3.300049,-3.800049 -1,-3.900024c-11.800049,-0.600037 -20.900024,8.599976 -21.699951,16.799988c-1.200073,9.100037 6.599854,2.899963 14.199951,-0.899963z" fill="#2582C5"/>
       <path id="svg_55" d="m743.251587,594.268921c-7.800049,6.199951 -17.699951,7.299927 -22.699951,13c-4.700073,5 -9.300049,5.599976 -12.400024,6.899963c-1,0.399963 -1,0.399963 -0.300049,0.700012c4,0.800049 9.900024,-1 18.200073,-6.199951c9.299927,-5.600098 31.399902,-11.100098 41.199951,-20c-4.699951,-1.100098 -8.099976,-3.400024 -10.699951,-5.300049c-2.700073,-1.900024 -5.800049,5.400024 -13.300049,10.900024z" fill="#2582C5"/>
       <path id="svg_56" d="m853.951599,529.968872c-1.80011,0.099976 -3.700012,2.800049 0.19989,3.599976c6.500061,1 16.200073,2.5 20.600098,8.600037c0.200012,-2.499939 0.399902,-5 1.299927,-7.200012c-6.699951,-4.599976 -15.399902,-6.5 -22.099915,-5z" fill="#FFFFFF"/>
       <path id="svg_57" d="m832.151611,561.468872c-5,-0.400024 -21.300049,-2.799927 -35.300049,-4.400024c-14,-1.5 -18.599976,15.600098 -28.699951,19.100037c-4.900024,1.399963 -7.199951,4.799988 -3.5,6.299988c2.900024,1.200073 18.800049,8.700012 41.300049,2.5c22.399902,-6.099976 31.199951,-23.099976 26.199951,-23.5z" fill="#FFFFFF"/>
       <path id="svg_58" d="m838.151611,538.868896c-9.099976,3.099976 -20,10.699951 -26.400024,15.699951l-5,-0.400024c11.200073,-8.299927 15.800049,-29.699951 37.5,-31.799927c15.300049,-1.400024 26,3.900024 32.400024,9.199951c0.400024,-5 0.699951,-10.099976 1.099976,-15.099976c-5.799927,-6.699982 -13,-12.300018 -21.199951,-17.500031c-27.5,-14.899963 -60.800049,-11.599976 -67.599976,-11.799988c-15.400024,-0.399963 -13.100098,-34.799988 -13.200073,-36.599976c-0.099976,-1.799988 -0.5,-2.799988 -3.400024,-2.299988c-19.899902,6.399963 -10,46.799988 -16,52.899963c-1.699951,1.900024 -22.099976,21.899994 -31.299927,33.600067c-9.200073,11.699951 -20.400024,30.299927 -25.099976,45.699951c-3.100098,11.599976 -0.800049,20.400024 -1.200073,23.699951c-0.5,3.200073 2,7.700073 3.700073,7.600098c0,0 0.199951,3.599976 5.299927,3.899963c9,1.200012 15.800049,-4.600037 23.400024,-8.399963c6.599976,-3.300049 26.300049,-7.200073 42.5,-21.100098c-2.199951,-0.899902 -8.400024,-2.599976 -11.300049,-3.899902c-2.899902,-1.200073 -2.599976,-6.300049 3.400024,-8.100098c11.5,-4.699951 14.400024,-19.899902 30.5,-19.199951c8.599976,0.099976 15.200073,2.900024 17.599976,1.300049c8.200073,-5.200073 25.5,-19.600037 43.5,-17.300049c5.800049,0.700012 12,2.400024 16.800049,5.300049c0.300049,-0.700073 -0.099976,-1.800049 0.199951,-2.5c-16.900024,-7.700073 -28.900024,-5.900024 -36.199951,-2.900024zm-79.599976,23c5,0.400024 2,3.400024 1,3.900024s-0.099976,8.599976 -8.5,12c-7.599976,3.699951 -16.400024,10.399902 -15,0.699951c1.699951,-8.099976 10.299927,-18.299988 22.5,-16.599976zm-21.5,24.699951c1.30011,-1.199951 3.099976,-1.299927 3.599976,-0.199951c0.400024,1 -0.199951,2.5 -2.299866,3.400024c-1.30011,1.199951 -3.100159,1.299927 -3.600159,0.199951c-0.400024,-1.099976 0.200012,-2.599976 2.300049,-3.400024zm30.899963,2.5c-9.80011,8.900024 -32.600037,14 -41.200012,20c-7.900024,4.5 -14.200073,7 -18.200073,6.200073c-0.699951,-0.300049 -0.699951,-0.300049 0.300049,-0.700073c2.799988,-0.5 8.5,-1.599976 12.400024,-6.899963c5,-5.700012 15.199951,-7.500061 22.700012,-13c7.499939,-5.500061 10.599915,-12.899963 13.19989,-10.899963c2.400146,2.699951 6.100098,4.199951 10.80011,5.299927z" fill="#FFFFFF"/>
       <path id="svg_59" d="m727.251587,531.468872c-3.599976,0.200073 -3.900024,-9.400024 -7.299988,-7.400024c-8.799988,6.700073 -12.200012,20.800049 -8.600037,31c2.099976,-5.199951 9.900024,-17.5 15.900024,-23.599976z" fill="#FFFFFF"/>
      </g>
     </g>
    </g>
   </g>
  </g>
 </g>
</svg>